
        <svg xmlns="http://www.w3.org/2000/svg" xmlns:xlink="http://www.w3.org/1999/xlink" version="1.1" width="2038.2352941176473" 
        height="3176.470588235294" viewBox="0 0 2038.2352941176473 3176.470588235294">
			<rect fill="#f9f9f9" width="2038.2352941176473" height="3176.470588235294"/>
			<g transform="scale(8.823529411764707) translate(10, 10)">
				<defs id="SvgjsDefs2674"></defs><g id="SvgjsG2675" featureKey="rootContainer" transform="matrix(1,0,0,1,0,0)" fill="#00509d"><rect xmlns="http://www.w3.org/2000/svg" width="211" height="340" rx="10" ry="10"></rect></g><g id="SvgjsG2676" featureKey="nameFeature-0" transform="matrix(9.98729133605957,0,0,9.98729133605957,0.025392963741534658,-79.59153017140387)" fill="#f9f9f9"><path d="M19.04 10.920000000000002 c0.12 0.56 0.04 27.2 0.04 27.88 c0 1.2 -0.44 1.16 -1.24 1.16 c-1.2 0 -2.88 0.2 -3.24 -0.2 c-0.32 -0.28 -6.24 -14.56 -7.08 -16.36 c-0.08 -0.16 -0.28 -0.56 -0.44 -0.48 c-0.2 0.08 -0.12 0.36 -0.12 0.52 c-0.04 1.4 0.2 13.48 0.2 15.4 c0 0.96 -0.04 1.12 -0.84 1.12 l-2 0 c-0.52 0 -1.16 -0.04 -1.68 0.04 c-0.4 0 -0.6 -0.12 -0.64 -0.52 l0 -3.16 c0.08 -3.36 0 -23.28 0 -24.76 c0 -1.28 0.36 -1.52 1.64 -1.52 c0.88 -0.04 1.76 -0.04 2.64 -0.04 c0.28 0 0.44 0.04 0.6 0.4 c1.08 2.52 5.68 14.08 6.4 15.48 c0.12 0.28 0.56 1.4 0.8 1.52 l0.04 0 c0.16 -0.16 0.12 -0.96 0.12 -1.2 c0 -0.6 -0.32 -14.64 -0.32 -14.92 c0 -0.4 -0.12 -0.76 0.08 -1.04 c0.12 -0.16 0.64 -0.2 0.84 -0.24 c1.12 -0.08 2.44 0.04 3.56 0 c0.56 0 0.52 0.4 0.64 0.92 z"></path></g>
			</g>
		</svg>
	