<?xml version="1.0" encoding="UTF-8"?>
<svg version="1.1" viewBox="0 0 3187.5 3163.2" xmlns="http://www.w3.org/2000/svg" xmlns:xlink="http://www.w3.org/1999/xlink">
<g transform="scale(9.3726) translate(10 10)">
<g transform="matrix(3.1407 0 0 3.1407 .13959 -.028792)" fill="#00509d" featureKey="rootContainer">
<path d="M101.8 83.6l-.2-29.5c0-6 .1-12.2-.2-18-.1-2.5-.1-5.1-.1-7.8 0-4.7-.1-9-.4-13.2l-.2-4.2c-.1-2.7-.2-5.3-.3-8V1h-7.3L77.2.7H66.6a25.7 25.7 0 0 0-5.5.6l-.6.3H49.8c-.1-.2-.8-.3-2.2-.4L34.3.3a130.5 130.5 0 0 0-18.8.1C12.3.6 9 .8 4.6.9L1.5.5H.4v1.2c-.2 2-.3 4.3-.3 7s0 6.8-.1 10.2 0 5.3 0 8a42.2 42.2 0 0 0 .4 6.9 20.3 20.3 0 0 1 .3 2.9c.1 3.8.4 4.8.8 5.5v17.6l-.2.5c.1 4-.1 7.6-.2 11.3-.3 7.4-.4 15-.1 22.5a25.5 25.5 0 0 0 .5 4.9v.8H6l-.2.2h5.4a51 51 0 0 1 8.6.4 21.1 21.1 0 0 0 3.8.3c6.6-.1 12.7.1 18.9.4h6.7l13.9-.3c6.1-.1 11.9-.5 18.3-.5h9.7l3.5-.2 2.8-.5h2.3v-1c.3 1.6.6 1.4 1-.8.1-.6.2-1.3.3-2s.3-2.6.5-3.4a51.3 51.3 0 0 0 .3-8.8z" xmlns="http://www.w3.org/2000/svg"/>
</g>
<g transform="matrix(1.4668 0 0 1.4668 86.374 24.666)" fill="#f9f9f9" featureKey="symbolFeature-0">
<g display="none" fill="#f9f9f9" xmlns="http://www.w3.org/2000/svg">
<path d="m77.3 87.5-16.3-31.8c-0.8 4.8-2.3 9.4-4.3 13.6l11.6 22.8c0.9 1.7 2.6 2.7 4.5 2.7 0.8 0 1.5-0.2 2.3-0.5 2.5-1.3 3.4-4.3 2.2-6.8z" display="inline"/>
<circle cx="50.6" cy="13.4" r="8.4" display="inline"/>
<path d="m70.7 40.5c-9.2-3.9-15.2-13.8-15.3-14-1.5-2.6-4.9-3.5-7.5-1.9-0.4 0.2-0.7 0.5-1 0.7-3.4 2.2-12.2 9-16.7 23.8-0.9 2.8 0.7 5.8 3.6 6.7 2.8 0.9 5.8-0.7 6.7-3.6 1.9-6.3 4.7-10.7 7.2-13.5 0.6 3.7 0.9 8.6 0 14.1-2.8 17.2-18.7 32.8-18.9 33-2.1 2.1-2.2 5.4-0.1 7.6 1 1.1 2.4 1.6 3.8 1.6 1.3 0 2.7-0.5 3.7-1.5 0.8-0.7 18.8-18.3 21.9-38.9 0.5-2.9 0.6-5.7 0.7-8.3 2.3 1.7 4.8 3.2 7.6 4.4 0.7 0.3 1.4 0.4 2.1 0.4 2.1 0 4.2-1.3 5.1-3.3 1.2-2.9-0.1-6.1-2.9-7.3z" display="inline"/>
</g>
<g display="none" xmlns="http://www.w3.org/2000/svg">
<path d="m24.8 18.6c5.7 0 10.3 4.6 10.3 10.3s-4.6 10.3-10.3 10.3-10.3-4.6-10.3-10.3 4.6-10.3 10.3-10.3m0-2.9c-7.3 0-13.3 6-13.3 13.3s6 13.3 13.3 13.3 13.3-6 13.3-13.3c0-7.4-6-13.3-13.3-13.3z" display="inline"/>
<g display="inline">
<path d="m64 5c-13.5 0-24.5 11-24.5 24.5 0 2.5 0.4 4.9 1.1 7.2 0.9-0.5 1.9-0.9 2.7-1.2-0.5-1.9-0.9-3.9-0.9-6 0.1-11.9 9.8-21.5 21.6-21.5 11.9 0 21.5 9.7 21.5 21.5 0.1 11.9-9.6 21.5-21.5 21.5-4.6 0-8.9-1.5-12.4-3.9-0.4 0.4-0.7 0.7-1 1.1 4.6 3.2 7.3 3.6 11.2 4.2 0.4 0.1 0.7 0.3 0.9 0.6 0 0 0.3 0.4 0.7 1h0.5c13.5 0 24.5-11 24.5-24.5 0.1-13.5-10.8-24.5-24.4-24.5z"/>
</g>
<path d="m67.6 60.7c-1.6-3.5-4.7-7.5-4.8-7.7-0.2-0.3-0.6-0.5-0.9-0.6-3.9-0.6-6.6-1-11.2-4.2 1.6-1.9 4.1-3.9 6.5-5.2 1.4-0.7 3-1.2 4.5-1.6 3-0.8 6.7-1.9 5.8-5.6-0.5-2.2-3.6-3.5-8.3-3.5-0.5 0-1 0-1.6 0.1-3.1 0.2-6.3 0.5-11.7 2.3-3.6 1.2-10.9 4.4-13 8.3-2.3 3.9-1 9.8 3.2 14 0 0 3.9 4 9 9.5 1.2 1.3 2.4 2.6 3.5 4 0.2 3.7 0.4 8.4 0 10.9-0.4 2.3-2.4 7.9-0.8 9.2 1.2 0.9 4.7-1 7.5-4.2 0.2-0.2 0.3-0.4 0.5-0.6l0.6 2.6c0.6 3.9 3.3 6.9 6.1 6.9h0.2c3.5-0.2 5.9-6.6 6.7-12.5 0.2-0.9 1.8-14.2-1.8-22.1zm-1 21.5c-0.8 6.3-3.1 9.8-3.9 9.9h-0.1c-1.2 0-2.8-1.8-3.2-4.4v-0.1l-1.4-6.3c-1.6-6.7-6.3-12.4-10.6-17.1-5.2-5.5-9-9.5-9.1-9.5-3.2-3.2-4.4-7.8-2.7-10.5 1.3-2.4 6.8-5.5 11.3-6.9 5.1-1.6 8-1.9 11-2.1h1.4c3.6 0 5.2 0.9 5.4 1.3 0.2 0.8-0.3 1.1-3.7 2.1-1.6 0.5-3.4 1-5.1 1.9-3.3 1.7-6.6 4.6-8.4 7.3-0.3 0.5-0.3 1-0.1 1.5 0 0 6.8 10.1 16.3 10.1 0.5 0.9 1 1.8 1.4 2.6 3.1 7 1.5 20 1.5 20.2z" display="inline"/>
</g>
<g display="none" xmlns="http://www.w3.org/2000/svg">
<g display="inline" fill="#f9f9f9">
<path d="m88.6 25.9h-25.7v-5.4c0-2.4-1.9-4.3-4.3-4.3h-17.2c-2.4 0-4.3 1.9-4.3 4.3v5.4h-25.7c-3.5 0-6.4 2.9-6.4 6.4v45c0 3.5 2.9 6.4 6.4 6.4h77.1c3.5 0 6.4-2.9 6.4-6.4v-45c0.1-3.5-2.8-6.4-6.3-6.4zm-47.2-5.4h17.1v5.4h-17.1v-5.4zm32.4 9.7v49.3h-47.5v-49.3h47.5zm-64.5 47.1v-45c0-1.2 1-2.1 2.1-2.1h8.7v49.3h-8.7c-1.2 0-2.1-1-2.1-2.2zm81.4 0c0 1.2-1 2.1-2.1 2.1h-8.6v-49.2h8.6c1.2 0 2.1 1 2.1 2.1v45z"/>
<path d="m57 34.8-16.3 16.3 10.9 10.9 16.3-16.3v-10.9h-10.9zm7.1 7.1c-0.9 0.9-2.4 0.9-3.3 0s-0.9-2.4 0-3.3 2.4-0.9 3.3 0 0.9 2.4 0 3.3z"/>
</g>
</g>
<g display="none" xmlns="http://www.w3.org/2000/svg">
<g display="inline">
<path d="m94.5 57.5c-1.6-0.4-3.2 0.6-3.6 2.3-4.4 19.2-21.2 32.6-41 32.6-15 0-29-8.1-36.5-21.2 0-0.1-0.1-0.1-0.1-0.2 0 0 0-0.1-0.1-0.1-1.2-2.1-2.9-6.7-3.3-8-0.9-3.5-0.8-5.8 0.2-7.2 1.3-1.6 4.3-2.5 8.8-2.6h4.8v4.4c0 3.2 2 5.8 4.6 5.8h13v-5h7.9v-5.9h-7.9v-4h7.9v-5.9h-7.9v-5h-13c-2.5 0-4.6 2.6-4.6 5.8v3.7h-4.8c-6.5 0.1-10.9 1.7-13.4 4.9-2.3 3-2.7 7-1.3 12.4 0.4 1.6 2.3 6.8 3.9 9.5 0 0.1 0.1 0.1 0.1 0.1s0 0.1 0.1 0.1c8.5 15.1 24.5 24.4 41.7 24.4 22.6 0 41.8-15.3 46.8-37.3 0.4-1.6-0.6-3.3-2.3-3.6zm-51-3.1h3.9v1.9h-3.9v-1.9zm0-10h3.9v1.9h-3.9v-1.9zm-15.6-1.1c0-1.1 0.4-1.7 0.7-1.8h8.9v17.8h-8.9c-0.2-0.2-0.7-0.8-0.7-1.8v-14.2z"/>
<path d="m5.5 43.2c0.2 0.1 0.4 0.1 0.7 0.1 1.4 0 2.6-0.9 2.9-2.3 4.3-19.2 21.2-32.6 40.9-32.6 15 0 29 8.1 36.5 21.2 0.1 0.2 0.3 0.4 0.4 0.6 1.2 2.3 2.6 6.3 3 7.5 0.9 3.5 0.8 5.8-0.2 7.2-1.3 1.6-4.3 2.5-8.8 2.6h-4.7v-4c0-3.2-2-5.8-4.6-5.8h-13v25.8h13c2.5 0 4.6-2.6 4.6-5.8v-4h4.7c6.6-0.1 11.1-1.7 13.6-4.9 2.3-3 2.7-7 1.3-12.4-0.4-1.6-2.3-6.8-3.9-9.5-0.1-0.3-0.3-0.5-0.5-0.7-8.8-14.8-24.5-23.8-41.4-23.8-22.6 0-41.8 15.3-46.8 37.3-0.4 1.6 0.6 3.2 2.3 3.5zm66.6 14.2c0 1.1-0.4 1.7-0.7 1.8h-8.9v-17.7h8.9c0.2 0.2 0.7 0.8 0.7 1.8v14.1z"/>
</g>
</g>
<g display="none" xmlns="http://www.w3.org/2000/svg">
<g display="inline">
<path d="m61.5 93.9h-23c3.7 1 7.5 1.5 11.5 1.5s7.8-0.5 11.5-1.5z"/>
<path d="m84.9 83.4v10.4h-14.6c-1.2 0.5-2.3 1-3.6 1.5h19.7v-13.5c-0.5 0.6-1 1.1-1.5 1.6z"/>
<path d="m29.7 93.9h-14.6v-10.5c-0.5-0.5-1-1.1-1.5-1.6v13.6h19.7l-3.6-1.5z"/>
<path d="m18.3 19.7c8-8.4 19.2-13.6 31.7-13.6s23.7 5.2 31.7 13.6h2c-8.3-9.2-20.3-15.1-33.7-15.1s-25.4 5.8-33.7 15.1h2z"/>
<path d="m95.4 50c0-8.2-2.2-15.9-6-22.6v3.1c2.9 5.9 4.6 12.5 4.6 19.4 0 24.2-19.7 43.9-43.9 43.9-24.3 0.1-44-19.6-44-43.8 0-7 1.6-13.6 4.6-19.4v-3.1c-3.8 6.7-6 14.4-6 22.6-0.1 24.9 20.3 45.3 45.3 45.3s45.4-20.4 45.4-45.4z"/>
<path d="m86.2 22.7h-72.6v46c0.5 0.9 1 1.8 1.5 2.6v-47.1h69.7v47.2c0.5-0.9 1-1.7 1.5-2.6v-46.2h-0.1z"/>
<path d="m49.8 34.9c-3 0-5.4-2.4-5.4-5.4s2.4-5.4 5.4-5.4 5.4 2.4 5.4 5.4-2.4 5.4-5.4 5.4zm0-9.3c-2.2 0-3.9 1.8-3.9 3.9 0 2.2 1.8 3.9 3.9 3.9 2.2 0 3.9-1.7 3.9-3.9 0-2.1-1.7-3.9-3.9-3.9z"/>
<path d="m81.4 35.6h-10.2l11.5-5.2c1.7-0.7 2.4-2.7 1.7-4.3-0.5-1.2-1.7-1.9-3-1.9-0.5 0-0.9 0.1-1.3 0.3l-25 11.1h-10.7l-24.4-11.2c-0.4-0.2-0.9-0.3-1.4-0.3-1.3 0-2.5 0.8-3 1.9-0.8 1.6 0 3.6 1.6 4.3l11.4 5.2h-10c-1.8 0-3.3 1.5-3.3 3.3s1.5 3.3 3.3 3.3h23.4v13.9c0 0.1-0.1 0.2-0.1 0.3l-10.7 30.6c-0.3 0.8-0.3 1.7 0.1 2.5s1 1.4 1.9 1.7c0.4 0.1 0.7 0.2 1.1 0.2 1.4 0 2.6-0.9 3.1-2.2l4.6-12.5v14.8c0 1.8 1.5 3.3 3.3 3.3s3.3-1.5 3.3-3.3v-31h2.4v31c0 1.8 1.5 3.3 3.3 3.3s3.3-1.5 3.3-3.3v-14.2l4.3 11.9c0.5 1.3 1.7 2.2 3.1 2.2 0.4 0 0.8-0.1 1.1-0.2 0.8-0.3 1.5-0.9 1.8-1.7 0.4-0.8 0.4-1.7 0.1-2.5-8.4-24.2-10.2-29.2-10.5-30.3v-14.4h23.9c1.8 0 3.3-1.5 3.3-3.3s-1.5-3.3-3.3-3.3zm-0.7-9.8c0.2-0.1 0.5-0.2 0.7-0.2 0.7 0 1.3 0.4 1.6 1.1 0.4 0.9 0 2-0.9 2.4l-14.6 6.5h-8.8l22-9.8zm-62.9 3.3c-0.9-0.4-1.3-1.5-0.9-2.4 0.3-0.7 1-1.1 1.6-1.1 0.2 0 0.5 0.1 0.7 0.2l21.5 9.8h-8.7l-14.2-6.5zm18.2 59.5c-0.3 0.7-1 1.2-1.7 1.2-0.2 0-0.4 0-0.6-0.1-0.9-0.3-1.4-1.4-1.1-2.3l9.4-26.9v11.8l-6 16.3zm30.6-1.2c0.3 0.9-0.1 2-1.1 2.3-0.2 0.1-0.4 0.1-0.6 0.1-0.7 0-1.4-0.5-1.7-1.2l-5.7-15.8v-11.7c2.9 8.4 9.1 26.3 9.1 26.3zm14.8-46.7h-24.7l-0.7 0.3v50.4c0 1-0.8 1.8-1.8 1.8s-1.8-0.8-1.8-1.8v-32.4h-5.4v32.5c0 1-0.8 1.8-1.8 1.8s-1.8-0.8-1.8-1.8v-50.5l-0.6-0.3h-24.2c-1 0-1.8-0.8-1.8-1.8s0.8-1.8 1.8-1.8h62.9c1 0 1.8 0.8 1.8 1.8-0.1 1-0.9 1.8-1.9 1.8z"/>
</g>
</g>
<g display="none" xmlns="http://www.w3.org/2000/svg">
<g display="inline">
<path d="m52.3 8.5c0.5 0 0.9 0.2 0.9 0.7 0 1.3-2.8 1.8-2.8 4.1v0.9h3.7v-0.6c0-1.4 3.1-1.9 3.1-4.9 0-2.6-2.4-3.8-4.6-3.8-2.6 0-4.1 1.7-4.1 1.7l2.1 2.6c0 0.1 0.8-0.7 1.7-0.7z"/>
<rect x="50.5" y="15.4" width="3.4" height="3.2"/>
<path d="m62.9 45.1c2.2-2.6 3.6-6 3.6-9.6 0-8.2-6.7-14.9-14.9-14.9s-14.9 6.7-14.9 14.9c0 4 1.6 7.7 4.3 10.5-2 1.7-5.3 5.3-6.7 10.6v0.1c0 0.1-0.1 0.3-0.1 0.4v0.2c-0.1 0.5-0.2 0.9-0.3 1.4-0.4 2.1-0.4 3.9 0 5.4 0.3 1.4 1.4 2.8 1.6 3l0.2 0.2c0 2.1 0.1 5.5 0.2 6.1 0.4 8.5 2.7 16.4 4.3 19.4 1.8 3.5 4.3 4 5.9 3.5 0.6-0.2 1.2-0.7 1.5-1.4 0.5-0.9 0.6-2 0.6-2.2v-0.1-5.7c0.9 0.1 2.2 0.5 3.1 1.5 1.9 2.2 2.4 3.5 3.1 5.5 0.6 1.8 1.7 2.4 2.4 2.6 0.3 0.1 0.6 0.1 0.9 0.1 0.9 0 1.8-0.3 2.5-0.9 1.5-1.3 4.1-7.6 4.7-17 0.4-5.5-0.2-11-0.8-14.7v-0.1-0.1c-0.2-1-0.3-1.9-0.4-2.7l0.1-0.1c0.3-0.3 0.6-0.7 0.8-1 0.2-0.2 0.3-0.4 0.5-0.6 0.3-0.5 0.6-1 0.9-1.7 0.8-2.2 1.1-5.9-0.5-9.2-0.8-1.3-1.6-2.3-2.6-3.4zm-0.6 12.4c-0.1 0.2-0.3 0.3-0.4 0.5-0.2 0.3-0.4 0.5-0.7 0.8l-0.7 0.7c-1 0.8-2 1.4-3 1.6-0.2 0-0.5 0.1-0.7 0.1-0.7 0.1-1.5 0.1-2.2 0.1-0.1 0-0.6-0.1-1.2-0.3-0.8-0.2-1.9-0.7-2.7-1.4-0.4-0.3-0.7-0.6-1-1-0.3-0.3-0.5-0.6-0.7-0.9s-0.4-0.5-0.5-0.9c-0.1-0.1-0.1-0.3-0.2-0.4-0.2-0.3-0.3-0.7-0.5-1.1-0.1-0.4-0.3-0.8-0.4-1.2-0.1-0.2-0.1-0.4-0.2-0.7-0.6-2-0.8-3.8-0.8-5.2v-0.1c0-0.7 0.1-1.2 0.2-1.4 0 0 0-0.1 0.1-0.1 0.1-0.1 0.4-0.1 0.6 0 0.8 0.3 1.4 1 2.5 2.5l0.1 0.1 3.9 4.9c0.5 0.6 1.4 0.8 2.1 0.3 0 0 1.2-0.8 2.4-1.9 1-0.9 1.7-1.7 2.2-2.5 0.4-0.7 0.7-1.4 1-2.1 0.5 0.6 0.9 1.2 1.2 1.8 1.2 2.5 1 5.2 0.4 6.8-0.5 0.4-0.6 0.8-0.8 1zm-7.9-7.5c0.8-0.2 1.5-0.4 2.3-0.6l-0.7 0.7c-0.3 0.3-0.6 0.5-0.9 0.7l-0.7-0.8zm-14.6-14.6c0-6.5 5.3-11.8 11.8-11.8s11.7 5.4 11.7 11.8c0 6.2-4.9 11.4-11.1 11.7l-0.1-0.1c-1.2-1.7-2.2-3-4-3.6-1-0.3-2.1-0.3-3 0.2-0.4 0.2-0.7 0.5-1 0.8-2.7-2.1-4.3-5.4-4.3-9zm-2.9 23.7 0.3-1.2 0.1-0.5v-0.1c1-3.8 3.2-6.5 4.8-8.2 0.1 1.5 0.4 3.3 0.9 5.2l0.1 0.5c0.1 0.4 0.2 0.8 0.3 1.1-0.1 0.1-0.3 0.2-0.4 0.3-0.5 0.4-0.8 0.6-1 0.7v0.2c-1 0.5-2 1-2.1 1-0.7 0.3-1.1 1.1-0.9 1.8s0.8 1.2 1.6 1.2c0 0 1.2-0.1 2.6-0.3 0.3-0.1 0.6-0.1 1-0.2s0.8-0.3 1.3-0.4c0.4 0.6 1 1.2 1.6 1.9l0.8 0.8c0.6 0.6 1.3 1 2.2 1.5-0.2 0.1-0.4 0.2-0.6 0.4-2 1.1-5.9 2-8.4 2-1.2 0-1.6-0.2-1.8-0.3s-0.9-0.6-1.4-1.2c-0.3-0.4-0.8-1.3-1-1.8-0.3-1.4-0.3-2.7 0-4.4zm24.7 19.3c-0.6 9.7-3.2 14.4-3.6 14.8-0.2 0.2-0.5 0.2-0.6 0.2s-0.2-0.2-0.3-0.5c-0.7-2.3-1.4-4-3.7-6.7-1.8-2-4.4-2.5-5.8-2.6-0.7-0.1-1.3 0-1.3 0-0.8 0.1-1.4 0.7-1.4 1.6v7.3c0 0.2-0.1 0.5-0.2 0.8-0.4-0.1-1.1-0.5-1.9-2-1.4-2.6-3.5-10.1-3.9-18.1 0-0.9-0.1-2.5-0.1-3.9 0.6 0.2 1.4 0.3 2.3 0.3 3 0 7.4-1.1 9.8-2.4 0.9-0.5 1.8-1.1 2.7-1.8 0.2-0.2 0.5-0.4 0.7-0.5s0.3-0.3 0.4-0.5h0.8c0.6 0 1.2 0 1.8-0.1 0.3 0 0.7-0.1 1-0.2 0.9-0.2 1.7-0.5 2.5-0.9 0 0.3 0.1 0.6 0.1 0.9v0.1c0 0.2 0 0.3 0.1 0.5 0.4 3.5 0.9 8.6 0.6 13.7z"/>
</g>
</g>
<g clip-rule="evenodd" display="none" fill-rule="evenodd" xmlns="http://www.w3.org/2000/svg">
<path d="m39.5 73.2s4.9 2.1 6.1 4.6 1.1 3.9 0.5 5c-0.5 1.1-3.2 2.3-6.2 2.3s-7.4-0.4-7.4-0.4c13-2.8 7-11.5 7-11.5z" display="inline"/>
<path d="m69 27.8c0 7.7-6.3 14-14 14s-14-6.3-14-14 6.3-14 14-14 14 6.2 14 14" display="inline" fill="none" stroke="#f9f9f9" stroke-width="3"/>
<path d="m9 60.3c1.8-2.8 9.2-10.8 18.6-14 6.2-2.1 15.6-3.6 20.7 1.8s8 13.1 12.4 15.1 8.2 2.3 9.4 4.3c1.2 1.9 0.5 5.7-3.5 5.7-4.1 0-12.4-2.7-18.6-5s-8-3.9-8-3.9l-4.3 7.6s2.3 0.4 4.3 1.8 3 4.3 1.2 6.4-6 4.8-9.4 5.5-14 1.2-19 0.2c-5-1.1-8.1-6.7-7.8-13.5 0.4-6.3 2.2-9.2 4-12z" display="inline" fill="none" stroke="#f9f9f9" stroke-width="3"/>
<path d="m37.7 62.1-1.9-1.9s-3.2 4.7-4.8 6.7c-1.6 1.9-3.5 3.8-3.5 3.8s1.8 0.2 4.1 0.6 4.1 0.6 4.1 0.6l4.3-7.6c0-0.1-1.6-1.6-2.3-2.2z" display="inline" stroke="#f9f9f9" stroke-width="3"/>
<polygon points="83.8 50.8 95 60.8 94.4 76.4 81.9 78.8" display="inline" fill="none" stroke="#f9f9f9" stroke-linejoin="round" stroke-width="2"/>
<path d="m49.3 80.4c0-0.5 0.4-0.9 0.9-0.9l31.7-0.7 0.1 5.9-31.7-0.4c-0.5 0-0.9-0.4-0.9-0.9l-0.1-3z" display="inline" fill="none" stroke="#f9f9f9" stroke-linejoin="round" stroke-width="2"/>
<polygon points="94.4 76.4 94.3 78.8 82 84.6 81.9 78.8" display="inline" fill="none" stroke="#f9f9f9" stroke-linejoin="round" stroke-width="2"/>
<polygon points="83.8 50.4 82.6 50.6 80.7 78.7 81.9 78.8" display="inline" fill="none" stroke="#f9f9f9" stroke-linejoin="round" stroke-width="1.2437"/>
<ellipse transform="matrix(-.069869 .9976 -.9976 -.069869 163.15 -18.094)" cx="90" cy="67" rx="1.9" ry=".5" display="inline"/>
</g>
<g xmlns="http://www.w3.org/2000/svg">
<path d="m74.5 40.2-0.5-0.1-0.3 0.1v-13.3l-2.7 0.9-0.1-2.5-6.3 2.7c-0.7-7.3-6.9-13.1-14.3-13.1-7.9 0-14.4 6.5-14.4 14.4 0 0.4 0 0.7 0.1 1.1l-10.6-3.5 0.2 2.5-2.3-0.6 1.5 14.3c-1.8 0.3-4.7 2-4.6 7.1 0.2 5.6 4.1 8.1 6.2 8.3l0.9 8.5 7.6 2c0 1.5 0 3.1 0.2 4.9 0.7 11.1 3.9 19.7 6.3 20.5 0.7 0.2 1.4 0.4 2.1 0.4 2 0 3.4-1.1 4.1-3 0.3-0.8 0.4-1.6 0.5-2.4 0.3-1.6 0.4-2.9 2.2-4.3s4.7-1.7 6.2-1.7v7.4 0.1c0 0.6 0.4 3.4 2.4 4 0.4 0.1 0.8 0.2 1.2 0.2 1 0 3.6-0.4 5.7-4.2 2-3.5 4.9-12.9 5.4-23.1 0-0.7 0-1.3 0.1-1.9l2.5-1v-9.8c0.2 0 0.4-0.1 0.5-0.1 1.2-0.3 6-2.6 5.7-7.9-0.4-4.4-3.8-6.4-5.5-6.9zm-6.1 12.1c0.5 1.1 1.3 1.9 2.3 2.3v8.1l-17.9 7.1-2.5-32 20.4-6.8v10.7c-0.1 0-0.1 0.1-0.2 0.1-1.4 1.1-2 2.3-2.5 3.7-0.5 1.7-0.7 4.4 0.4 6.8zm-29.6-23c0-6.3 5.1-11.5 11.5-11.5 6.3 0 11.4 5.1 11.5 11.3l-12.9 5.4-9.9-3.1c-0.1-0.7-0.2-1.4-0.2-2.1zm-15.7 20.9c-0.1-3 1.2-3.8 1.8-4 0.5 0.2 1.4 0.6 2.1 0.9l0.6 0.3c1.2 0.5 2.1 0.9 2.4 1.8 0.6 1.6 0.5 3.7-0.4 4.8-0.9 1.2-2.5 1.7-3.2 1.7 0.1 0-3.2-0.8-3.3-5.5zm6.2 7.8c1-0.5 2.1-1.2 2.9-2.2 1.6-2.2 1.5-5.5 0.7-7.6-0.8-2.2-2.9-3-4.1-3.5-0.2-0.1-0.4-0.1-0.5-0.2-0.2-0.1-0.3-0.1-0.5-0.2l-1.2-11.5 20.8 5.3 2.5 32-19.9-5.3-0.7-6.8zm33.7 31.4c-1.1 2-2.3 2.7-3.1 2.7h-0.2c-0.2-0.2-0.3-0.9-0.4-1.4v-10.1l-1.3-0.2h-1.2c-2 0-5.8 0.3-8.4 2.4-2.7 2.1-3 4.4-3.3 6.2-0.1 0.7-0.2 1.3-0.4 1.9-0.3 0.8-0.7 1-1.3 1-0.3 0-0.6-0.1-1-0.2-0.8-0.9-3.7-7-4.4-17.9 0-0.4 0-0.8-0.1-1.1l16 4.1s9.9-4.3 13.9-6.1c-0.8 8.4-3.2 15.9-4.8 18.7zm10.4-37.3c-0.1 0-0.4 0.1-0.6 0.1-1.2 0-1.5-0.7-1.6-1-0.8-1.8-0.6-3.7-0.3-4.6 0.4-1 0.7-1.8 1.5-2.4 0.6-0.4 1.3-0.8 1.8-1 0.8 0.4 2.6 1.5 2.7 4 0.2 3.5-3.5 4.9-3.5 4.9z"/>
<path d="m50 11.1c0.8 0 1.5-0.7 1.5-1.5v-3.1c0-0.8-0.7-1.5-1.5-1.5s-1.5 0.7-1.5 1.5v3.2c0 0.8 0.7 1.4 1.5 1.4z"/>
<path d="m60 13.7c0.4 0 0.8-0.2 1.1-0.5l1.8-2.1c0.5-0.6 0.5-1.5-0.2-2.1-0.6-0.5-1.5-0.5-2.1 0.2l-1.8 2.1c-0.5 0.6-0.5 1.5 0.2 2.1 0.3 0.2 0.7 0.3 1 0.3z"/>
<path d="m39.8 13.5c0.3 0.3 0.6 0.4 1 0.4s0.8-0.2 1.1-0.5c0.5-0.6 0.5-1.5-0.1-2.1l-2-1.8c-0.6-0.5-1.6-0.5-2.1 0.2-0.5 0.6-0.5 1.5 0.1 2.1l2 1.7z"/>
</g>
<g display="none" xmlns="http://www.w3.org/2000/svg">
<g display="inline">
<defs>
<path id="dj" d="m54.3 84.4c-1-4.1-3.6-7.7-6-10.5 0.1 2.9 0.5 7.8 0.1 10.2-0.3 1.8-1.8 6-0.6 7 0.9 0.7 3.6-0.8 5.8-3.2 0.4-0.5 0.8-1 1.3-1.5-0.2-0.7-0.4-1.3-0.6-2"/>
</defs>
<clipPath id="dk">
<use overflow="visible" xlink:href="#dj" xmlns:xlink="http://www.w3.org/1999/xlink"/>
</clipPath>
<rect x="46.1" y="72.7" width="9.8" height="19.6" clip-path="url(#dk)" fill="#f9f9f9"/>
<path d="m44.8 50.3c-4.1-8.3-1.5-18.5 6.2-23.8 0.6-0.5 1.4-1.5 1.1-2.7-0.4-1.7-2.5-10.9-3-13.1l-0.4 0.1c-0.5 0.1-1-0.2-1.1-0.7l-0.4-1.6c-0.1-0.5 0.2-1 0.7-1.1l10.4-2.4c0.5-0.1 1 0.2 1.1 0.7l0.4 1.6c0.1 0.5-0.2 1-0.7 1.1l-0.2 0.1c0.5 2.2 2.6 11.5 3 12.9s2.4 2.1 2.8 2.2c5.2 0.9 10 4 13 8.9 5.3 8.9 2.4 20.4-6.5 25.6-6.6 4-14.8 3.3-20.6-1" fill="none" stroke="#f9f9f9" stroke-miterlimit="10" stroke-width="1.9202"/>
<path d="m46 36.5c-1.2 3.3-1.4 7.1-0.2 10.7 0.3 0.9 0.6 1.7 1 2.5 0.6 1.1 6.9-1.9 9.4-1.4 14.4 2.5-5.6 6.5-4.4 7.3 4.1 3 9.6 4.1 14.8 2.4 8.7-2.8 13.5-12.1 10.7-20.8-0.1-0.2-0.1-0.4-0.2-0.6h-31.1z" clip-rule="evenodd" fill-rule="evenodd"/>
<defs>
<path id="dl" d="m60.7 66.8s-1.7-2.8-2.5-3.7c-6.2-0.9-10-4.1-10-4.1 0.1 0 5.6 8 12.5 7.8z"/>
</defs>
<clipPath id="dm">
<use overflow="visible" xlink:href="#dl" xmlns:xlink="http://www.w3.org/1999/xlink"/>
</clipPath>
<rect x="47.1" y="57.9" width="14.8" height="10.1" clip-path="url(#dm)" fill="#f9f9f9"/>
<path d="m62.8 68.7c-1.2-2.7-3.6-5.8-3.7-5.9-0.2-0.2-0.4-0.4-0.7-0.4-3-0.5-5-0.8-8.6-3.3 1.3-1.5 3.1-3 5-4 1.1-0.6 2.3-0.9 3.5-1.2 2.3-0.6 5.1-1.5 4.4-4.3-0.4-1.7-2.8-2.7-6.3-2.7h-1.2c-2.4 0.2-4.8 0.4-8.9 1.7-2.8 0.9-8.4 3.4-9.9 6.3-1.8 3-0.7 7.5 2.5 10.8 0 0 3 3 6.9 7.3 0.9 1 1.8 2 2.7 3.1 0.1 2.9 0.3 6.4 0 8.3-0.3 1.8-1.8 6.1-0.6 7 0.9 0.7 3.6-0.8 5.8-3.2 0.1-0.1 0.3-0.3 0.4-0.5l0.5 2c0.5 3 2.5 5.3 4.7 5.3h0.1c2.7-0.1 4.6-5 5.1-9.6-0.2-0.4 1-10.7-1.7-16.7zm-0.8 16.4c-0.6 4.8-2.3 7.5-3 7.6-0.9 0-2.2-1.4-2.5-3.4v-0.1l-1.1-4.7c-1.2-5.1-4.8-9.5-8.1-13.1-4-4.2-6.9-7.3-6.9-7.3-2.4-2.5-3.4-5.9-2.1-8.1 1-1.9 5.3-4.2 8.7-5.3 3.9-1.2 6.1-1.5 8.4-1.6h1.1c2.8 0 4 0.7 4.1 1 0.1 0.6-0.2 0.9-2.9 1.6-1.2 0.4-2.6 0.7-3.9 1.4-2.5 1.3-5.1 3.5-6.5 5.6-0.3 0.3-0.3 0.8-0.1 1.1 0 0 5.2 7.7 12.5 7.8 0.4 0.7 0.8 1.4 1.1 2 2.4 5.5 1.2 15.4 1.2 15.5z"/>
<path d="m50.7 59.2c1.4-1.7 2.7-2.7 4.8-3.8 1.2-0.6 2.6-1 3.9-1.4 2.6-0.7 4.4-1.9 4-4.5-0.3-2-3.4-3.2-7.4-3.2-0.5 0-5.6 0.2-10.3 1.7-3.1 1-9.5 3.8-11.3 7.2" fill="#f9f9f9" stroke="#f9f9f9" stroke-miterlimit="10" stroke-width="1.4401"/>
<path d="m29.9 36.4c4.4 0 7.9 3.6 7.9 7.9 0 4.4-3.6 7.9-7.9 7.9s-7.9-3.5-7.9-7.9c0-4.3 3.5-7.9 7.9-7.9m0-2.3c-5.6 0-10.2 4.6-10.2 10.2s4.6 10.2 10.2 10.2 10.2-4.6 10.2-10.2-4.6-10.2-10.2-10.2z"/>
</g>
</g>
<g display="none" xmlns="http://www.w3.org/2000/svg">
<g display="inline">
<path d="m37.5 34.6c-0.3-6.4-1.4-11.5-1.8-15.4-0.5-4.7-1.9-13.2 1.7-14.1s4.9 5.1 5.5 6.9 1.9 6.4 2.9 9.6c0.2 0.7 0.5 1.8 0.8 3.2" clip-rule="evenodd" fill="none" fill-rule="evenodd" stroke="#f9f9f9" stroke-miterlimit="10" stroke-width="3.0012"/>
<path d="m30.3 64.3c0.6-1.2 1.4-2.5 2.3-3.8 3.4-4.9 4.5-10.7 4.8-16.5" clip-rule="evenodd" fill="none" fill-rule="evenodd" stroke="#f9f9f9" stroke-miterlimit="10" stroke-width="3.0012"/>
<path d="m60.2 51.4c2.3 3.4 4.5 7.2 5.9 10.6 3.1 7.9 3.5 13.7 1.2 19.8s-7 9.6-11.7 9.4c-1.6-0.1-3.8-1.1-3.8-1.2" clip-rule="evenodd" fill="none" fill-rule="evenodd" stroke="#f9f9f9" stroke-miterlimit="10" stroke-width="3.0012"/>
<path d="m60.8 52.2s2.1 3.4 3 5.2c-1 1.4-4.6 2.5-7 2.5-5.6 0-10.5-3-13.1-7.5-0.1 0 6.8 4.4 17.1-0.2z" clip-rule="evenodd" fill-rule="evenodd"/>
<path d="m51.7 90.6c3.1-1.3 6.5-4.3 7.6-7.1 1.2-2.8 1.6-6.8 0.9-11.4-0.7-4.7-2.7-8.6-2.7-8.6s3.9 9.5 1.4 13.2-6.8 8.2-8.3 9.7" clip-rule="evenodd" fill-rule="evenodd" stroke="#f9f9f9" stroke-linecap="round" stroke-linejoin="round" stroke-miterlimit="10" stroke-width="2.0008"/>
<ellipse cx="51.9" cy="39.5" rx="15.2" ry="15.2" clip-rule="evenodd" fill="none" fill-rule="evenodd" stroke="#f9f9f9" stroke-miterlimit="10" stroke-width="3.0012"/>
<path d="m32.5 87.1c-2-1.6-4-3.2-5.4-4.6-4.1-3.9-5.2-5.7-5.4-9.3-0.2-3.9 1.9-6.1 3.7-7.3 1.3-0.8 3.1-1.3 4.7-1.3 1.9 0 3.6 0.6 5 1.8 2.3 1.9 3.1 4.2 3.8 6.3 0.3 1 0.6 1.9 1 2.6m9.5 11.1c1 1.4 1.3 3.2 1 4.7-0.2 1.1-0.9 2-1.8 2.5-0.7 0.4-1.6 0.6-2.5 0.6-1.6 0-3.3-0.6-4.7-1.1h-0.1" fill="none" stroke="#f9f9f9" stroke-miterlimit="10" stroke-width="3.0025"/>
<path d="m34.6 95c-0.8 0-1.6-0.2-2.2-0.5-0.9-0.5-1.6-1.3-1.9-2.4-0.4-1.5-0.1-3.3 0.8-4.7 0.7-1.1 1.7-2.1 2.9-3.2 1.1-1 2.2-2.1 3-3.3 1.5-2.1 1.6-2.3 2.3-3.9 0.1-0.3 0.3-0.7 0.5-1.1 0.4-0.8 0.6-1.7 0.9-2.7 0.6-2.1 1.3-4.5 3.4-6.5 1.5-1.3 3.3-2 5.4-2 1.5 0 3.2 0.4 4.3 1.1 1.9 1.1 4.1 3.2 4.1 7.1 0 3.6-1 5.5-4.9 9.6-3.7 3.9-11.6 10.4-13.7 11.3l-0.1 0.1c-1.3 0.4-3.1 1.1-4.8 1.1z" fill="none" stroke="#f9f9f9" stroke-miterlimit="10" stroke-width="3.0025"/>
<path d="m68.3 24.2c-0.2 0-0.5-0.1-0.7-0.3-0.4-0.4-0.4-1 0-1.4l2.6-2.8c0.4-0.4 1-0.4 1.4 0s0.4 1 0 1.4l-2.6 2.8c-0.2 0.2-0.5 0.3-0.7 0.3z"/>
<path d="m74 33.6c-0.5 0-0.9-0.4-1-0.9s0.3-1 0.9-1.1l3.3-0.4c0.5-0.1 1 0.3 1.1 0.9 0.1 0.5-0.3 1-0.9 1.1l-3.3 0.4h-0.1z"/>
<path d="m57.2 18.3c-0.5 0-0.9-0.4-1-0.9l-0.2-3.1c0-0.5 0.4-1 0.9-1.1 0.5 0 1 0.4 1.1 0.9l0.3 3.1c-0.1 0.6-0.5 1.1-1.1 1.1 0.1 0 0 0 0 0z"/>
<path d="m33 87.4" fill="none" stroke="#f9f9f9" stroke-miterlimit="10" stroke-width="3.0012"/>
</g>
</g>
<g display="none" xmlns="http://www.w3.org/2000/svg">
<ellipse cx="34" cy="21.7" rx="14.4" ry="14.4" clip-rule="evenodd" display="inline" fill="none" fill-rule="evenodd" stroke="#f9f9f9" stroke-miterlimit="10" stroke-width="3"/>
<g display="inline">
<defs>
<path id="dn" d="m67 67.7c0-1 0.8-1.9 1.9-1.9h15.8c1 0 1.9 0.8 1.9 1.9v15.8c0 1-0.8 1.9-1.9 1.9h-15.9c-1 0-1.9-0.8-1.9-1.9v-15.8z"/>
</defs>
<clipPath id="do">
<use overflow="visible" xlink:href="#dn" xmlns:xlink="http://www.w3.org/1999/xlink"/>
</clipPath>
<g clip-path="url(#do)">
<path d="m84.5 67.9v15.5h-15.5v-15.5h15.5m0.1-2h-15.8c-1 0-1.9 0.8-1.9 1.9v15.8c0 1 0.8 1.9 1.9 1.9h15.8c1 0 1.9-0.8 1.9-1.9v-15.9c0-1-0.9-1.8-1.9-1.8z"/>
</g>
</g>
<path d="m67 67.7c0-1 0.8-1.9 1.9-1.9h15.8c1 0 1.9 0.8 1.9 1.9v15.8c0 1-0.8 1.9-1.9 1.9h-15.9c-1 0-1.9-0.8-1.9-1.9v-15.8z" clip-rule="evenodd" display="inline" fill="none" fill-rule="evenodd"/>
<g display="inline">
<defs>
<path id="dp" d="m68.2 48.2c0-1 0.8-1.9 1.9-1.9h15.8c1 0 1.9 0.8 1.9 1.9v15.8c0 1-0.8 1.9-1.9 1.9h-15.8c-1 0-1.9-0.8-1.9-1.9v-15.8z"/>
</defs>
<clipPath id="dq">
<use overflow="visible" xlink:href="#dp" xmlns:xlink="http://www.w3.org/1999/xlink"/>
</clipPath>
<g clip-path="url(#dq)">
<path d="m85.7 48.4v15.5h-15.5v-15.5h15.5m0.2-2h-15.8c-1 0-1.9 0.8-1.9 1.9v15.7c0 1 0.8 1.9 1.9 1.9h15.8c1 0 1.9-0.8 1.9-1.9v-15.8c-0.1-1-0.9-1.8-1.9-1.8z"/>
</g>
</g>
<path d="M68.2,48.2c0-1,0.8-1.9,1.9-1.9h15.8   c1,0,1.9,0.8,1.9,1.9V64c0,1-0.8,1.9-1.9,1.9H70.1c-1,0-1.9-0.8-1.9-1.9V48.2z" clip-rule="evenodd" display="inline" fill="none" fill-rule="evenodd"/>
<g display="inline">
<path d="m73.9 70.9h6.1v1.8l-1.4 1.8c1.2 0.3 1.8 1.3 1.8 2.3 0 1.5-1 3.1-3.5 3.1-2.1 0-3.1-1.2-3.1-1.2l1.2-1.9s0.8 0.7 1.7 0.7c0.7 0 1-0.3 1-0.7s-0.3-0.7-1.2-0.7h-0.4l-0.5-1.2 1.3-1.7c0.2-0.3 0.5-0.5 0.5-0.5h-0.6-0.8v0.7h-2.1v-2.5z"/>
</g>
<g display="inline">
<path d="m74.5 59.2c0-3.3 3.8-3.8 3.8-5 0-0.6-0.4-0.7-0.7-0.7-0.7 0-1.2 1-1.2 1l-1.8-1.2s0.8-2 3.3-2c1.4 0 3.2 0.7 3.2 2.8 0 2.5-3.6 3.1-3.7 4.2h1.7v-1h2.1v3.1h-6.6c0-0.5-0.1-0.9-0.1-1.2z"/>
</g>
<g display="inline">
<path d="m68 27.6 6.3 14.2-14.2 6.3-6.3-14.2 14.2-6.3m0.1-2c-0.3 0-0.5 0.1-0.8 0.2l-14.4 6.4c-0.9 0.4-1.4 1.5-0.9 2.5l6.4 14.4c0.3 0.7 1 1.1 1.7 1.1 0.3 0 0.5-0.1 0.8-0.2l14.4-6.4c0.9-0.4 1.4-1.5 0.9-2.5l-6.4-14.4c-0.3-0.7-1-1.1-1.7-1.1z"/>
</g>
<g display="inline">
<path d="m62.2 41.1 1.7-0.8-1.2-2.7c-0.1-0.3-0.3-0.7-0.3-0.7s0 0.3-0.1 0.5l-0.2 0.5-2-0.9 1.4-3.2 2-0.9 2.8 6.2 1.7-0.8 0.8 1.9-5.7 2.6-0.9-1.7z"/>
</g>
<path d="m23.8 42.5c1.7-1 5.5-2.6 9.7-1.3s4.4 3.7 13.6 4c9.2 0.2 11.1-1.4 11.8 1.7 0.8 3.1-5.5 5.9-7.3 6.5s-13.3 2.9-16.5 3.3c-0.4 1.8-0.8 9 0 11.6s7.3 8.4 9.4 12.4c2 4.1-1.1 7.7-6 8.5-4.8 0.8-12.8 1.2-18.1 0.1s-4.1-0.9-6.2-1.1c-2-0.2-3.4 0.5-5.7 1.1s-4.1 1.1-3.2-3.2c0.9-4.2 4.2-7 6.1-7.7 1.8-0.7 6.3 0 6.3 0s-6.1-6.1-5.4-14.7c0.5-6.2 3-11.8 4.8-14.5 1.6-2.6 5-5.6 6.7-6.7z" clip-rule="evenodd" display="inline" fill="none" fill-rule="evenodd" stroke="#f9f9f9" stroke-linejoin="round" stroke-miterlimit="10" stroke-width="3"/>
<path d="m35 55.2-7.2 0.9s0.6 3 1.9 5.9 3.1 6.7 4.7 8.3c-1.2-9.8 0.6-15.1 0.6-15.1z" clip-rule="evenodd" display="inline" fill-rule="evenodd"/>
<path d="m16.1 76.8c2.6 4.3 7.1 4.5 13 4.3" display="inline" fill="none" stroke="#f9f9f9" stroke-linecap="round" stroke-miterlimit="10" stroke-width="3"/>
</g>
<g display="none" xmlns="http://www.w3.org/2000/svg">
<path d="m55 79.9s-2.8 0.7-5.4-1.4-3.1-5.7-2.6-9.4 0.9-12.1 0.5-14.4-2.6-7.5-2.6-7.5l7.7-4 6 19.8-3.6 16.9z" clip-rule="evenodd" display="inline" fill-rule="evenodd"/>
<g display="inline">
<path d="m32.3 52.9c-4.3 0-7.5 1.9-8.3 4.9-1 3.8 2.8 8.1 8.4 9.5 1.2 0.3 2.4 0.5 3.6 0.5 4.3 0 7.5-1.9 8.3-4.9 1-3.8-2.8-8.1-8.4-9.5-1.2-0.3-2.4-0.5-3.6-0.5zm3.8 13.3c-1.1 0-2.2-0.1-3.2-0.4-4.8-1.2-8-4.6-7.3-7.6 0.6-2.2 3.3-3.7 6.8-3.7 1.1 0 2.2 0.1 3.2 0.4 4.8 1.2 8 4.6 7.3 7.6-0.6 2.2-3.3 3.7-6.8 3.7z"/>
</g>
<path d="m36.4 66.5c-1.2 0-2.4-0.2-3.6-0.5-2.7-0.7-5-2-6.6-3.7-1.7-1.8-2.3-3.9-1.8-5.8 0.7-3 4-4.9 8.3-4.9 1.2 0 2.4 0.2 3.6 0.5 2.7 0.7 5 2 6.6 3.7 1.7 1.8 2.3 3.9 1.8 5.8-0.8 3-4.1 4.9-8.3 4.9zm-3.8-13.2c-3.5 0-6.2 1.5-6.8 3.7-0.3 1.4 0.2 3 1.5 4.4 1.4 1.5 3.4 2.7 5.8 3.2 1.1 0.3 2.2 0.4 3.2 0.4 3.5 0 6.2-1.5 6.8-3.7 0.3-1.4-0.2-3-1.5-4.4-1.4-1.5-3.4-2.7-5.8-3.2-1-0.3-2.1-0.4-3.2-0.4z" display="inline"/>
<path d="m8.9 54.9-3.1-0.8c-0.6-0.1-0.9-0.7-0.8-1.2l0.4-1.7c0.1-0.5 0.7-0.9 1.2-0.7l2 0.5 0.3 3.9z" clip-rule="evenodd" display="inline" fill-rule="evenodd"/>
<path d="m15.6 52.7 2.3 0.6c0.5 0.1 0.9 0.7 0.7 1.2l-0.4 1.7c-0.1 0.5-0.7 0.9-1.2 0.7l-3.4-0.8 2-3.4z" clip-rule="evenodd" display="inline" fill-rule="evenodd"/>
<rect transform="matrix(.9703 .2419 -.2419 .9703 14.141 -3.2888)" x="15.2" y="55.1" width="10.5" height="1.7" display="inline"/>
<path d="m25.8 38.7c-1 0.6-2 1.4-2.8 2.3-4 4.3-5.6 7.7-6.3 10.5-0.7 2.9-1.3 5.6-3.9 6.1s-6-2.1-4.8-9.8c1.1-7.7 3.5-12.1 5.2-15 2.3-3.8 10.7-23.5 39.4-16.6s33.6 30.3 34 37.6-1.6 15.5-1.6 15.5 1.4-0.7 5.2 0.6 5.7 4.9 4.7 8.2c-0.6 1.3-1.7 1.2-2.2 1.3-0.3 0.1-15.7 0.4-27.8 0.3" clip-rule="evenodd" display="inline" fill="none" fill-rule="evenodd" stroke="#f9f9f9" stroke-linejoin="round" stroke-width="3"/>
<path d="m54 79.6c-1.7-0.1-2.8-0.3-3.1-0.4-2.7-1.4-4.8-3.6-3.8-11 0.9-7.3 0.6-13-0.5-16.7-0.3-1.1-0.9-2.4-1.4-3.6" clip-rule="evenodd" display="inline" fill="none" fill-rule="evenodd" stroke="#f9f9f9" stroke-linejoin="round" stroke-width="3"/>
<path d="m50.9 42.4s7 7.3 7.3 17.3-3 16.3-3.3 18.3c-0.2 2-0.1 4.8 4.9 4.4s8.7-9.4 9.5-11.8 4-12.4 3.1-21.7" clip-rule="evenodd" display="inline" fill="none" fill-rule="evenodd"/>
<path d="m58.8 83.1c-1.7 0-2.8-0.4-3.6-1.2-1.1-1.1-1.1-2.7-0.9-4 0.1-0.6 0.3-1.4 0.7-2.6 1-3.1 2.7-8.3 2.5-15.7-0.2-9.7-5.9-15.5-6-15.5-0.3-0.3-0.3-0.7 0-1s0.7-0.3 1 0 6.1 6.3 6.3 16.5c0.2 7.5-1.6 12.9-2.6 16.1-0.3 1-0.6 1.8-0.7 2.3-0.1 1-0.1 2.2 0.6 2.9 0.6 0.7 1.9 0.9 3.6 0.8 2.4-0.2 4.5-2.8 5.8-4.9 1.6-2.5 2.7-5.2 3.1-6.5 3.3-10.1 3.5-17.2 3.1-21.4 0-0.4 0.2-0.7 0.6-0.7s0.7 0.2 0.7 0.6c0.4 4.3 0.2 11.6-3.2 21.9 0 0.1-3.9 11.8-10 12.3-0.3 0.1-0.6 0.1-1 0.1z" display="inline" stroke="#f9f9f9" stroke-width="2"/>
<path d="m40.3 19.1c-8.3 0-15 6.7-15 15s6.7 15 15 15 15-6.7 15-15-6.7-15-15-15z" display="inline" fill="none" stroke="#f9f9f9" stroke-width="3"/>
<path d="m83.5 68.9s-1 3.9-1.3 4.7-0.5 1.2-0.5 1.2 2.5-0.9 3.3-2.3c0.9-1.4 1-3.7 1-3.7-1.7-0.3-2.5 0.1-2.5 0.1z" clip-rule="evenodd" display="inline" fill-rule="evenodd"/>
<path d="m29.3 84.6c-0.4 0-0.7-0.2-0.9-0.5-3.6-6.5-2.1-9.3-2-9.5 0.2-0.5 0.8-0.7 1.3-0.5s0.7 0.8 0.5 1.3c-0.1 0.2-1.1 2.1 1.9 7.7 0.3 0.5 0.1 1.1-0.4 1.4-0.1 0.1-0.3 0.1-0.4 0.1z" display="inline"/>
<path d="m29.1 85c-0.4 0-0.7-0.1-0.9-0.4-0.3-0.3-1-0.8-1.6-0.9s-1.5 0-2 0.1c-0.7 0.2-1.5-0.3-1.6-1-0.2-0.7 0.2-1.5 1-1.6 0.2 0 1.8-0.5 3.2-0.2 1 0.2 1.9 0.8 2.4 1.2 0.6-0.1 1.6-0.4 2.4-1.5 0.4-0.6 1.3-0.7 1.9-0.3s0.7 1.3 0.3 1.9c-2 2.6-4.8 2.7-5.1 2.7z" display="inline"/>
<path d="m29.3 69.3s1.6-1.5 3-1.1c1.4 0.3 0.5 2 0.5 2s1.6 0.1 1.9 0.6c0.4 0.5 0.4 2.2-0.6 2.6l-1.5 0.6s1.1 1.5 0.1 2.3-2.2 0.8-2.8 0.5-1.8-1.4-2-2c-0.3-0.7-0.3-1.3-0.3-1.3s-0.5 1.2-1.8 1.5-3.1-0.5-3.6-1.7-0.1-2.1 0.4-2.6 2.2-0.5 2.2-0.5-0.5-0.8-0.2-1.2c0.3-0.5 1.4-1 2.3-0.9s1.6 0.3 1.9 0.6 0.5 0.6 0.5 0.6z" clip-rule="evenodd" display="inline" fill="none" fill-rule="evenodd" stroke="#f9f9f9"/>
<path d="m28.2 72.8c1.3 0.4 2.2-0.2 2.2-0.2s0.3-0.8-0.2-1.4-1.8-0.9-2.6-0.7c-0.9 0.2-1.1 0.8-1.1 1-0.2 0.1 0.4 0.9 1.7 1.3z" clip-rule="evenodd" display="inline" fill-rule="evenodd"/>
</g>
<g display="none" xmlns="http://www.w3.org/2000/svg">
<path d="m5.2 92 24.3-24.3 0.4 0.3s0.3 0.2 0.6 0.5c0.6 0.6 0.8 1 0.8 1.5s-0.3 0.9-0.6 1.4c-0.3 0.4-0.7 0.9-0.7 1.5 0 0.2 0.1 0.4 0.2 0.7s0.2 0.6 0.2 0.9c0.1 0.7-0.3 1.1-0.3 1.2l-20.6 20.6-4.3-4.3zm24.4-22.9-22.9 22.9 2.8 2.8 19.8-19.8s0.1-0.2 0.1-0.4-0.1-0.5-0.2-0.7c-0.1-0.4-0.3-0.8-0.2-1.2 0.1-0.8 0.5-1.4 0.9-1.9 0.2-0.3 0.4-0.6 0.4-0.8 0-0.1-0.1-0.3-0.5-0.8-0.1 0-0.1-0.1-0.2-0.1z" display="inline"/>
<path d="m5.8 90.6c0.1 0.1 0.4 0.1 0.5 0l8-8c0.1-0.1 0.1-0.4 0-0.5s-0.4-0.1-0.5 0l-8 8c-0.1 0.2-0.1 0.4 0 0.5z" display="inline"/>
<path d="m7.3 92.2c0.1 0.1 0.4 0.1 0.5 0l8-8c0.1-0.1 0.1-0.4 0-0.5s-0.4-0.1-0.5 0l-8 8c-0.1 0.2-0.1 0.4 0 0.5z" display="inline"/>
<path d="m9.3 94c0.1 0.1 0.4 0.1 0.5 0l8-8c0.1-0.1 0.1-0.4 0-0.5s-0.4-0.1-0.5 0l-8 8c-0.1 0.1-0.1 0.4 0 0.5z" display="inline"/>
<path d="m11 95.6c0.1 0.1 0.4 0.1 0.5 0l8-8c0.1-0.1 0.1-0.4 0-0.5s-0.4-0.1-0.5 0l-8 8c-0.1 0.2-0.1 0.4 0 0.5z" display="inline"/>
<path d="m29.5 74.6c0-0.2-0.1-0.5-0.2-0.8-0.1-0.4-0.3-0.7-0.2-1.1 0.1-0.8 0.5-1.4 0.9-1.9 0.2-0.3 0.5-0.7 0.5-0.9 0-0.1 0-0.3-0.6-0.9h-0.1c-0.1-0.1-0.1-0.2-0.1-0.2 0-0.1 0-0.2 0.1-0.3l62-61.6c0.5-0.4 1.6-0.9 2.7 0.1 0.5 0.5 0.7 1.1 0.7 1.6 0 0.7-0.5 1.2-0.5 1.2l-64.5 65c-0.1 0.1-0.2 0.1-0.4 0.1 0 0-0.1 0-0.1-0.1l-0.2-0.2zm62.8-67.2-61.8 61.4c0.4 0.5 0.6 0.9 0.6 1.2 0 0.4-0.3 0.9-0.6 1.3s-0.7 0.9-0.8 1.5c0 0.2 0.1 0.5 0.2 0.8 0 0.1 0.1 0.2 0.1 0.3l64.2-64.6s0.3-0.3 0.3-0.7c0-0.3-0.2-0.7-0.5-1.1-0.8-0.8-1.7-0.1-1.7-0.1z" display="inline"/>
<circle cx="27.9" cy="74.8" r=".7" display="inline"/>
<path d="m24.3 69.3c-0.3-0.4-0.6-1.2 0.2-1.9s1.5-0.4 1.8-0.1l2.2 2.2-2 2-2.2-2.2zm3.3 0.3-1.7-1.7c-0.1-0.1-0.4-0.3-0.8 0.1-0.5 0.4-0.2 0.8-0.1 0.9l1.7 1.7 0.9-1z" display="inline"/>
<path d="m17 83.4 4.7-4.7c0.1-0.1 0.3-0.1 0.4 0l0.9 0.9s0.1 0.1 0.1 0.2 0 0.1-0.1 0.2l-4.7 4.7c-0.1 0.1-0.3 0.1-0.4 0l-0.9-1c-0.1-0.1-0.1-0.2 0-0.3zm5.4-3.6-0.6-0.6-4.3 4.3 0.6 0.6 4.3-4.3z" display="inline"/>
</g>
<g display="none" xmlns="http://www.w3.org/2000/svg">
<g display="inline">
<path d="m46.6 55.9-0.6-0.5 3.9-3.9 2.7-2.8c0.9-1 1.7-1.7 2-2.2 1.3-1.5 3.5-5.7 4.4-7.6 0-0.1 2.8-6.2 3.3-6.9 0.3-0.5 2.3-2.5 4.3-4.5l0.5-0.5c1.3-1.3 14.8-14.6 15.7-15.5 1-0.9 3.3-2.6 4.8-3.2 0.8-0.4 2.2-0.8 3.2-1.2 0.7-0.2 1.4-0.5 1.6-0.6 0.3-0.2 0.7-0.4 1-1.8 0.3-1.2-0.1-2.5-0.2-3v-0.2c0-0.1-0.1-0.3-0.2-0.3s-0.2 0-0.3 0.1c-0.6 0.3-5.3 3.5-7.2 5-1.7 1.3-6.5 6.1-8.5 8.1-3.4 3.4-14.5 14.5-15.8 16-1.1 1.4-1.9 3.2-3.1 6-0.2 0.6-0.5 1.2-0.8 1.9-1.7 4-2.6 5.5-4.2 7.4-0.3 0.4-0.9 1-1.8 1.9l-2.7 2.8-3.9 3.9-0.5-0.5 3.9-3.9 2.7-2.8c0.8-0.9 1.4-1.5 1.7-1.9 1.5-1.8 2.4-3.3 4-7.2 0.3-0.7 0.5-1.3 0.8-1.9 1.2-2.9 2-4.7 3.2-6.2 1.3-1.6 12.4-12.7 15.8-16 2.1-2.1 6.9-6.9 8.6-8.2 1.8-1.4 6.6-4.7 7.3-5.1 0.4-0.2 0.7-0.2 1-0.1 0.4 0.2 0.5 0.6 0.5 0.8v0.2c0.1 0.5 0.5 1.9 0.2 3.3-0.3 1.6-0.9 2-1.4 2.3-0.2 0.1-0.7 0.3-1.7 0.6-1.1 0.4-2.4 0.8-3.2 1.2-1.4 0.6-3.7 2.2-4.6 3.1-1 0.9-14.4 14.1-15.7 15.5l-0.2 0.5c-1.3 1.3-3.9 3.9-4.2 4.4s-2.1 4.3-3.2 6.8c-0.8 1.8-3 6.2-4.5 7.8-0.4 0.4-1.1 1.2-2.1 2.2l-2.7 2.8c-2 2-3.8 3.9-3.8 3.9z"/>
<path d="m42.4 60.8 0.2 0.2c0.3-0.3 0.6-0.6 0.8-0.9l-0.1-0.1c-0.4 0.2-0.7 0.5-0.9 0.8z" fill="none"/>
<path d="m41.6 60.1 0.9-0.9-0.3-0.3-0.9 0.9 0.3 0.3z" fill="none"/>
<path d="m40.5 57.2c-0.4 0.2-0.7 0.5-1 0.7l0.1 0.1c0.3-0.3 0.6-0.6 0.9-0.8z" fill="none"/>
<path d="m40.2 60.8-0.9 0.9 0.4 0.4 0.9-0.9-0.4-0.4z" fill="none"/>
<path d="m40.5 62.8 0.3 0.3c0.3-0.3 0.5-0.6 0.8-1l-0.2-0.2-0.9 0.9z" fill="none"/>
<path d="m38.5 59-0.1-0.1c-0.3 0.3-0.7 0.5-1 0.8l0.2 0.2c0.2-0.4 0.6-0.6 0.9-0.9z" fill="none"/>
<path d="m40.5 59 0.9-0.9-0.2-0.2c-0.3 0.3-0.6 0.6-0.9 0.8l0.2 0.3z" fill="none"/>
<path d="m37.9 65.6c-0.4 0.4-1.2 1.3-2.2 2.5-2.3 2.6-5.5 6.2-6.4 7.2-1.5 1.8-6.4 6.6-9.7 9.1-0.8 0.6-1.8 1.4-2.8 2.1-1.9 1.5-3.8 3-4.7 3.6-0.8 0.5-3.1 2.2-4.7 3.3 0.4-0.2 0.9-0.4 1.2-0.6 0.4-0.2 2.7-1.6 4.7-2.8 1.6-1 3.3-2 4.4-2.6 2.5-1.5 7.6-5.4 9.8-7.8 2.2-2.3 7.6-9.3 10.6-13.4 0.5-0.6 1-1.3 1.6-2l-0.3-0.3c-0.6 0.7-1.2 1.4-1.5 1.7z" fill="none"/>
<path d="m39.2 59.7c-0.3 0.3-0.6 0.6-0.9 0.8l0.3 0.3 0.9-0.9-0.3-0.2z" fill="none"/>
<path d="m6.1 93c1.5-1.1 4.5-3.2 5.4-3.8 0.8-0.6 2.8-2.1 4.6-3.5 1-0.8 1.9-1.5 2.8-2.1 3.2-2.5 8-7.1 9.5-8.9 0.9-1.1 4.1-4.7 6.4-7.3 1-1.1 1.9-2.1 2.2-2.5 0.3-0.3 0.9-1 1.6-1.8l-0.5-0.5-32 30.4z" fill="none"/>
<path d="m33.5 64.6c-1.1 0.8-2.4 1.9-3.9 3-3.6 2.7-8.1 6.1-10.6 8.4-2.7 2.5-7.3 7.7-9.4 10.7-0.9 1.2-2.9 3.9-4 5.3l31.9-30.2-0.3-0.3c-1.4 1.2-2.7 2.3-3.7 3.1z" fill="none"/>
<path d="m26 67.7-1.4 1c-2 1.4-6.1 4.5-8.2 6.6s-5.7 6.6-6.4 7.7c-0.5 0.8-2.9 4.9-4.4 7.4 1.1-1.4 2.5-3.3 3.2-4.3 2.2-3 6.8-8.3 9.6-10.9 2.5-2.3 7-5.8 10.7-8.5 1.5-1.1 2.8-2.1 3.9-3 1-0.8 2.3-1.8 3.6-3l-0.2-0.2c-2.6 1.9-7.7 5.3-10.4 7.2z" fill="none"/>
<path d="m43.8 54c0.2-0.2 0.2-0.5 0-0.8-0.2-0.2-0.5-0.2-0.8 0 0 0-0.6 0.6-1.6 1.4l0.8 0.8c0.9-0.8 1.5-1.4 1.6-1.4z"/>
<path d="m40.4 57.1-0.8-0.8c-0.3 0.3-0.6 0.6-0.9 0.8l0.8 0.8c0.3-0.3 0.6-0.5 0.9-0.8z"/>
<path d="m38.3 58.9-0.8-0.8c-0.3 0.3-0.7 0.5-1 0.8l0.8 0.8c0.4-0.3 0.7-0.6 1-0.8z"/>
<path d="m5.5 90.4c1.5-2.5 3.9-6.6 4.4-7.4 0.7-1.1 4.3-5.6 6.4-7.7 2.2-2.2 6.2-5.2 8.2-6.6l1.4-1c2.8-1.9 7.8-5.3 10.2-7.2l-0.8-0.8c-2.5 1.8-7.4 5.2-10.1 7l-1.4 1c-2.1 1.4-6.2 4.6-8.4 6.8s-5.8 6.7-6.5 7.9c-0.7 1.1-5.3 9-5.5 9.4-0.1 0.3-0.1 0.6 0.2 0.7 0.1 0 0.2 0.1 0.3 0.1 0-0.1 0-0.2 0.1-0.3 0.1 0 0.7-0.8 1.5-1.9z"/>
<path d="m45.5 55.7c0.2-0.2 0.2-0.5 0-0.8-0.2-0.2-0.5-0.2-0.8 0l-1.6 1.5 0.8 0.8 1.6-1.5z"/>
<path d="m6.1 93 32.1-30.4-0.8-0.8-31.8 30.2c-0.4 0.6-0.7 1-0.7 1-0.1 0.1-0.3 0.2-0.4 0.2-0.1 0.2-0.1 0.4 0.1 0.6 0.1 0.1 0.2 0.2 0.3 0.2h0.1c0-0.1 0.1-0.2 0.2-0.3s0.5-0.3 0.9-0.7z"/>
<polygon points="41.3 59.8 42.2 58.9 41.4 58.1 40.5 59"/>
<polygon points="39.5 60 38.6 60.9 39.3 61.6 40.2 60.8"/>
<path d="m47.2 56.6c-0.2-0.2-0.5-0.2-0.8 0 0 0-0.6 0.6-1.4 1.5l0.8 0.8c0.9-0.9 1.4-1.6 1.4-1.6 0.2-0.1 0.2-0.5 0-0.7z"/>
<path d="m42.5 61 0.8 0.8c0.3-0.3 0.6-0.6 0.8-0.9l-0.8-0.8c-0.2 0.3-0.5 0.6-0.8 0.9z"/>
<path d="m40.8 63.1 0.8 0.8c0.3-0.3 0.5-0.6 0.8-1l-0.8-0.8c-0.3 0.3-0.6 0.6-0.8 1z"/>
<path d="m38.3 66.2c-3 4.1-8.4 11.1-10.6 13.4s-7.3 6.3-9.8 7.8c-1.1 0.6-2.8 1.6-4.4 2.6-2 1.2-4.3 2.6-4.7 2.8-0.3 0.1-0.7 0.3-1.2 0.6-0.9 0.7-1.6 1.1-1.6 1.2-0.1 0.1-0.2 0.1-0.3 0.1v0.3c0.1 0.2 0.3 0.3 0.5 0.3 0.1 0 0.2 0 0.3-0.1 0 0 1.9-1 2.7-1.4 0.5-0.2 2.2-1.2 4.9-2.9 1.6-1 3.3-2 4.4-2.6 2.6-1.5 7.8-5.6 10.1-7.9 2.4-2.5 8.2-10 10.7-13.5 0.4-0.6 0.9-1.2 1.5-1.9l-0.8-0.8c-0.7 0.7-1.3 1.4-1.7 2z"/>
<path d="m5.6 92c1.1-1.4 3.1-4.1 4-5.3 2.1-3 6.7-8.2 9.4-10.7 2.5-2.3 7-5.7 10.6-8.4 1.5-1.1 2.8-2.2 3.9-3 1-0.8 2.3-1.9 3.7-3.1l-0.8-0.8c-1.3 1.1-2.6 2.2-3.6 3-1.1 0.8-2.4 1.9-3.9 3-3.6 2.8-8.2 6.2-10.7 8.5-2.7 2.6-7.4 7.8-9.6 10.9-0.7 1-2.1 2.8-3.2 4.3-0.6 1.1-1.1 1.9-1.1 1.9-0.1 0.2-0.3 0.3-0.5 0.3 0 0.2 0 0.4 0.2 0.5 0.1 0.1 0.2 0.1 0.3 0.1 0-0.1 0.1-0.1 0.1-0.2l1.2-1z"/>
<path d="m40.3 58.8c0.3-0.3 0.6-0.6 0.9-0.8l-0.8-0.8c-0.3 0.3-0.6 0.6-0.9 0.8l0.8 0.8z"/>
<path d="M38.5,59c-0.3,0.3-0.6,0.6-0.9,0.8l0.8,0.8c0.3-0.3,0.6-0.6,0.9-0.8L38.5,59z"/>
<path d="m44.6 54.8c0.2-0.2 0.2-0.5 0-0.8-0.2-0.2-0.5-0.2-0.8 0 0 0-0.6 0.6-1.6 1.5l0.8 0.8c1-0.9 1.6-1.5 1.6-1.5z"/>
<path d="m5.5 90.4c-0.8 1.1-1.5 1.9-1.5 1.9v0.3c0.2 0 0.4-0.1 0.5-0.3-0.1 0 0.4-0.8 1-1.9z"/>
<path d="m4.9 93s0.3-0.4 0.7-1l-1.1 1c-0.1 0.1-0.1 0.1-0.1 0.2 0.2 0 0.4-0.1 0.5-0.2z"/>
<path d="m5.9 94.2c0.1 0 0.8-0.4 1.6-0.8 1.6-1.1 3.8-2.7 4.7-3.3s2.8-2.1 4.7-3.6c1-0.8 1.9-1.5 2.8-2.1 3.3-2.5 8.2-7.3 9.7-9.1 0.9-1.1 4.1-4.6 6.4-7.2 1-1.1 1.9-2.1 2.2-2.5 0.3-0.3 0.8-0.9 1.6-1.7l-0.8-0.8c-0.8 0.8-1.3 1.4-1.6 1.8-0.4 0.4-1.2 1.3-2.2 2.5-2.3 2.6-5.5 6.2-6.4 7.3-1.6 1.7-6.4 6.3-9.6 8.8-0.8 0.6-1.8 1.4-2.8 2.1-1.9 1.5-3.8 3-4.6 3.5-1 0.7-4 2.8-5.4 3.8l-0.8 0.8c-0.1 0.1-0.1 0.1-0.2 0.1 0 0.1 0 0.3 0.1 0.4s0.3 0.2 0.4 0.2h0.1c-0.1 0 0-0.1 0.1-0.2z"/>
<path d="m39.7 62 0.8 0.8 0.9-0.9-0.8-0.8-0.9 0.9z"/>
<path d="m42.4 60.8 0.9-0.9-0.8-0.8-0.9 0.9 0.8 0.8z"/>
<path d="m46.4 56.6c0.2-0.2 0.2-0.5 0-0.8-0.2-0.2-0.5-0.2-0.8 0-0.1 0.1-0.6 0.7-1.4 1.5l0.8 0.8c0.8-0.9 1.4-1.5 1.4-1.5z"/>
<path d="m6.1 93c-0.5 0.3-0.8 0.6-0.9 0.6-0.1 0.1-0.2 0.2-0.2 0.3 0.1 0 0.2-0.1 0.2-0.1l0.9-0.8z"/>
<path d="m7.5 93.3-1.6 0.8c-0.2 0.1-0.2 0.2-0.3 0.4 0.1 0 0.2 0 0.3-0.1 0 0.1 0.7-0.4 1.6-1.1z"/>
</g>
</g>
<g display="none" xmlns="http://www.w3.org/2000/svg">
<g display="inline">
<defs>
<path id="dr" d="m-153 23.9 34 2.8 43.1-6.2 77.1 0.8 28.1 4 26.8-5 21.5 2 1.7 43.5s-12.8 81.5-17.2 121.2c4 43.4 25 116.2 25 116.2l0.4 44.1-35.4 1-31.4 2.8-62.9-0.1-51.4-1.6-19.8 2-33.4-2.9-0.5-39.2s5-75.9 17.4-122.6c-14.1-31.8-23.5-117.4-23.5-117.4l0.4-45.4z"/>
</defs>
<clipPath id="ds">
<use overflow="visible" xlink:href="#dr" xmlns:xlink="http://www.w3.org/1999/xlink"/>
</clipPath>
<rect x="-158.4" y="15.4" width="251" height="341" clip-path="url(#ds)" fill="#f9f9f9"/>
</g>
<path d="m-153 23.9 34 2.8 43.1-6.2 77.1 0.8 28.1 4 26.8-5 21.5 2 1.7 43.5s-12.8 81.5-17.2 121.2c4 43.4 25 116.2 25 116.2l0.4 44.1-35.4 1-31.4 2.8-62.9-0.1-51.4-1.6-19.8 2-33.4-2.9-0.5-39.2s5-75.9 17.4-122.6c-14.1-31.8-23.5-117.4-23.5-117.4l0.4-45.4z" display="inline" fill="#f9f9f9" stroke="#f9f9f9" stroke-linecap="round" stroke-linejoin="round" stroke-miterlimit="10" stroke-width="12"/>
<line x1="-151.7" x2="34.2" y1="75" y2="75" display="inline" fill="#f9f9f9" stroke="#f9f9f9" stroke-linecap="round" stroke-miterlimit="10" stroke-width="12"/>
<path d="m16.9 41.5v1 14" display="inline" fill="#f9f9f9" stroke="#f9f9f9" stroke-linecap="round" stroke-miterlimit="10" stroke-width="8"/>
<path d="m-2.1 41.5v1 14" display="inline" fill="#f9f9f9" stroke="#f9f9f9" stroke-linecap="round" stroke-miterlimit="10" stroke-width="8"/>
<path d="m36.9 41.5v1 14" display="inline" fill="#f9f9f9" stroke="#f9f9f9" stroke-linecap="round" stroke-miterlimit="10" stroke-width="8"/>
<path d="m58.9 41.5v1 14" display="inline" fill="#f9f9f9" stroke="#f9f9f9" stroke-linecap="round" stroke-miterlimit="10" stroke-width="8"/>
</g>
<g display="none" xmlns="http://www.w3.org/2000/svg">
<g display="inline">
<defs>
<path id="dt" d="m-153 23.9 34 2.8 43.1-6.2 77.1 0.8 28.1 4 26.8-5 21.5 2 1.7 43.5s-12.8 81.5-17.2 121.2c4 43.4 25 116.2 25 116.2l0.4 44.1-35.4 1-31.4 2.8-62.9-0.1-51.4-1.6-19.8 2-33.4-2.9-0.5-39.2s5-75.9 17.4-122.6c-14.1-31.8-23.5-117.4-23.5-117.4l0.4-45.4z"/>
</defs>
<clipPath id="du">
<use overflow="visible" xlink:href="#dt" xmlns:xlink="http://www.w3.org/1999/xlink"/>
</clipPath>
<rect x="-158.3" y="15.4" width="251" height="341" clip-path="url(#du)" fill="#f9f9f9"/>
</g>
<path d="m-153 23.9 34 2.8 43.1-6.2 77.1 0.8 28.1 4 26.8-5 21.5 2 1.7 43.5s-12.8 81.5-17.2 121.2c4 43.4 25 116.2 25 116.2l0.4 44.1-35.4 1-31.4 2.8-62.9-0.1-51.4-1.6-19.8 2-33.4-2.9-0.5-39.2s5-75.9 17.4-122.6c-14.1-31.8-23.5-117.4-23.5-117.4l0.4-45.4z" display="inline" fill="#f9f9f9" stroke="#f9f9f9" stroke-linecap="round" stroke-linejoin="round" stroke-miterlimit="10" stroke-width="12"/>
<line x1="-151.6" x2="34.3" y1="75" y2="75" display="inline" fill="#f9f9f9" stroke="#f9f9f9" stroke-linecap="round" stroke-miterlimit="10" stroke-width="12"/>
<path d="m17 41.5v1 14" display="inline" fill="#f9f9f9" stroke="#f9f9f9" stroke-linecap="round" stroke-miterlimit="10" stroke-width="8"/>
<path d="m-2 41.5v1 14" display="inline" fill="#f9f9f9" stroke="#f9f9f9" stroke-linecap="round" stroke-miterlimit="10" stroke-width="8"/>
<path d="m37 41.5v1 14" display="inline" fill="#f9f9f9" stroke="#f9f9f9" stroke-linecap="round" stroke-miterlimit="10" stroke-width="8"/>
<path d="m59 41.5v1 14" display="inline" fill="#f9f9f9" stroke="#f9f9f9" stroke-linecap="round" stroke-miterlimit="10" stroke-width="8"/>
</g>
<g display="none" xmlns="http://www.w3.org/2000/svg">
<g display="inline">
<defs>
<path id="dw" d="m-153 23.9 34 2.8 43.1-6.2 77.1 0.8 28.1 4 26.8-5 21.5 2 1.7 43.5s-12.8 81.5-17.2 121.2c4 43.4 25 116.2 25 116.2l0.4 44.1-35.4 1-31.4 2.8-62.9-0.1-51.4-1.6-19.8 2-33.4-2.9-0.5-39.2s5-75.9 17.4-122.6c-14.1-31.8-23.5-117.4-23.5-117.4l0.4-45.4z"/>
</defs>
<clipPath id="dx">
<use overflow="visible" xlink:href="#dw" xmlns:xlink="http://www.w3.org/1999/xlink"/>
</clipPath>
<rect x="-158.4" y="15.4" width="251" height="341" clip-path="url(#dx)" fill="#f9f9f9"/>
</g>
<path d="m-153 23.9 34 2.8 43.1-6.2 77.1 0.8 28.1 4 26.8-5 21.5 2 1.7 43.5s-12.8 81.5-17.2 121.2c4 43.4 25 116.2 25 116.2l0.4 44.1-35.4 1-31.4 2.8-62.9-0.1-51.4-1.6-19.8 2-33.4-2.9-0.5-39.2s5-75.9 17.4-122.6c-14.1-31.8-23.5-117.4-23.5-117.4l0.4-45.4z" display="inline" fill="#f9f9f9" stroke="#f9f9f9" stroke-linecap="round" stroke-linejoin="round" stroke-miterlimit="10" stroke-width="12"/>
<line x1="-151.7" x2="34.2" y1="75" y2="75" display="inline" fill="#f9f9f9" stroke="#f9f9f9" stroke-linecap="round" stroke-miterlimit="10" stroke-width="12"/>
<path d="m16.9 41.5v1 14" display="inline" fill="#f9f9f9" stroke="#f9f9f9" stroke-linecap="round" stroke-miterlimit="10" stroke-width="8"/>
<path d="m-2.1 41.5v1 14" display="inline" fill="#f9f9f9" stroke="#f9f9f9" stroke-linecap="round" stroke-miterlimit="10" stroke-width="8"/>
<path d="m36.9 41.5v1 14" display="inline" fill="#f9f9f9" stroke="#f9f9f9" stroke-linecap="round" stroke-miterlimit="10" stroke-width="8"/>
<path d="m58.9 41.5v1 14" display="inline" fill="#f9f9f9" stroke="#f9f9f9" stroke-linecap="round" stroke-miterlimit="10" stroke-width="8"/>
</g>
<g display="none" xmlns="http://www.w3.org/2000/svg">
<g display="inline">
<defs>
<path id="dy" d="m-153 23.9 34 2.8 43.1-6.2 77.1 0.8 28.1 4 26.8-5 21.5 2 1.7 43.5s-12.8 81.5-17.2 121.2c4 43.4 25 116.2 25 116.2l0.4 44.1-35.4 1-31.4 2.8-62.9-0.1-51.4-1.6-19.8 2-33.4-2.9-0.5-39.2s5-75.9 17.4-122.6c-14.1-31.8-23.5-117.4-23.5-117.4l0.4-45.4z"/>
</defs>
<clipPath id="dz">
<use overflow="visible" xlink:href="#dy" xmlns:xlink="http://www.w3.org/1999/xlink"/>
</clipPath>
<rect x="-158.3" y="15.4" width="251" height="341" clip-path="url(#dz)" fill="#f9f9f9"/>
</g>
<path d="m-153 23.9 34 2.8 43.1-6.2 77.1 0.8 28.1 4 26.8-5 21.5 2 1.7 43.5s-12.8 81.5-17.2 121.2c4 43.4 25 116.2 25 116.2l0.4 44.1-35.4 1-31.4 2.8-62.9-0.1-51.4-1.6-19.8 2-33.4-2.9-0.5-39.2s5-75.9 17.4-122.6c-14.1-31.8-23.5-117.4-23.5-117.4l0.4-45.4z" display="inline" fill="#f9f9f9" stroke="#f9f9f9" stroke-linecap="round" stroke-linejoin="round" stroke-miterlimit="10" stroke-width="12"/>
<line x1="-151.6" x2="34.3" y1="75" y2="75" display="inline" fill="#f9f9f9" stroke="#f9f9f9" stroke-linecap="round" stroke-miterlimit="10" stroke-width="12"/>
<path d="m17 41.5v1 14" display="inline" fill="#f9f9f9" stroke="#f9f9f9" stroke-linecap="round" stroke-miterlimit="10" stroke-width="8"/>
<path d="m-2 41.5v1 14" display="inline" fill="#f9f9f9" stroke="#f9f9f9" stroke-linecap="round" stroke-miterlimit="10" stroke-width="8"/>
<path d="m37 41.5v1 14" display="inline" fill="#f9f9f9" stroke="#f9f9f9" stroke-linecap="round" stroke-miterlimit="10" stroke-width="8"/>
<path d="m59 41.5v1 14" display="inline" fill="#f9f9f9" stroke="#f9f9f9" stroke-linecap="round" stroke-miterlimit="10" stroke-width="8"/>
</g>
<g display="none" xmlns="http://www.w3.org/2000/svg">
<g display="inline">
<defs>
<path id="ea" d="m-34.7-0.7c0.8-3.1 2.4-6.3 4.8-9.2 6.4-7.7 16.2-10.1 21.7-5.5 5 4.2 4.9 12.7 0.1 19.9 3.4 5.3 3 12.6-1.5 17.8-5.4 6.5-14.8 7.5-20.9 2.3-2-1.7-3.4-3.9-4.2-6.2-3.3 1.1-7 0.6-9.9-1.8-4.3-3.6-4.9-10-1.3-14.3 2.8-3.3 7.3-4.4 11.2-3z"/>
</defs>
<clipPath id="eb">
<use overflow="visible" xlink:href="#ea" xmlns:xlink="http://www.w3.org/1999/xlink"/>
</clipPath>
<rect x="-53.3" y="-22.7" width="53.7" height="55.7" clip-path="url(#eb)" fill="#f9f9f9"/>
</g>
<g display="inline">
<defs>
<path id="ec" d="m6.2 72.2c-1.4 1.4-3 2.5-4.9 3.3-7.8 3.3-16.7-0.3-20-8.1s0.3-16.7 8.1-20c0.3-0.1 0.6-0.2 0.8-0.3 0.4-4.9 3.5-9.4 8.4-11.5 7-3 15.1 0.3 18.1 7.3 1.6 3.7 1.4 7.7-0.1 11 3.2 0.8 6.1 3 7.5 6.3 2.4 5.5-0.2 11.9-5.8 14.3-4.3 2-9.1 0.9-12.1-2.3z"/>
</defs>
<clipPath id="ed">
<use overflow="visible" xlink:href="#ec" xmlns:xlink="http://www.w3.org/1999/xlink"/>
</clipPath>
<rect x="-25" y="29.6" width="54.8" height="52.2" clip-path="url(#ed)" fill="#f9f9f9"/>
</g>
<path d="m6.2 72.2c-1.4 1.4-3 2.5-4.9 3.3-7.8 3.3-16.7-0.3-20-8.1s0.3-16.7 8.1-20c0.3-0.1 0.6-0.2 0.8-0.3 0.4-4.9 3.5-9.4 8.4-11.5 7-3 15.1 0.3 18.1 7.3 1.6 3.7 1.4 7.7-0.1 11 3.2 0.8 6.1 3 7.5 6.3 2.4 5.5-0.2 11.9-5.8 14.3-4.3 2-9.1 0.9-12.1-2.3z" display="inline" fill="#f9f9f9" stroke="#f9f9f9" stroke-linecap="round" stroke-linejoin="round" stroke-miterlimit="10" stroke-width="6"/>
<g display="inline">
<defs>
<path id="ee" d="m-133.7 91.5c-0.5-4.9 3-8.9 8-8.9h173.7c5 0 8.5 4 8 8.9l-27.1 243.6c-0.5 4.9-5 8.9-10 8.9h-115.6c-5 0-9.4-4-10-8.9l-27-243.6z"/>
</defs>
<clipPath id="ef">
<use overflow="visible" xlink:href="#ee" xmlns:xlink="http://www.w3.org/1999/xlink"/>
</clipPath>
<path d="m-133.7 91.5c-0.5-4.9 3-8.9 8-8.9h173.7c5 0 8.5 4 8 8.9l-27.1 243.6c-0.5 4.9-5 8.9-10 8.9h-115.6c-5 0-9.4-4-10-8.9l-27-243.6z" clip-path="url(#ef)" fill="#f9f9f9" stroke="#f9f9f9" stroke-linecap="round" stroke-linejoin="round" stroke-miterlimit="10" stroke-width="24"/>
</g>
<line x1="-131.1" x2="75.2" y1="336" y2="80.4" display="inline" fill="#f9f9f9" stroke="#f9f9f9" stroke-linecap="square" stroke-miterlimit="10" stroke-width="8"/>
<line x1="-131.1" x2="75.2" y1="292.5" y2="36.8" display="inline" fill="#f9f9f9" stroke="#f9f9f9" stroke-linecap="square" stroke-miterlimit="10" stroke-width="8"/>
<line x1="-131.1" x2="75.2" y1="248.9" y2="-6.8" display="inline" fill="#f9f9f9" stroke="#f9f9f9" stroke-linecap="square" stroke-miterlimit="10" stroke-width="8"/>
<line x1="-131.1" x2="75.2" y1="205.3" y2="-50.3" display="inline" fill="#f9f9f9" stroke="#f9f9f9" stroke-linecap="square" stroke-miterlimit="10" stroke-width="8"/>
<line x1="-131.1" x2="75.2" y1="161.7" y2="-93.9" display="inline" fill="#f9f9f9" stroke="#f9f9f9" stroke-linecap="square" stroke-miterlimit="10" stroke-width="8"/>
<rect x="-135" y="82" width="192" height="263" display="inline" fill="none"/>
<rect x="-135" y="82" width="192" height="263" display="inline" fill="none"/>
<path d="M-133.6,92.5c-0.6-5.5,3.4-9.9,8.9-9.9H47   c5.5,0,9.5,4.5,8.9,9.9L29.1,334.1c-0.6,5.5-5.6,9.9-11.1,9.9H-95.7c-5.5,0-10.5-4.5-11.1-9.9L-133.6,92.5z" clip-rule="evenodd" display="inline" fill="none" fill-rule="evenodd"/>
<g display="inline">
<defs>
<path id="eg" d="m31.5 68.8c-2-2.5-3.6-5.7-4.4-9.3-2.3-9.8 1.6-19 8.7-20.6 6.3-1.5 13 3.7 16 11.9 6.3 0.5 11.8 5.2 13.4 11.9 1.9 8.2-2.9 16.3-10.7 18.1-2.6 0.6-5.2 0.4-7.5-0.4-1.1 3.3-3.8 5.9-7.4 6.8-5.5 1.3-10.9-2.1-12.2-7.6-1.2-4.3 0.7-8.5 4.1-10.8z"/>
</defs>
<clipPath id="eh">
<use overflow="visible" xlink:href="#eg" xmlns:xlink="http://www.w3.org/1999/xlink"/>
</clipPath>
<rect x="21.4" y="33.6" width="49.1" height="58.8" clip-path="url(#eh)" fill="#f9f9f9"/>
</g>
<path d="m31.5 68.8c-2-2.5-3.6-5.7-4.4-9.3-2.3-9.8 1.6-19 8.7-20.6 6.3-1.5 13 3.7 16 11.9 6.3 0.5 11.8 5.2 13.4 11.9 1.9 8.2-2.9 16.3-10.7 18.1-2.6 0.6-5.2 0.4-7.5-0.4-1.1 3.3-3.8 5.9-7.4 6.8-5.5 1.3-10.9-2.1-12.2-7.6-1.2-4.3 0.7-8.5 4.1-10.8z" display="inline" fill="#f9f9f9" stroke="#f9f9f9" stroke-linejoin="round" stroke-miterlimit="10" stroke-width="8"/>
<g display="inline">
<defs>
<path id="ei" d="m-1.4 60.1c-0.7-1.8-1.1-3.8-1.1-5.8 0-8.4 6.8-15.3 15.3-15.3 8.3 0 15.2 6.8 15.2 15.2v0.9c4.3 2.3 7.3 6.9 7.3 12.2 0 7.6-6.2 13.8-13.8 13.8-4 0-7.6-1.7-10.1-4.4-2 2.7-5.2 4.4-8.8 4.4-6 0-10.9-4.9-10.9-10.9-0.1-4.6 2.8-8.6 6.9-10.1z"/>
</defs>
<clipPath id="ej">
<use overflow="visible" xlink:href="#ei" xmlns:xlink="http://www.w3.org/1999/xlink"/>
</clipPath>
<rect x="-13.4" y="34" width="53.6" height="52.1" clip-path="url(#ej)" fill="#f9f9f9"/>
</g>
<path d="m-1.4 60.1c-0.7-1.8-1.1-3.8-1.1-5.8 0-8.4 6.8-15.3 15.3-15.3 8.3 0 15.2 6.8 15.2 15.2v0.9c4.3 2.3 7.3 6.9 7.3 12.2 0 7.6-6.2 13.8-13.8 13.8-4 0-7.6-1.7-10.1-4.4-2 2.7-5.2 4.4-8.8 4.4-6 0-10.9-4.9-10.9-10.9-0.1-4.6 2.8-8.6 6.9-10.1z" display="inline" fill="#f9f9f9" stroke="#f9f9f9" stroke-linecap="round" stroke-linejoin="round" stroke-miterlimit="10" stroke-width="8"/>
<g display="inline">
<defs>
<path id="ek" d="m9.1 37.4c-1.4 1.4-3 2.5-4.9 3.3-7.8 3.3-16.7-0.3-20-8.1s0.3-16.7 8.1-20c0.3-0.1 0.6-0.2 0.8-0.3 0.4-4.9 3.5-9.4 8.4-11.5 7-3 15.1 0.3 18.1 7.3 1.6 3.7 1.4 7.7-0.1 11 3.2 0.8 6.1 3 7.5 6.3 2.4 5.5-0.2 11.9-5.8 14.3-4.3 1.9-9.1 0.8-12.1-2.3z"/>
</defs>
<clipPath id="el">
<use overflow="visible" xlink:href="#ek" xmlns:xlink="http://www.w3.org/1999/xlink"/>
</clipPath>
<rect x="-22.1" y="-5.3" width="54.8" height="52.2" clip-path="url(#el)" fill="#f9f9f9"/>
</g>
<path d="m9.1 37.4c-1.4 1.4-3 2.5-4.9 3.3-7.8 3.3-16.7-0.3-20-8.1s0.3-16.7 8.1-20c0.3-0.1 0.6-0.2 0.8-0.3 0.4-4.9 3.5-9.4 8.4-11.5 7-3 15.1 0.3 18.1 7.3 1.6 3.7 1.4 7.7-0.1 11 3.2 0.8 6.1 3 7.5 6.3 2.4 5.5-0.2 11.9-5.8 14.3-4.3 1.9-9.1 0.8-12.1-2.3z" display="inline" fill="#f9f9f9" stroke="#f9f9f9" stroke-linecap="round" stroke-linejoin="round" stroke-miterlimit="10" stroke-width="8"/>
<g display="inline">
<defs>
<path id="em" d="m-26.1 61.4c-3.3-3.1-7.7-4.6-12-3.6-7.4 1.7-11.8 10.1-9.9 18.7 2 8.6 9.6 14.2 17 12.5 0.8-0.2 1.6-0.5 2.4-0.8 0 0.8 0.1 1.6 0.3 2.4 1.5 6.6 9.4 10.5 17.6 8.6s13.5-8.7 12.1-15.3c7.8-3.9 12.2-11.9 10.4-19.7-2-8.5-10.6-13.9-20-13.1-2.5-2.2-6.1-3.3-9.7-2.5-5.7 1.4-9.3 7-8.2 12.8z"/>
</defs>
<clipPath id="en">
<use overflow="visible" xlink:href="#em" xmlns:xlink="http://www.w3.org/1999/xlink"/>
</clipPath>
<rect x="-53.4" y="43.4" width="70.6" height="61.3" clip-path="url(#en)" fill="#f9f9f9"/>
</g>
<path d="m-26.1 61.4c-3.3-3.1-7.7-4.6-12-3.6-7.4 1.7-11.8 10.1-9.9 18.7 2 8.6 9.6 14.2 17 12.5 0.8-0.2 1.6-0.5 2.4-0.8 0 0.8 0.1 1.6 0.3 2.4 1.5 6.6 9.4 10.5 17.6 8.6s13.5-8.7 12.1-15.3c7.8-3.9 12.2-11.9 10.4-19.7-2-8.5-10.6-13.9-20-13.1-2.5-2.3-6.1-3.3-9.7-2.5-5.7 1.4-9.3 7-8.2 12.8z" display="inline" fill="#f9f9f9" stroke="#f9f9f9" stroke-linejoin="round" stroke-miterlimit="10" stroke-width="8"/>
<g display="inline">
<defs>
<path id="eo" d="m4 112c-4.1-0.2-7.8-3.1-8.8-7.3-1.2-5.1 2-10.2 7.1-11.3 0.4-0.1 0.8-0.2 1.3-0.2-1.7-1.8-3-4.1-3.6-6.7-1.9-7.9 3-15.7 10.8-17.5 5.8-1.3 11.6 1 14.9 5.5 7-1.5 13.8 2.9 15.4 9.9 1.2 5.1-0.8 10.1-4.6 13.2 0.3 0.6 0.5 1.2 0.6 1.9 1.7 7.4-4.8 15.3-14.6 17.5-7.5 1.7-14.9-0.5-18.5-5z"/>
</defs>
<clipPath id="ep">
<use overflow="visible" xlink:href="#eo" xmlns:xlink="http://www.w3.org/1999/xlink"/>
</clipPath>
<rect x="-10.1" y="63.6" width="56.6" height="58.9" clip-path="url(#ep)" fill="#f9f9f9"/>
</g>
<path d="m4 112c-4.1-0.2-7.8-3.1-8.8-7.3-1.2-5.1 2-10.2 7.1-11.3 0.4-0.1 0.8-0.2 1.3-0.2-1.7-1.8-3-4.1-3.6-6.7-1.9-7.9 3-15.7 10.8-17.5 5.8-1.3 11.6 1 14.9 5.5v0c7-1.5 13.8 2.9 15.4 9.9 1.2 5.1-0.8 10.1-4.6 13.2 0.3 0.6 0.5 1.2 0.6 1.9 1.7 7.4-4.8 15.3-14.6 17.5-7.5 1.7-14.9-0.5-18.5-5z" display="inline" fill="#f9f9f9" stroke="#f9f9f9" stroke-linecap="round" stroke-linejoin="round" stroke-miterlimit="10" stroke-width="8"/>
<path d="m26.9 76.1s3.3 5.8-2.3 11.7c-5.7 6-11.2 3.7-11.2 3.7" display="inline" fill="#f9f9f9" stroke="#f9f9f9" stroke-linecap="round" stroke-miterlimit="10" stroke-width="8"/>
<path d="m19.6 20.8s-2.4 6.2-10.6 5.6c-8.2-0.7-9.9-6.4-9.9-6.4" display="inline" fill="#f9f9f9" stroke="#f9f9f9" stroke-linecap="round" stroke-miterlimit="10" stroke-width="8"/>
</g>
<g display="none" xmlns="http://www.w3.org/2000/svg">
<g display="inline">
<defs>
<path id="eq" d="m-61.7 44.6c0-6.2 5-11.3 11.3-11.3h45.4c6.2 0 11.3 5 11.3 11.3v45.3c0 6.2-5 11.3-11.3 11.3h-45.4c-6.2 0-11.3-5-11.3-11.3v-45.3zm-17-28.3h101.9v101.9h-101.9v-101.9z"/>
</defs>
<clipPath id="er">
<use overflow="visible" xlink:href="#eq" xmlns:xlink="http://www.w3.org/1999/xlink"/>
</clipPath>
<path d="m-61.7 44.6c0-6.2 5-11.3 11.3-11.3h45.4c6.2 0 11.3 5 11.3 11.3v45.3c0 6.2-5 11.3-11.3 11.3h-45.4c-6.2 0-11.3-5-11.3-11.3v-45.3z" clip-path="url(#er)" fill="#f9f9f9" stroke="#f9f9f9" stroke-miterlimit="10" stroke-width="15.04"/>
</g>
<g display="inline">
<defs>
<path id="es" d="m-61.7 105.9c0-6.2 5-11.3 11.3-11.3h45.4c6.2 0 11.3 5 11.3 11.3v45.3c0 6.2-5 11.3-11.3 11.3h-45.4c-6.2 0-11.3-5-11.3-11.3v-45.3zm-17-28.3h101.9v101.9h-101.9v-101.9z"/>
</defs>
<clipPath id="et">
<use overflow="visible" xlink:href="#es" xmlns:xlink="http://www.w3.org/1999/xlink"/>
</clipPath>
<path d="m-61.7 105.9c0-6.2 5-11.3 11.3-11.3h45.4c6.2 0 11.3 5 11.3 11.3v45.3c0 6.2-5 11.3-11.3 11.3h-45.4c-6.2 0-11.3-5-11.3-11.3v-45.3z" clip-path="url(#et)" fill="#f9f9f9" stroke="#f9f9f9" stroke-miterlimit="10" stroke-width="15.04"/>
</g>
<g display="inline">
<defs>
<path id="eu" d="m-0.4 44.6c0-6.2 5-11.3 11.3-11.3h45.4c6.2 0 11.3 5 11.3 11.3v45.3c0 6.2-5 11.3-11.3 11.3h-45.4c-6.2 0-11.3-5-11.3-11.3v-45.3zm-17-28.3h101.9v101.9h-101.9v-101.9z"/>
</defs>
<clipPath id="ev">
<use overflow="visible" xlink:href="#eu" xmlns:xlink="http://www.w3.org/1999/xlink"/>
</clipPath>
<path d="m-0.4 44.6c0-6.2 5-11.3 11.3-11.3h45.4c6.2 0 11.3 5 11.3 11.3v45.3c0 6.2-5 11.3-11.3 11.3h-45.4c-6.2 0-11.3-5-11.3-11.3v-45.3z" clip-path="url(#ev)" fill="#f9f9f9" stroke="#f9f9f9" stroke-miterlimit="10" stroke-width="15.04"/>
</g>
<g display="inline">
<defs>
<path id="ex" d="m-0.4 105.9c0-6.2 5-11.3 11.3-11.3h45.4c6.2 0 11.3 5 11.3 11.3v45.3c0 6.2-5 11.3-11.3 11.3h-45.4c-6.2 0-11.3-5-11.3-11.3v-45.3zm-17-28.3h101.9v101.9h-101.9v-101.9z"/>
</defs>
<clipPath id="ey">
<use overflow="visible" xlink:href="#ex" xmlns:xlink="http://www.w3.org/1999/xlink"/>
</clipPath>
<path d="m-0.4 105.9c0-6.2 5-11.3 11.3-11.3h45.4c6.2 0 11.3 5 11.3 11.3v45.3c0 6.2-5 11.3-11.3 11.3h-45.4c-6.2 0-11.3-5-11.3-11.3v-45.3z" clip-path="url(#ey)" fill="#f9f9f9" stroke="#f9f9f9" stroke-miterlimit="10" stroke-width="15.04"/>
</g>
<g display="inline">
<defs>
<path id="ez" d="m-65.5 44.6v45.3c0 8.3 6.7 15 15 15h45.4c8.3 0 15-6.7 15-15v-45.3c0-8.3-6.7-15-15-15h-45.4c-8.3-0.1-15 6.7-15 15zm7.5 0c0-4.2 3.4-7.5 7.5-7.5h45.4c4.1 0 7.5 3.4 7.5 7.5v45.3c0 4.2-3.4 7.5-7.5 7.5h-45.4c-4.1 0-7.5-3.4-7.5-7.5v-45.3zm-27.5-35.1h115.4v115.4h-115.4v-115.4z"/>
</defs>
<clipPath id="fa">
<use overflow="visible" xlink:href="#ez" xmlns:xlink="http://www.w3.org/1999/xlink"/>
</clipPath>
<g clip-path="url(#fa)">
<defs>
<path id="fb" d="m-61.7 44.6c0-6.2 5-11.3 11.3-11.3h45.4c6.2 0 11.3 5 11.3 11.3v45.3c0 6.2-5 11.3-11.3 11.3h-45.4c-6.2 0-11.3-5-11.3-11.3v-45.3z"/>
</defs>
<clipPath id="fc">
<use overflow="visible" xlink:href="#fb" xmlns:xlink="http://www.w3.org/1999/xlink"/>
</clipPath>
<path d="m-61.7 44.6c0-6.2 5-11.3 11.3-11.3h45.4c6.2 0 11.3 5 11.3 11.3v45.3c0 6.2-5 11.3-11.3 11.3h-45.4c-6.2 0-11.3-5-11.3-11.3v-45.3z" clip-path="url(#fc)" clip-rule="evenodd" fill="#f9f9f9" fill-rule="evenodd"/>
</g>
</g>
<g display="inline">
<defs>
<path id="fd" d="m-61.7 44.6c0-6.2 5-11.3 11.3-11.3h45.4c6.2 0 11.3 5 11.3 11.3v45.3c0 6.2-5 11.3-11.3 11.3h-45.4c-6.2 0-11.3-5-11.3-11.3v-45.3z"/>
</defs>
<clipPath id="fe">
<use overflow="visible" xlink:href="#fd" xmlns:xlink="http://www.w3.org/1999/xlink"/>
</clipPath>
<path d="m-61.7 44.6c0-6.2 5-11.3 11.3-11.3h45.4c6.2 0 11.3 5 11.3 11.3v45.3c0 6.2-5 11.3-11.3 11.3h-45.4c-6.2 0-11.3-5-11.3-11.3v-45.3z" clip-path="url(#fe)" fill="#f9f9f9" stroke="#f9f9f9" stroke-miterlimit="10" stroke-width="15.04"/>
</g>
<g display="inline">
<defs>
<path id="ff" d="m-65.5 105.9v45.3c0 8.3 6.7 15 15 15h45.4c8.3 0 15-6.7 15-15v-45.3c0-8.3-6.7-15-15-15h-45.4c-8.3-0.1-15 6.7-15 15zm7.5 0c0-4.2 3.4-7.5 7.5-7.5h45.4c4.1 0 7.5 3.4 7.5 7.5v45.3c0 4.2-3.4 7.5-7.5 7.5h-45.4c-4.1 0-7.5-3.4-7.5-7.5v-45.3zm-27.5-35.1h115.4v115.4h-115.4v-115.4z"/>
</defs>
<clipPath id="fg">
<use overflow="visible" xlink:href="#ff" xmlns:xlink="http://www.w3.org/1999/xlink"/>
</clipPath>
<g clip-path="url(#fg)">
<defs>
<path id="fh" d="m-61.7 105.9c0-6.2 5-11.3 11.3-11.3h45.4c6.2 0 11.3 5 11.3 11.3v45.3c0 6.2-5 11.3-11.3 11.3h-45.4c-6.2 0-11.3-5-11.3-11.3v-45.3z"/>
</defs>
<clipPath id="fi">
<use overflow="visible" xlink:href="#fh" xmlns:xlink="http://www.w3.org/1999/xlink"/>
</clipPath>
<path d="m-61.7 105.9c0-6.2 5-11.3 11.3-11.3h45.4c6.2 0 11.3 5 11.3 11.3v45.3c0 6.2-5 11.3-11.3 11.3h-45.4c-6.2 0-11.3-5-11.3-11.3v-45.3z" clip-path="url(#fi)" clip-rule="evenodd" fill="#f9f9f9" fill-rule="evenodd"/>
</g>
</g>
<g display="inline">
<defs>
<path id="fj" d="m-61.7 105.9c0-6.2 5-11.3 11.3-11.3h45.4c6.2 0 11.3 5 11.3 11.3v45.3c0 6.2-5 11.3-11.3 11.3h-45.4c-6.2 0-11.3-5-11.3-11.3v-45.3z"/>
</defs>
<clipPath id="fk">
<use overflow="visible" xlink:href="#fj" xmlns:xlink="http://www.w3.org/1999/xlink"/>
</clipPath>
<path d="m-61.7 105.9c0-6.2 5-11.3 11.3-11.3h45.4c6.2 0 11.3 5 11.3 11.3v45.3c0 6.2-5 11.3-11.3 11.3h-45.4c-6.2 0-11.3-5-11.3-11.3v-45.3z" clip-path="url(#fk)" fill="#f9f9f9" stroke="#f9f9f9" stroke-miterlimit="10" stroke-width="15.04"/>
</g>
<g display="inline">
<defs>
<path id="fl" d="m-4.2 44.6v45.3c0 8.3 6.7 15 15 15h45.4c8.3 0 15-6.7 15-15v-45.3c0-8.3-6.7-15-15-15h-45.3c-8.3-0.1-15.1 6.7-15.1 15zm7.6 0c0-4.2 3.4-7.5 7.5-7.5h45.4c4.1 0 7.5 3.4 7.5 7.5v45.3c0 4.2-3.4 7.5-7.5 7.5h-45.4c-4.1 0-7.5-3.4-7.5-7.5v-45.3zm-27.6-35.1h115.5v115.4h-115.5v-115.4z"/>
</defs>
<clipPath id="fm">
<use overflow="visible" xlink:href="#fl" xmlns:xlink="http://www.w3.org/1999/xlink"/>
</clipPath>
<g clip-path="url(#fm)">
<defs>
<path id="fn" d="m-0.4 44.6c0-6.2 5-11.3 11.3-11.3h45.4c6.2 0 11.3 5 11.3 11.3v45.3c0 6.2-5 11.3-11.3 11.3h-45.4c-6.2 0-11.3-5-11.3-11.3v-45.3z"/>
</defs>
<clipPath id="fo">
<use overflow="visible" xlink:href="#fn" xmlns:xlink="http://www.w3.org/1999/xlink"/>
</clipPath>
<path d="m-0.4 44.6c0-6.2 5-11.3 11.3-11.3h45.4c6.2 0 11.3 5 11.3 11.3v45.3c0 6.2-5 11.3-11.3 11.3h-45.4c-6.2 0-11.3-5-11.3-11.3v-45.3z" clip-path="url(#fo)" clip-rule="evenodd" fill="#f9f9f9" fill-rule="evenodd"/>
</g>
</g>
<g display="inline">
<defs>
<path id="fp" d="m-0.4 44.6c0-6.2 5-11.3 11.3-11.3h45.4c6.2 0 11.3 5 11.3 11.3v45.3c0 6.2-5 11.3-11.3 11.3h-45.4c-6.2 0-11.3-5-11.3-11.3v-45.3z"/>
</defs>
<clipPath id="fq">
<use overflow="visible" xlink:href="#fp" xmlns:xlink="http://www.w3.org/1999/xlink"/>
</clipPath>
<path d="m-0.4 44.6c0-6.2 5-11.3 11.3-11.3h45.4c6.2 0 11.3 5 11.3 11.3v45.3c0 6.2-5 11.3-11.3 11.3h-45.4c-6.2 0-11.3-5-11.3-11.3v-45.3z" clip-path="url(#fq)" fill="#f9f9f9" stroke="#f9f9f9" stroke-miterlimit="10" stroke-width="15.04"/>
</g>
<g display="inline">
<defs>
<path id="fr" d="m-4.2 105.9v45.3c0 8.3 6.7 15 15 15h45.4c8.3 0 15-6.7 15-15v-45.3c0-8.3-6.7-15-15-15h-45.3c-8.3-0.1-15.1 6.7-15.1 15zm7.6 0c0-4.2 3.4-7.5 7.5-7.5h45.4c4.1 0 7.5 3.4 7.5 7.5v45.3c0 4.2-3.4 7.5-7.5 7.5h-45.4c-4.1 0-7.5-3.4-7.5-7.5v-45.3zm-27.6-35.1h115.5v115.4h-115.5v-115.4z"/>
</defs>
<clipPath id="fs">
<use overflow="visible" xlink:href="#fr" xmlns:xlink="http://www.w3.org/1999/xlink"/>
</clipPath>
<g clip-path="url(#fs)">
<defs>
<path id="ft" d="m-0.4 105.9c0-6.2 5-11.3 11.3-11.3h45.4c6.2 0 11.3 5 11.3 11.3v45.3c0 6.2-5 11.3-11.3 11.3h-45.4c-6.2 0-11.3-5-11.3-11.3v-45.3z"/>
</defs>
<clipPath id="fu">
<use overflow="visible" xlink:href="#ft" xmlns:xlink="http://www.w3.org/1999/xlink"/>
</clipPath>
<path d="m-0.4 105.9c0-6.2 5-11.3 11.3-11.3h45.4c6.2 0 11.3 5 11.3 11.3v45.3c0 6.2-5 11.3-11.3 11.3h-45.4c-6.2 0-11.3-5-11.3-11.3v-45.3z" clip-path="url(#fu)" clip-rule="evenodd" fill="#f9f9f9" fill-rule="evenodd"/>
</g>
</g>
<g display="inline">
<defs>
<path id="fv" d="m-0.4 105.9c0-6.2 5-11.3 11.3-11.3h45.4c6.2 0 11.3 5 11.3 11.3v45.3c0 6.2-5 11.3-11.3 11.3h-45.4c-6.2 0-11.3-5-11.3-11.3v-45.3z"/>
</defs>
<clipPath id="fw">
<use overflow="visible" xlink:href="#fv" xmlns:xlink="http://www.w3.org/1999/xlink"/>
</clipPath>
<path d="m-0.4 105.9c0-6.2 5-11.3 11.3-11.3h45.4c6.2 0 11.3 5 11.3 11.3v45.3c0 6.2-5 11.3-11.3 11.3h-45.4c-6.2 0-11.3-5-11.3-11.3v-45.3z" clip-path="url(#fw)" fill="#f9f9f9" stroke="#f9f9f9" stroke-miterlimit="10" stroke-width="15.04"/>
</g>
</g>
<g display="none" xmlns="http://www.w3.org/2000/svg">
<path d="m-10.2 43s-5.6 22.7 4.5 44.3 33.1 41.9 33.1 96.1-11.9 79.4-6.9 115.3 15.5 68.3 13.3 80.9-12.5 17.5-25 18.5c-12.4 1-63.3 0.3-63.3 0.3" display="inline" fill="#f9f9f9" stroke="#f9f9f9" stroke-miterlimit="10" stroke-width="12"/>
<g display="inline">
<defs>
<path id="cm" d="m-68.1 54v5h80v-46.1c0-7.7-6.1-13.9-13.7-13.9h-52.5c-7.6 0-13.8 6.2-13.8 13.9v41.1z"/>
</defs>
<clipPath id="cn">
<use overflow="visible" xlink:href="#cm" xmlns:xlink="http://www.w3.org/1999/xlink"/>
</clipPath>
<rect x="-68.1" y="-1" width="80" height="60" clip-path="url(#cn)" fill="#f9f9f9"/>
</g>
<g display="inline">
<defs>
<path id="co" d="m-63.1 54v-41.1c0-4.9 3.9-8.9 8.8-8.9h52.5c4.8 0 8.7 4 8.7 8.9v41.1h-70zm-20-70h110v90h-110v-90z"/>
</defs>
<clipPath id="cp">
<use overflow="visible" xlink:href="#co" xmlns:xlink="http://www.w3.org/1999/xlink"/>
</clipPath>
<path d="m-63.1 54v-41.1c0-4.9 3.9-8.9 8.8-8.9h52.5c4.8 0 8.7 4 8.7 8.9v41.1h-70z" clip-path="url(#cp)" fill="#f9f9f9" stroke="#f9f9f9" stroke-miterlimit="10" stroke-width="20"/>
</g>
<g display="inline">
<defs>
<path id="cq" d="M-63.1,54V12.9c0-4.9,3.9-8.9,8.8-8.9h52.5C3,4,6.9,8,6.9,12.9V54"/>
</defs>
<clipPath id="cr">
<use overflow="visible" xlink:href="#cq" xmlns:xlink="http://www.w3.org/1999/xlink"/>
</clipPath>
<path d="m-63.1 54v-41.1c0-4.9 3.9-8.9 8.8-8.9h52.5c4.8 0 8.7 4 8.7 8.9v41.1" clip-path="url(#cr)" fill="#f9f9f9" stroke="#f9f9f9" stroke-linecap="round" stroke-miterlimit="10" stroke-width="17.6"/>
</g>
</g>
<g display="none" xmlns="http://www.w3.org/2000/svg">
<g display="inline">
<defs>
<path id="cs" d="m-72 152.1c-6.6 4.7-11 12.5-11 21.2v195.7c0 14.4 11.6 26 26 26h52.5c14.4 0 26-11.6 26-26v-195.6c0-10.2-5.8-19-14.3-23.2h0.7s-5-2-7-9.2-7.2-104.2-7.2-104.2l4.3-6.8s-1.1-24.1-1.3-29.8-4-6.2-4-6.2-40.4-0.3-46.2 0c-5.9 0.3-5.6 5.8-5.6 5.8l-0.4 29.9 3.7 7.5s-4.3 97.5-6.4 104.1-10.2 10.9-10.2 10.9l0.4-0.1z"/>
</defs>
<clipPath id="ct">
<use overflow="visible" xlink:href="#cs" xmlns:xlink="http://www.w3.org/1999/xlink"/>
</clipPath>
<path d="m-72 152.1c-6.6 4.7-11 12.5-11 21.2v195.7c0 14.4 11.6 26 26 26h52.5c14.4 0 26-11.6 26-26v-195.6c0-10.2-5.8-19-14.3-23.2h0.7s-5-2-7-9.2-7.2-104.2-7.2-104.2l4.3-6.8s-1.1-24.1-1.3-29.8-4-6.2-4-6.2-40.4-0.3-46.2 0c-5.9 0.3-5.6 5.8-5.6 5.8l-0.4 29.9 3.7 7.5s-4.3 97.5-6.4 104.1-10.2 10.9-10.2 10.9l0.4-0.1z" clip-path="url(#ct)" fill="#f9f9f9" stroke="#f9f9f9" stroke-linecap="round" stroke-linejoin="round" stroke-miterlimit="10" stroke-width="24"/>
</g>
</g>
<g display="none" xmlns="http://www.w3.org/2000/svg">
<path d="m-38 97.9s-3.9-80.2 93.2-59.6" display="inline" fill="#f9f9f9" stroke="#f9f9f9" stroke-linecap="round" stroke-miterlimit="10" stroke-width="8"/>
<path d="m10.9 34s-6.5-17.1 1-31.1c7.4-14.2 18.1-15.8 18.1-15.8s6.6 14.8-0.1 28.7c-6.7 14-19 18.2-19 18.2z" display="inline" fill="#f9f9f9" stroke="#f9f9f9" stroke-miterlimit="10" stroke-width="6"/>
<path d="m38.7 122.2s-9.1-15.8-3.9-30.9 15.4-18.4 15.4-18.4 8.8 13.5 4.4 28.4c-4.4 14.8-15.9 20.9-15.9 20.9z" display="inline" fill="#f9f9f9" stroke="#f9f9f9" stroke-miterlimit="10" stroke-width="6"/>
<path d="m53.6 37.7s17.4-5.6 31 2.6c13.7 8.2 14.8 18.9 14.8 18.9s-15.1 5.8-28.7-1.6-17.1-19.9-17.1-19.9z" display="inline" fill="#f9f9f9" stroke="#f9f9f9" stroke-miterlimit="10" stroke-width="6"/>
<g display="inline">
<defs>
<path id="cu" d="m-5.3 63c0.1-3.9 0.4-4.9 1.1-7.4 0.8-2.4 2.9-2.7 4-2.5 1.2 0.2 3.3 0.6 5.1 0.1s4.5-1.6 6-0.2c1.4 1.4 2.2 3.9 1.8 9.2s-2.5 14-1.3 20.5c1.1 6.5 4 11.4 4 12.3 0 1 0.1 2.7-1.9 2.9-2.1 0.2-7-2.4-9.7-5.6-2.6-3.3-7.3-10.1-8.4-16.5-1.1-6.3-0.8-8.9-0.7-12.8z"/>
</defs>
<clipPath id="cv">
<use overflow="visible" xlink:href="#cu" xmlns:xlink="http://www.w3.org/1999/xlink"/>
</clipPath>
<rect transform="matrix(-.9994 .0349 -.0349 -.9994 12.183 150.61)" x="-10.2" y="47.5" width="29.9" height="55.8" clip-path="url(#cv)" fill="#f9f9f9"/>
</g>
<line x1="4" x2="4" y1="39.5" y2="59.5" display="inline" fill="#f9f9f9" stroke="#f9f9f9" stroke-linecap="square" stroke-miterlimit="10" stroke-width="4"/>
</g>
<g display="none" xmlns="http://www.w3.org/2000/svg">
<g display="inline">
<defs>
<path id="cw" d="m-129.7 52c0-5.5 4.5-10 10-10h191.3c5.5 0 10 4.5 10 10v279.6c0 5.5-4.5 10-10 10h-191.3c-5.5 0-10-4.5-10-10v-279.6z"/>
</defs>
<clipPath id="cx">
<use overflow="visible" xlink:href="#cw" xmlns:xlink="http://www.w3.org/1999/xlink"/>
</clipPath>
<path d="M-129.7,52    c0-5.5,4.5-10,10-10H71.6c5.5,0,10,4.5,10,10v279.6c0,5.5-4.5,10-10,10h-191.3c-5.5,0-10-4.5-10-10V52z" clip-path="url(#cx)" fill="#f9f9f9" stroke="#f9f9f9" stroke-miterlimit="10" stroke-width="24"/>
</g>
<polyline points="92.6 60 92.6 353.6 -112.7 353.6" display="inline" fill="#f9f9f9" stroke="#f9f9f9" stroke-linecap="round" stroke-linejoin="round" stroke-miterlimit="10" stroke-width="8"/>
</g>
<g display="none" xmlns="http://www.w3.org/2000/svg">
<path d="m-194.7 108.2 1.3 198s6.5 1 9.7 1.5c74.7 11.7 224.1 35 224.1 35v-229.3l-235.5-19.5" display="inline" fill="#f9f9f9" stroke="#f9f9f9" stroke-linecap="round" stroke-linejoin="round" stroke-miterlimit="10" stroke-width="12"/>
<polyline points="-193.6 93 -69.4 44.7 134.5 61 51.8 106.1" display="inline" fill="#f9f9f9" stroke="#f9f9f9" stroke-linecap="round" stroke-linejoin="round" stroke-miterlimit="10" stroke-width="12"/>
<polyline points="41.8 342.2 134.8 271.8 135.1 77.3" display="inline" fill="#f9f9f9" stroke="#f9f9f9" stroke-linecap="round" stroke-linejoin="round" stroke-miterlimit="10" stroke-width="12"/>
<g display="inline">
<defs>
<polygon id="cy" points="-111.2 128.5 -58.4 133.5 -57.8 105 50.6 55.4 -0.9 51.8 -111.4 99"/>
</defs>
<clipPath id="cz">
<use overflow="visible" xlink:href="#cy" xmlns:xlink="http://www.w3.org/1999/xlink"/>
</clipPath>
<rect x="-116.4" y="46.8" width="172" height="91.7" clip-path="url(#cz)" fill="#f9f9f9"/>
</g>
<polygon points="-111.2 128.5 -58.4 133.5 -57.8 105 50.6 55.4 -0.9 51.8 -111.4 99" display="inline" fill="#f9f9f9" stroke="#f9f9f9" stroke-linecap="round" stroke-linejoin="round" stroke-miterlimit="10" stroke-width="8"/>
</g>
<g display="none" xmlns="http://www.w3.org/2000/svg">
<g display="inline">
<defs>
<rect id="da" x="-196" y="41" width="331" height="331"/>
</defs>
<clipPath id="db">
<use overflow="visible" xlink:href="#da" xmlns:xlink="http://www.w3.org/1999/xlink"/>
</clipPath>
<rect x="-196" y="41" width="331" height="331" clip-path="url(#db)" fill="#f9f9f9" stroke="#f9f9f9" stroke-miterlimit="10" stroke-width="24"/>
</g>
<g display="inline">
<defs>
<path id="dc" d="m80.4 18.5h-8.4c-3.3 0-6 2.7-6 6v41.7c0 3.3 2.7 6 6 6h8.4c3.3 0 6-2.7 6-6v-41.7c0-3.3-2.7-6-6-6z"/>
</defs>
<clipPath id="dd">
<use overflow="visible" xlink:href="#dc" xmlns:xlink="http://www.w3.org/1999/xlink"/>
</clipPath>
<rect x="65" y="17.5" width="22.4" height="55.7" clip-path="url(#dd)" fill="#f9f9f9"/>
</g>
<g display="inline">
<defs>
<path id="de" d="m80.4 22.5c1.1 0 2 0.9 2 2v41.7c0 1.1-0.9 2-2 2h-8.4c-1.1 0-2-0.9-2-2v-41.7c0-1.1 0.9-2 2-2h8.4zm20-18v81.7h-48.4v-81.7h48.4z"/>
</defs>
<clipPath id="df">
<use overflow="visible" xlink:href="#de" xmlns:xlink="http://www.w3.org/1999/xlink"/>
</clipPath>
<path d="m80.4 22.5c1.1 0 2 0.9 2 2v41.7c0 1.1-0.9 2-2 2h-8.4c-1.1 0-2-0.9-2-2v-41.7c0-1.1 0.9-2 2-2h8.4z" clip-path="url(#df)" fill="#f9f9f9" stroke="#f9f9f9" stroke-miterlimit="10" stroke-width="16"/>
</g>
<g display="inline">
<defs>
<path id="dg" d="m9.5 18.5h-8.5c-3.3 0-6 2.7-6 6v41.7c0 3.3 2.7 6 6 6h8.4c3.3 0 6-2.7 6-6v-41.7c0-3.3-2.6-6-5.9-6z"/>
</defs>
<clipPath id="dh">
<use overflow="visible" xlink:href="#dg" xmlns:xlink="http://www.w3.org/1999/xlink"/>
</clipPath>
<rect x="-6" y="17.5" width="22.4" height="55.7" clip-path="url(#dh)" fill="#f9f9f9"/>
</g>
<g display="inline">
<defs>
<path id="di" d="M9.5,22.5c1.1,0,2,0.9,2,2v41.7c0,1.1-0.9,2-2,2H1c-1.1,0-2-0.9-2-2V24.5c0-1.1,0.9-2,2-2H9.5z      M29.4,4.5v81.7H-19V4.5H29.4z"/>
</defs>
<clipPath id="dv">
<use overflow="visible" xlink:href="#di" xmlns:xlink="http://www.w3.org/1999/xlink"/>
</clipPath>
<path d="m9.5 22.5c1.1 0 2 0.9 2 2v41.7c0 1.1-0.9 2-2 2h-8.5c-1.1 0-2-0.9-2-2v-41.7c0-1.1 0.9-2 2-2h8.5z" clip-path="url(#dv)" fill="#f9f9f9" stroke="#f9f9f9" stroke-miterlimit="10" stroke-width="16"/>
</g>
</g>
<g display="none" xmlns="http://www.w3.org/2000/svg">
<path d="m-211.7 99.4 1.5 218.4s7.2 1.1 10.7 1.7c82.4 12.8 247.2 38.5 247.2 38.5v-252.8l-259.8-21.6" display="inline" fill="#f9f9f9" stroke="#f9f9f9" stroke-linecap="round" stroke-linejoin="round" stroke-miterlimit="10" stroke-width="12"/>
<polyline points="-210.5 82.6 -73.5 29.4 151.4 47.3 60.3 97.1" display="inline" fill="#f9f9f9" stroke="#f9f9f9" stroke-linecap="round" stroke-linejoin="round" stroke-miterlimit="10" stroke-width="12"/>
<polyline points="49.2 357.5 151.8 279.8 152 65.3" display="inline" fill="#f9f9f9" stroke="#f9f9f9" stroke-linecap="round" stroke-linejoin="round" stroke-miterlimit="10" stroke-width="12"/>
<g display="inline">
<defs>
<polygon id="ew" points="-119.6 121.8 -61.4 127.3 -60.6 95.9 58.9 41.1 2.1 37.2 -119.8 89.2"/>
</defs>
<clipPath id="fx">
<use overflow="visible" xlink:href="#ew" xmlns:xlink="http://www.w3.org/1999/xlink"/>
</clipPath>
<rect x="-124.8" y="32.2" width="188.7" height="100.1" clip-path="url(#fx)" fill="#f9f9f9"/>
</g>
<polygon points="-119.6 121.8 -61.4 127.3 -60.6 95.9 58.9 41.1 2.1 37.2 -119.8 89.2" display="inline" fill="#f9f9f9" stroke="#f9f9f9" stroke-linecap="round" stroke-linejoin="round" stroke-miterlimit="10" stroke-width="8"/>
</g>
</g>
<g transform="matrix(3.3392 0 0 3.3392 59.323 151.29)" fill="#f9f9f9" featureKey="nameFeature-0">
<path d="m10.16 9.8c-0.76 0.04-1.52 0.16-2.28 0.4-1.64 0.56-3.12 1.68-4.12 3.12-0.88 1.32-1.24 2.88-1.36 4.44-0.08 1.2 0.04 2.44 0.6 3.52 0.6 1.16 1.64 2.16 2.52 3.12 0.8 0.84 1.6 1.68 2.48 2.44 0.8 0.76 1.72 1.36 2.52 2.16 1.16 1.16 1.6 3.8 0.76 5.24-1 1.6-3.36 1.84-4.92 1.32-0.8-0.28-1.52-0.88-2.2-1.36-0.4-0.28-0.88-0.4-1.16 0.08-0.16 0.24-0.24 0.52-0.32 0.76-0.28 1-0.64 1.92-0.68 3-0.04 1.24 2.32 1.6 3.2 1.8 3.92 0.92 8.64 0.2 10.68-3.68 0.4-0.8 0.68-1.64 0.84-2.52 0.04-0.32 0.08-0.6 0.08-0.92 0.16-2.56-0.88-4.72-2.44-6.64-1.68-2.08-3.8-3.52-5.76-5.32-1.2-1.12-1.64-2.88-1.28-4.48 0.36-1.72 2.32-2.16 3.8-1.72 0.44 0.12 0.8 0.32 1.2 0.56 0.24 0.12 0.48 0.28 0.8 0.28 0.56 0.04 0.64-0.4 0.76-0.84 0.28-1 0.76-1.8 0.96-2.76 0.2-1.08-0.68-1.28-1.56-1.56-1.04-0.28-2.04-0.48-3.12-0.44zm19.542 0c-0.76 0.04-1.52 0.16-2.28 0.4-1.64 0.56-3.12 1.68-4.12 3.12-0.88 1.32-1.24 2.88-1.36 4.44-0.08 1.2 0.04 2.44 0.6 3.52 0.6 1.16 1.64 2.16 2.52 3.12 0.8 0.84 1.6 1.68 2.48 2.44 0.8 0.76 1.72 1.36 2.52 2.16 1.16 1.16 1.6 3.8 0.76 5.24-1 1.6-3.36 1.84-4.92 1.32-0.8-0.28-1.52-0.88-2.2-1.36-0.4-0.28-0.88-0.4-1.16 0.08-0.16 0.24-0.24 0.52-0.32 0.76-0.28 1-0.64 1.92-0.68 3-0.04 1.24 2.32 1.6 3.2 1.8 3.92 0.92 8.64 0.2 10.68-3.68 0.4-0.8 0.68-1.64 0.84-2.52 0.04-0.32 0.08-0.6 0.08-0.92 0.16-2.56-0.88-4.72-2.44-6.64-1.68-2.08-3.8-3.52-5.76-5.32-1.2-1.12-1.64-2.88-1.28-4.48 0.36-1.72 2.32-2.16 3.8-1.72 0.44 0.12 0.8 0.32 1.2 0.56 0.24 0.12 0.48 0.28 0.8 0.28 0.56 0.04 0.64-0.4 0.76-0.84 0.28-1 0.76-1.8 0.96-2.76 0.2-1.08-0.68-1.28-1.56-1.56-1.04-0.28-2.04-0.48-3.12-0.44zm28.422 1.12c0.12 0.56 0.04 27.2 0.04 27.88 0 1.2-0.44 1.16-1.24 1.16-1.2 0-2.88 0.2-3.24-0.2-0.32-0.28-6.24-14.56-7.08-16.36-0.08-0.16-0.28-0.56-0.44-0.48-0.2 0.08-0.12 0.36-0.12 0.52-0.04 1.4 0.2 13.48 0.2 15.4 0 0.96-0.04 1.12-0.84 1.12h-2c-0.52 0-1.16-0.04-1.68 0.04-0.4 0-0.6-0.12-0.64-0.52v-3.16c0.08-3.36 0-23.28 0-24.76 0-1.28 0.36-1.52 1.64-1.52 0.88-0.04 1.76-0.04 2.64-0.04 0.28 0 0.44 0.04 0.6 0.4 1.08 2.52 5.68 14.08 6.4 15.48 0.12 0.28 0.56 1.4 0.8 1.52h0.04c0.16-0.16 0.12-0.96 0.12-1.2 0-0.6-0.32-14.64-0.32-14.92 0-0.4-0.12-0.76 0.08-1.04 0.12-0.16 0.64-0.2 0.84-0.24 1.12-0.08 2.44 0.04 3.56 0 0.56 0 0.52 0.4 0.64 0.92z"/>
</g>
</g>
</svg>
