<?xml version="1.0" encoding="UTF-8"?>
<svg width="400" height="400" version="1.1" viewBox="0 0 105.83 105.83" xmlns="http://www.w3.org/2000/svg" xmlns:cc="http://creativecommons.org/ns#" xmlns:dc="http://purl.org/dc/elements/1.1/" xmlns:rdf="http://www.w3.org/1999/02/22-rdf-syntax-ns#">
<metadata>
<rdf:RDF>
<cc:Work rdf:about="">
<dc:format>image/svg+xml</dc:format>
<dc:type rdf:resource="http://purl.org/dc/dcmitype/StillImage"/>
<dc:title/>
</cc:Work>
</rdf:RDF>
</metadata>
<g transform="translate(0 -191.17)">
<circle cx="52.917" cy="244.08" r="52.917" fill="#00509d" image-rendering="optimizeQuality" stroke-width=".39488"/>
</g>
<g fill="#fffafa" aria-label="N">
<path d="m16.162 105.83q-7.4292-2.2157-10.036-4.3011-2.6067-1.955-2.6067-5.4741 0-3.9101 1.8247-10.948 1.8247-7.1685 4.6921-15.901 2.9977-8.7326 6.7775-18.247 3.7798-9.5146 7.6899-18.247t7.5595-15.901q3.7798-7.2989 6.6472-11.339l-0.91236-5.4741q1.8247 0 5.0831 0.91236 3.2584 0.91236 6.5168 2.2157 3.3888 1.3034 5.8651 2.7371 2.6067 1.3034 2.8674 2.2157-0.65168 3.1281-1.0427 9.5146-0.39101 6.2562-0.39101 13.425 0 14.207 1.0427 27.892 1.173 13.555 5.2135 27.631 2.0854-10.427 4.4314-20.724 2.4764-10.427 5.0831-19.811 2.6067-9.5146 5.2135-17.595 2.6067-8.0809 4.9528-14.076 2.4764-6.1258 4.5618-9.5146 2.0854-3.5191 3.7798-3.7798 1.4337 0.26067 3.1281 1.173 1.6944 0.78202 3.2584 1.955 1.564 1.173 2.8674 2.6067 1.3034 1.4337 2.0854 2.8674-4.1708 1.6944-8.3415 7.9505-4.0404 6.2562-7.8202 15.249-3.6494 8.8629-6.9078 19.29-3.1281 10.427-5.6045 20.593-2.3461 10.036-3.7798 18.638-1.3034 8.6022-1.4337 13.816 0 0.26067 0.13034 0.39101-0.39101 0.13034-0.91236 0.13034-0.39101 0-0.78202 0-5.9955 0-10.688-1.564-4.5618-1.4337-5.9955-4.1708-2.7371-10.948-4.5618-21.115-1.8247-10.166-3.1281-20.333-1.173-10.166-1.955-20.463-0.65168-10.427-1.0427-21.766-2.4764 3.9101-5.2135 10.297-2.7371 6.2562-5.3438 13.816-2.6067 7.5595-5.0831 15.901-2.3461 8.3415-4.1708 16.292t-2.8674 15.119q-1.0427 7.0382-1.0427 12.252 0 2.7371 0 3.9101 0.13034 1.173 0.39101 1.955z" fill="#fff" stroke-width=".61095"/>
</g>
</svg>
