<?xml version="1.0" encoding="UTF-8"?>
<svg version="1.0" viewBox="1.3 6.17 1278.4 1206.8" xmlns="http://www.w3.org/2000/svg">
<metadata>Created by potrace 1.15, written by Peter Selinger 2001-2017</metadata>
<g transform="translate(0 1214) scale(.1 -.1)" fill="#00509d">
<path d="m6278 12064c-81-19-138-50-138-74 0-27-22-25-95 6-85 36-139 53-215 65-70 11-194 3-185-12 4-5 14-9 24-9s30-9 44-20c44-35 146-89 190-101 60-16 119-48 114-62-2-7-39-24-83-38-118-39-204-77-257-115-26-19-49-34-51-34s-9 20-16 44c-11 41-10 47 8 71 12 14 26 42 33 62 10 31 9 37-10 57-18 18-36 22-112 25-127 4-136 1-137-51 0-79-12-118-37-124-35-9-63 4-80 36-8 15-20 30-27 33-10 4-10 6 0 6 28 2 9 19-27 25-22 3-55 15-73 25s-49 22-69 25c-40 7-161-7-205-25l-29-11 34-14c19-8 32-16 30-18s-58-22-124-43c-120-38-165-43-165-18 0 44 24 66 157 146 167 100 182 111 183 127 0 17-69 16-164-3-90-17-144-39-223-93-32-21-74-47-93-57s-64-40-99-67c-66-50-95-63-128-56-15 3-12 9 19 42 21 22 38 45 38 53 0 7 18 33 40 57s40 47 40 51c0 21-224-36-300-76-19-10-69-56-110-103-62-70-84-88-125-102-27-9-72-28-98-41-86-43-59-19 34 31 50 26 88 50 85 53-8 8-117-27-199-64-75-35-78-35-97-18-18 16-25 17-63 5-65-19-177-75-259-128-40-27-118-78-173-114-143-94-386-292-419-343-30-46-121-106-165-109-23-2-41-1-41 1s7 15 16 29c39 59-18 34-120-53-91-77-125-126-128-182-1-32-9-53-28-75-195-226-369-461-450-610-45-82-89-140-90-118 0 6-7 12-16 12-14 0-15 8-9 48l7 47-32-30c-91-86-200-257-200-315 0-16 6-35 14-43 13-12 11-19-12-54-33-49-140-170-250-283l-84-85 17 45c27 69 188 401 246 503 77 136 314 448 518 682 38 44 68 82 66 84-25 24-382-396-581-682-66-95-87-119-54-62 79 136 302 444 458 635 39 47 68 87 65 90-2 3-46-38-97-90-158-162-382-478-592-832-54-92-100-166-102-164-1 2 22 57 52 121 67 142 165 307 304 514 57 84 101 155 99 157-2 3-39-37-81-88-147-177-308-440-468-763-127-257-117-207 18 89 30 65 53 120 51 123-8 7-104-151-162-267-111-221-244-591-260-724-9-77-24-109-47-103-33 9-96-125-157-338-36-125-46-176-32-155 8 12 11 7 11-22 0-50 14-55 51-18 29 28 31 29 25 8-33-122-94-548-116-817-13-161-25-194-35-97-9 78-1 229 21 434 9 79 14 146 11 148-6 7-45-165-62-281-26-169-39-500-28-675 9-140 6-189-11-162-3 5-11 53-17 106-8 64-15 92-21 84-13-18-1 372 17 557 27 278 26 263 15 231-12-37-39-246-49-386-5-69-9-86-10-50-2 106 39 474 75 664 19 97 11 112-9 19-60-266-96-614-107-1038l-7-280-1 261c-2 316 11 499 63 884l5 35-10-31c-42-133-100-833-100-1200 0-560 129-1207 361-1811 32-85 75-209 93-276 73-256 144-443 242-639 24-48 42-88 39-88-7 0-109 205-177 358-186 421-316 810-406 1222-52 235-52 236-46 170 7-69 63-327 109-496 102-376 278-832 465-1204 34-67 59-124 57-126-7-7-169 317-245 491-272 623-428 1225-503 1939-17 173-18 176-14 64 3-65 14-189 25-275 118-926 418-1766 922-2580 11-18 17-33 14-33-2 0-36 51-74 113-389 630-659 1317-806 2057-19 96-38 199-42 228s-9 50-12 48c-6-7 12-122 49-311 113-570 319-1153 589-1673 44-84 80-155 80-158s-5-2-11 1c-6 4-1-11 10-34 12-23 24-41 26-41 3 0-2 14-10 31-32 61-7 39 30-26 20-37 34-69 32-72-3-3-13 9-22 26-8 17-18 31-21 31-13 0 151-269 283-465 426-628 994-1201 1458-1472 66-38 197-119 290-178 453-288 787-473 1080-598 72-31 171-73 220-95 145-64 320-114 244-70-12 7-70 45-128 84s-139 90-179 113c-41 24-71 45-69 47 3 3 90-31 193-76 465-201 596-255 696-288 59-20 107-37 105-38-8-9-389 86-497 124-11 3-12 2-5-6 16-17 234-87 412-131 282-71 529-112 858-143 97-9 125-14 90-16-127-8-656 50-880 97-49 10-92 17-93 15-15-13 369-95 598-128 223-32 435-46 725-47 212-1 226-2 180-14-27-8-85-17-129-21-156-14-40-24 264-24 386-1 575 16 619 53 25 22 130 44 316 67 94 11 226 27 295 36 403 49 719 125 1069 256 150 56 373 149 368 154-2 2-68-21-147-52-197-75-633-204-646-192-2 3 40 18 93 33 468 132 997 358 1419 606 96 57 324 207 324 214 0 2-53-29-117-69-216-134-450-263-492-271-9-2-81-30-161-63-188-78-356-141-501-186-169-53-158-43 21 18 311 106 640 248 834 360 64 37 118 71 121 75 2 5-66-27-153-70-321-159-669-293-946-365-94-24-178-44-186-43-8 0 66 28 165 63 221 77 426 162 627 260 84 41 182 86 218 101 155 65 414 199 525 273 129 85 188 137 95 83-30-17-100-56-155-85-197-106-193-82 8 49 376 246 471 310 568 387 282 221 567 486 742 692 132 154 152 186 41 66-164-178-419-425-569-550-163-136-384-305-390-298-2 2 46 44 108 93 413 331 723 640 1023 1021 155 196 374 517 361 530-2 2-43-54-91-126-113-168-266-372-402-535-180-217-681-705-836-817-59-41-23-6 111 110 399 347 773 766 1038 1162 86 130 89 135 75 126-6-3-40-48-76-100-425-609-986-1165-1556-1541-121-80-280-172-280-162 0 3 22 19 49 37 78 49 83 66 11 31l-65-32 35 30c19 16 35 38 35 47 0 13 33 33 120 72 65 30 161 80 212 111 95 57 248 176 257 199 3 7-36-9-87-37-92-50-161-80-142-63 6 5 75 46 155 92s185 110 234 144c86 58 306 258 306 278 0 12-12 4-202-123-148-100-254-163-228-137 8 8 83 69 165 135 222 179 329 274 544 486 361 358 580 617 670 795 12 24 20 46 18 48-3 3-42-42-88-100s-85-104-86-102c-2 1 47 86 108 187 294 489 525 1033 659 1554 47 181 93 400 88 416-2 7-12-26-22-72-57-270-199-758-251-864-19-37-14-19 36 125 88 255 158 511 208 770 33 169 64 380 57 387s-14-24-47-217c-54-318-110-543-214-855-64-192-185-508-192-501-2 2 19 61 48 132 78 196 172 487 228 704 54 214 96 409 87 417-2 3-9-12-14-33-5-22-35-143-66-271-30-127-87-325-125-440-69-208-170-477-177-471-2 2 15 51 38 109 44 114 158 446 158 462 0 23-13-9-74-179-106-298-170-446-242-557-36-56-110-176-163-267-94-160-249-400-258-400-3 0 5 17 17 38 54 90 164 289 204 369 24 49 67 132 96 186 28 53 47 97 42 97s17 64 50 142c76 183 149 401 199 595 40 156 61 307 41 288-12-12-85-220-108-309-15-60-141-325-131-276 18 86 20 103 8 95-7-4-70-125-141-268-118-241-257-498-282-522-8-7-9-6-4 3 4 6 3 12-2 12-4 0-41-38-82-85s-75-85-77-85c-1 0 35 55 81 123 91 132 325 536 412 709 106 211 245 559 244 611-1 12-36-66-79-173-72-182-229-509-266-555-9-11 4 21 28 70 109 221 228 527 292 746 19 67 35 126 35 132 0 33-25-27-80-193-76-229-152-421-236-598-72-151-134-266-140-259-2 2 12 39 32 83 76 166 187 445 240 600 89 266 59 234-47-48-99-267-293-707-306-694-3 2 21 64 53 138 72 168 104 254 104 276 0 29-38-42-132-248-49-107-118-249-154-315-61-115-124-204-124-176 0 8-6 11-16 7-12-5-11 2 6 30 46 74 10 39-75-73-145-191-272-343-349-418-39-38-122-127-184-197-63-71-120-128-127-128s-86-69-175-152c-89-84-206-186-259-227-145-111-554-381-506-333 6 5 53 38 105 72 123 82 435 321 548 418 115 101 356 336 395 387 17 22-45-34-138-124-173-167-324-300-412-360-44-30-45-30-17-4 17 15 79 70 137 122 161 140 498 500 539 575 20 37-13 4-166-167-160-179-282-301-449-450-169-149-169-138-1 25 143 140 310 319 352 379 37 54-29-8-226-211-115-118-265-264-334-324-141-122-233-186-123-86 125 115 256 244 278 275l22 30-30-22c-17-11-106-89-199-172-358-322-635-508-959-647-120-52-115-40 13 27 215 112 789 511 921 639 80 77 43 54-146-94-165-129-455-321-455-302 0 2 32 28 72 58 162 120 299 248 266 248-8 1-6 6 6 15 11 8 17 17 14 20s-47-25-99-63c-92-66-229-160-259-177-34-19 10 15 95 73 121 82 278 209 286 230 4 10 27 34 53 53 25 18 46 38 46 42 0 13-60-25-197-124-107-78-159-109-180-109-3 0 27 34 66 76 67 72 82 94 63 94-21 0-138-86-210-153-43-40-110-96-149-124l-71-52 24 42c29 52 32 87 5 87-10 0-51-17-92-38-70-35-75-40-88-85-17-55-78-114-155-148-50-22-64-19-119 27-34 29-33 29-99 4-84-32-84-32-54-78l26-42-33-17c-26-14-58-17-162-18-125 0-184-12-170-34 2-5-6-16-19-25-14-8-40-39-60-68-45-69-90-111-112-106-12 2-22 18-29 48-11 44-13 45-48 44-45-2-77-28-77-63-2-68-15-79-184-147-87-35-160-63-162-61s46 31 106 66c60 34 112 66 115 72 4 5-7 9-23 9-17 0-62-20-111-50-45-28-85-50-87-50-3 0 6 15 20 33s29 51 34 73l8 39 64 7c102 11 160 28 160 45s-24 16-196-3c-53-6-62-4-68 11-3 10-5 19-4 21 2 1 82 18 178 38 256 53 344 77 348 99 5 25-21 22-205-17-280-61-401-73-379-38 3 5 117 37 254 71 136 35 255 67 263 72 12 8 12 10-1 19-25 16-69 12-249-25-94-19-175-35-181-35-5 0-10 9-10 19 0 14 11 23 38 32 55 17 57 21 29 36-25 13-26 14-11 48 17 42 14 51-23 58-50 10-84-3-105-40-20-34-63-63-93-63-14 0-14 3-1 22 9 16 12 38 7 73-7 56-29 75-93 75-50 0-68-9-68-34 0-11-6-41-14-66-11-40-17-45-44-48s-32 1-38 23c-4 15-24 47-45 72-22 24-39 51-39 58 0 22-34 35-95 35-40 0-57-4-61-15-10-25 4-61 41-109 19-26 35-48 35-51s-11-5-24-5c-16 0-47 25-104 85-78 83-81 85-126 85-35 0-46-4-46-15 0-27 26-80 57-116 26-30 53-86 53-110 0-15-27-10-143 27-138 44-154 57-65 49 37-4 75-2 84 3 14 8 11 12-17 29-54 33-95 42-249 53-80 6-212 22-295 35-82 13-172 27-200 31-27 4-63 14-80 23l-30 15 25 4c14 3 152 2 308 0 155-2 282-1 282 3 0 18-98 69-158 83-96 22-396 58-542 65-119 6-150 12-150 30 0 5 46 15 103 24 79 12 122 13 192 6 115-12 127-8 89 32-38 39-112 74-231 106-107 29-236 34-452 18-121-9-121-9-121 82 0 34-5 74-10 89-6 15-8 35-4 46 7 22 60 48 99 48 14 0 25 4 25 9 0 32-179 179-245 201-43 14-62 2-79-52-6-18-17-33-25-33-17 0-156 254-201 368-36 90-76 279-110 511-26 187-45 277-69 330-20 46-45 71-61 61-22-13-1-420 29-575 10-52 17-97 16-99-8-8-27 14-49 57-45 90-113 456-126 682-6 91-13 184-16 206-8 56-38 104-65 104h-22l5-262c6-284 14-344 78-568 16-57 28-106 25-108-11-11-36 10-53 45-23 45-100 276-141 424-32 118-44 189-65 390-15 146-25 179-56 179-14 0-21-9-25-33-16-81 43-463 101-663 13-47 21-90 18-96-4-6-10-25-14-42-6-30-8-29-47 49-22 44-64 145-93 225-62 171-77 203-93 197-19-7-10-87 22-189 21-67 31-123 35-198 3-58 12-132 21-165 8-33 21-118 29-190 12-108 23-157 68-292 51-154 57-183 28-148-7 8-19 15-27 15-16 0-105 180-148 300-31 88-89 319-110 440-8 47-24 166-35 265-23 210-35 271-57 304-15 24-17 24-24 6-31-80 24-599 86-800 19-63 19-88 0-55-41 70-95 294-145 590-6 36-15 176-20 313-9 251-18 302-50 302-23 0-32-105-25-300 7-223 20-345 51-483 14-63 23-116 21-118-2-3-9 12-14 33-6 21-41 142-77 268-63 216-68 240-82 404-15 173-25 216-47 208-17-5-21-159-7-292 16-162 83-468 134-618 24-73 43-133 42-135-11-10-110 265-200 561-20 64-40 117-45 117-13 0-19-56-17-155 3-107 25-181 128-425 59-141 179-378 298-590 49-86 2-22-99 138-121 189-185 306-262 475-34 75-67 137-72 137-17 0 1-96 32-172 77-183 296-543 462-758 66-85 127-168 136-184 23-44-132 99-227 209-97 112-130 144-130 124 0-29 76-143 147-219 40-43 73-82 73-87 0-16 157-241 238-343 42-52 126-149 187-215 136-148 64-93-101 77-131 135-227 249-349 416-50 68-95 120-102 117-7-2-21 8-33 22-31 40-36 19-6-31 68-116 312-404 500-590 75-74 100-103 66-76-89 71-369 357-460 470-121 153-166 225-249 410-126 280-191 479-245 745-40 195-49 299-43 493 4 154 9 193 35 297 57 223 122 387 191 482 24 33 34 40 53 36 36-9 67-43 103-113 22-43 68-101 134-172 56-59 109-124 117-145 15-35 17-36 30-18 19 25 18 109-2 176-9 29-40 100-70 157-50 95-63 132-48 132 4 0 25-15 48-33 39-32 193-97 229-97 39 0 50 93 17 148-11 17-43 47-72 66s-70 55-91 80c-36 44-37 46-15 47 13 0 79 6 147 13 138 14 154 23 167 92 14 75-17 94-155 94-85 0-161 27-161 57 0 44 19 69 87 115 74 51 117 69 205 87 65 14 88 35 95 88 8 58-8 67-94 52-37-6-85-18-105-25l-38-13v28c0 16 3 49 6 74 6 42 11 50 55 77 75 49 100 37 260-115 72-69 135-125 139-125 15 0 50 52 50 74 0 12-12 40-28 63-15 22-49 74-76 114-26 41-60 86-74 102-25 26-25 27-4 27 15 0 46-30 104-102 46-56 109-130 141-163l59-60 29 33c36 41 37 68 1 118-15 21-52 81-82 132-36 64-71 109-107 140-29 25-53 49-53 54 0 40 149-59 241-161 35-39 72-71 81-71 22 0 58 47 58 75 0 54-154 238-242 289-62 37-63 37-23 31 44-8 88-29 159-80 44-32 51-34 70-22 12 8 25 27 31 42 9 26 5 32-62 95-54 50-90 74-140 94-37 15-105 43-150 63-72 32-80 38-70 54 8 13 9 26 1 46-15 39-96 161-143 215-30 34-37 48-29 56 20 20 35 14 110-48 146-120 160-133 190-186 34-61 55-68 93-29 30 29 31 39 4 110-28 74-87 146-170 207-64 47-78 68-43 68 8 0 52-25 99-55 58-37 99-73 131-115 51-64 77-75 107-42 24 26 21 42-14 108-41 78-90 137-147 176-61 41-222 160-222 164 0 10 122 37 240 54 144 20 184 31 212 57 16 14 20 13 52-11 19-14 46-49 60-78 33-69 81-250 100-377 24-159 55-199 118-156 45 31 49 53 41 260-7 189-3 215 33 215 19 0 28-8 40-35 7-19 14-43 14-54s11-56 25-100c14-45 35-135 46-202 21-131 29-153 60-170 32-17 97 30 101 73 6 62-31 312-59 398-34 104-34 106-3 102 35-5 45-15 113-117 59-88 97-162 152-298 36-89 59-101 111-62 34 26 36 30 32 74-3 29-32 105-79 206-58 125-85 172-126 217-66 72-69 93-12 84 88-14 163-66 247-174 34-42 78-88 97-101 31-21 39-22 60-11 13 7 27 20 30 28 8 21-29 92-74 144-20 23-56 68-78 99-46 63-91 100-176 149-42 23-86 63-153 139-104 118-167 171-270 228-38 20-97 59-131 85-173 130-456 231-759 268-49 6-94 16-101 22-12 9-170 3-408-18l-60-5 91 48c55 29 89 53 87 61-7 18-40 14-118-13-92-33-98-32-77 5 20 36 16 34 167 60 159 27 254 18 410-41 157-59 191-65 280-52 121 17 130 39 36 99l-56 36 75-7c180-16 341-57 478-122 59-28 79-44 114-91 23-31 92-109 153-172 94-96 115-125 134-175 70-191 115-288 144-306 57-34 69-5 42 106-16 66-20 165-6 165 16 0 117-310 141-432 9-43 19-63 41-83 36-29 42-30 59-10 11 13 11 38 1 133-7 64-19 152-27 195-8 44-14 85-12 93 8 39 42-22 94-166 60-170 84-265 84-340 0-38 5-54 22-70 46-42 71-21 83 73 4 30 11 47 20 47 7 0 20 2 27 5 10 4 18-7 27-34 13-46 44-69 67-50 10 8 14 33 14 80 0 61 3 70 24 84 47 31 63 7 91-144 21-114 19-168-12-455l-27-249 24-19c24-20 25-20 40 0 13 15 82 275 116 430 6 29 22 28 30-3 7-29-6-112-51-331-19-88-37-194-41-236-6-69-5-77 15-97 11-11 25-21 31-21 15 0 37 41 45 85 3 22 26 105 51 185 26 87 49 187 56 249 13 101 29 136 42 89 15-57-1-310-29-462-19-99-19-140 0-156 20-16 50-4 64 26 29 65 74 331 80 479l6 150 15-55c9-38 14-113 14-237 1-128 5-186 13-194 17-17 40 4 53 50 13 49 28 206 24 261-1 25-8 142-14 260-13 241-27 325-71 432-17 40-28 82-25 93 22 91 127 305 150 305 24 0 68-59 76-100 4-24 6-128 3-234-4-174-10-235-44-451-13-83-2-139 34-173 47-44 77-5 102 134 9 49 28 148 42 219 16 85 26 170 27 247 1 65 6 121 10 125 9 10 35-7 58-38 27-36 46-205 53-479 6-211 5-247-14-353-25-141-26-169-6-206 19-38 43-46 67-24 33 30 47 66 66 177 17 93 24 110 53 143 19 21 43 57 53 81 14 30 22 39 28 30 5-7 6-103 2-214-6-197-6-202 15-223 17-17 25-19 41-11 19 10 20 8 18-79-3-75 0-93 15-108 16-17 18-16 42 8 19 18 32 52 50 129 52 224 75 341 75 377 0 58 15 72 31 31 11-25 14-110 14-378 0-190 4-351 8-357 13-21 44-15 66 12 30 39 41 111 48 304 9 245 21 263 23 36 2-210 6-239 36-243 46-7 70 88 80 314 6 137 8 151 24 147 28-7 65 48 95 143 35 111 99 247 91 194-3-19-8-62-11-95s-17-147-32-252c-29-206-27-245 13-251 35-5 52 52 94 313 42 258 61 324 84 287 2-4 10-73 17-152 9-109 9-183 1-295-11-151-7-185 23-185 8 0 22 14 30 30 22 43 39 290 31 473-3 84-1 145 4 142 18-11 69-193 85-299 8-59 18-112 21-117 11-18 25-8 39 26 12 28 13 52 5 132-12 120-35 247-60 333-10 36-26 130-35 210-8 80-28 201-44 270-21 96-26 132-18 154 14 40 2 151-23 227-19 56-55 139-145 334-23 50-22 50 100-70 67-66 151-158 185-204 35-46 91-114 125-150l63-66 22-150c13-90 22-194 21-260-1-102 10-165 29-165 17 0 24 43 29 200 4 92 10 154 14 140 18-65 59-366 73-530 7-93 19-129 37-111 20 20 20 181-2 363-12 97-21 184-20 195 1 31 37-93 79-282 23-99 46-184 51-189 19-20 32 13 31 77-1 44-27 167-87 401-47 185-85 342-85 349 1 25 109-193 160-320 29-73 57-133 63-133s8 28 4 73c-5 81-38 165-163 426-41 85-74 160-74 168 0 24 59-28 106-94 64-90 80-84 46 18-20 60-120 213-192 293-25 28-81 108-123 178-116 190-341 481-538 696-49 53-114 129-145 167-73 90-313 328-429 426-125 105-260 204-394 288-130 81-153 99-66 52 106-58 366-236 505-347 132-105 341-307 547-529 56-61 102-105 102-99 2 21-171 225-295 349-214 215-414 375-669 535-100 63-155 104-80 60 323-190 592-398 835-645 52-53 113-111 135-128l40-32-24 35c-46 66-326 337-454 439-304 241-739 489-1089 621-49 19-86 35-84 37 7 7 271-95 426-163 302-134 560-288 781-466 154-123 174-141 243-223 115-135 226-242 201-192-12 21 67-72 126-150 105-139 219-348 318-583 66-157 99-221 118-227 13-5 4 43-25 127-29 82-139 337-173 400-17 30-23 46-14 35s39-60 67-110c28-49 61-105 75-123 26-35 105-191 150-295 47-111 104-288 148-464 44-170 63-225 87-239 18-12 3 96-36 247-71 276-184 574-294 777-24 46-42 85-39 88 12 13 151-240 239-436 127-281 192-475 238-710 23-115 42-170 60-170s11 97-16 222c-14 68-62 232-106 366-65 199-96 274-169 417-49 96-87 175-85 175 7 0 137-232 196-350 61-122 124-282 170-430 38-125 58-166 72-152 23 23-54 293-142 497-203 466-347 717-561 973-43 51-60 78-48 75 22-6 23 0 7 30-10 20-10 21 6 8 9-8 66-87 126-176 103-153 170-231 178-206 9 27-232 389-385 579-42 51-118 137-170 192s-90 100-84 100c20 0 242-230 367-380 203-245 291-371 411-591 78-143 106-185 135-200 18-10 19-8 14 13-13 45-127 265-193 371-160 254-283 410-513 651-52 55-81 90-65 79 40-28 227-222 336-348s235-300 319-439c75-125 120-188 138-194 22-7 13 23-38 124-66 129-198 326-324 483-220 276-623 641-941 853-49 33-92 62-95 65-9 9 53-21 189-90 123-62 151-71 151-46 0 15-69 87-120 124-28 20-113 60-201 94-85 32-215 84-289 116-166 70-477 161-602 175-82 10-381 52-448 64-14 2 88 3 225 3 138-1 256 2 263 6 21 14-12 43-76 67-54 21-64 21-293 11-225-11-299-8-299 9 0 8 16 13 94 26 46 8 146 63 146 80 0 10-34 30-80 47-8 3-3 6 13 6 33 1 375-84 540-134 64-19 120-35 124-35 5 1-2 9-15 20-29 24-133 58-432 142-135 37-222 65-195 62 82-10 387-63 425-74 19-5 46-10 60-10l25 1-25 14c-88 51-223 81-625 139-94 14-182 29-195 34-21 8-19 10 25 21 47 12 197 9 313-5 112-14-18 43-152 67-42 7-144 10-276 7-169-3-211-1-215 10-8 21-8 20 35 33 71 21 45 42-73 58-91 13-76 13-149-5zm-1218-310c42-19 51-27 40-34-20-13-59-12-139 1-98 17-102 20-41 40 72 23 76 23 140-7zm1778-21c79-6 82-7 66-24-9-10-40-27-69-38s-68-29-86-40c-24-15-51-21-89-21-64 0-85 10-76 36 3 11-3 32-14 49s-20 33-20 38c0 9 175 9 288 0zm-461-40c1-10 3-27 5-38 5-32-68-33-129-1-51 26-50 28 22 45 68 15 101 13 102-6zm-2460-27c-6-15-113-59-131-53-6 2 21 20 59 39 72 37 81 39 72 14zm943 8c44-9 19-24-40-24-42 1-44 2-26 15 23 17 23 17 66 9zm1251-42c13-11 20-25 17-34-9-23-244-119-316-129-34-5-88-18-120-28-31-11-58-18-60-16-8 7 96 54 168 75 88 27 108 40 60 40-32 1-33 2-15 12 22 13 226 97 236 98 4 0 17-8 30-18zm-1061-77c63-20 153-56 200-80s120-55 163-70 76-29 75-31c-5-4-379 83-448 105-72 23-87 33-113 73-20 32-22 49-4 43 6-2 64-20 127-40zm-1725-73c-14-13-266-177-292-191-62-32 19 44 144 137 67 49 93 62 121 62 20 0 32-4 27-8zm1410-39c59-7 39-9-120-13-185-5-225-1-225 22 0 11 204 6 345-9zm2065-48c177-21 331-48 510-91 189-45 244-64 430-146 291-130 520-261 640-367l45-40-115 60c-362 190-608 283-1025 387-500 126-756 161-1245 172-173 3-294 7-269 8 26 1 71 7 100 13 106 21 248 27 519 24 164-2 329-10 410-20zm-2037 8c-40-2-107-2-150 0-43 1-10 3 72 3 83 0 118-2 78-3zm847-17c0-2-7-7-16-10-8-3-12-2-9 4 6 10 25 14 25 6zm443-33c-18-2-48-2-65 0-18 2-4 4 32 4s50-2 33-4zm-718-24c-508-72-896-161-1238-284-73-27-91-31-67-15 46 29-34-1-246-95-130-58-239-104-241-102-5 6 224 113 372 173 129 52 167 64 135 44-30-19 10-10 97 24 307 117 684 207 1048 250 72 9 144 17 160 19 103 13 87 1-20-14zm468 14c-13-2-35-2-50 0-16 2-5 4 22 4 28 0 40-2 28-4zm405 0c-15-2-42-2-60 0s-6 4 27 4 48-2 33-4zm-1243-19c-60-7-158-21-218-30-59-9-110-14-113-12-4 5 110 24 286 47 36 5 85 9 110 8 25 0-4-6-65-13zm645-37c0-6-11 0-25 13s-25 28-25 33c0 6 11 0 25-13s25-28 25-33zm109 34c25-5 49-8 53-5s8 0 8-7c0-8 4-8 15 1 9 7 18 10 22 6 3-3 0-6-8-7-8 0-3-5 10-10 16-6 28-6 35 1 5 5 15 10 21 10 5 0 3-5-5-11-11-8-8-9 15-5 19 4 25 3 17-2-10-7-4-11 20-15 18-3 42-8 53-12 14-4 12-2-5 8l-25 15 28-1c15-1 27-5 27-9s7-5 15-2c8 4 15 1 15-5s-8-11-17-12c-15 0-15-2 2-9 11-5 27-9 35-9 9 0 7 4-5 9-38 15 10 22 72 10 227-46 484-147 716-283 127-74 225-122 233-114 6 6-122 88-238 153-48 27-86 50-84 51 5 6 152-66 279-136 175-97 339-209 492-336 55-46 170-125 181-125 31 0-246 226-410 335-61 40-155 97-208 125-54 28-98 54-98 56 0 13 248-122 395-215 170-107 329-229 486-373 147-135 207-184 214-176 9 9-126 148-239 245-141 121-266 215-383 288-97 59-128 87-45 40 174-100 410-273 562-411 115-104 180-157 186-151 7 7-114 131-211 217-66 58-33 39 90-54 163-124 212-171 234-230 11-31 23-67 27-81 11-44-33-30-146 46-58 38-127 82-155 96-27 14-106 67-175 118-496 367-986 620-1555 805-105 34-228 75-273 91-46 16-88 26-93 23s-9-1-9 5-6 8-14 5c-13-5-233 50-245 61-3 4 5 4 19 1s45-10 69-15zm340-1c515-69 954-206 1339-419 183-101 191-113 17-27-82 41-199 95-260 119-60 25-140 59-177 76-184 82-603 189-923 235-250 36-234 33-189 35 23 0 110-8 193-19zm430-5c203-30 365-63 546-111 140-37 378-114 373-120-2-2-62 15-133 37-290 90-599 158-900 198-77 10-122 19-100 20 22 0 118-10 214-24zm-3089 10c0-7-177-95-190-95-18 0-2 18 52 60 41 33 58 40 94 40 24 0 44-2 44-5zm2039-23c-54-35-109-89-109-107 0-8 25-31 57-51 31-21 72-55 92-75 47-48 77-62 114-55 21 4 106-15 286-65 353-99 516-155 646-222 47-25 48-26 20-26-51-1-161 18-349 59-99 22-233 46-296 54-125 17-411 95-538 148-50 21-92 47-124 78-42 41-48 51-48 88 0 45-2 43 110 114 66 42 157 88 174 88 6 0-10-13-35-28zm-1854-2c-4-12-1-27 5-35 14-17 0-25-98-54-40-12-161-53-268-92-107-38-198-69-202-69s27 19 68 42c41 22 113 65 160 93 158 98 235 131 313 134 24 1 27-2 22-19zm1028-27c-7-2-21-2-30 0-10 3-4 5 12 5 17 0 24-2 18-5zm-60-10c-7-2-19-2-25 0-7 3-2 5 12 5s19-2 13-5zm-50-10c-7-2-19-2-25 0-7 3-2 5 12 5s19-2 13-5zm-50-10c-7-2-19-2-25 0-7 3-2 5 12 5s19-2 13-5zm-484-37c-2-3-51-16-109-31-58-14-142-38-188-51-46-14-86-24-88-22-4 5 236 82 301 97 43 10 91 14 84 7zm2139-122c20-9 82-32 137-51 146-51 435-168 550-223 110-52 334-198 543-353 72-54 132-100 132-102s-64 37-142 87c-387 248-703 409-1143 583-147 58-275 119-275 130 0 4 140-46 198-71zm-2230 11c-2-3-76-31-164-64-439-162-885-385-1300-647-77-48-150-94-164-102s27 37 90 98l115 113 255 125c429 209 642 300 1005 428 144 51 174 60 163 49zm252-14c-8-5-26-11-40-15-21-5-20-3 5 9 32 15 60 20 35 6zm460-41c-19-16-38-29-42-30-4 0-15-14-24-31-22-43-8-70 48-96 23-11 196-57 383-102 426-102 437-106 475-137 30-25 76-42 485-169 122-39 298-116 311-137 3-4-28 8-68 27-177 81-453 163-671 199-355 59-697 73-1271 52-170-6-247-6-243 1 4 6 64 14 134 17 174 10 291 25 333 44l35 16-110 7c-60 3-132 7-160 8-94 4-13 20 158 32 165 12 237 23 237 38 0 9-121 21-213 21-97 0-59 10 73 19 90 6 126 13 138 25 15 15 12 16-33 16-28 1-99 3-160 6-60 2-132 4-160 5h-50l100 51c90 46 313 148 325 148 2 0-11-13-30-30zm-650-10c-8-5-19-10-25-10-5 0-3 5 5 10s20 10 25 10c6 0 3-5-5-10zm-50-20c-8-5-19-10-25-10-5 0-3 5 5 10s20 10 25 10c6 0 3-5-5-10zm-70-27c-19-9-127-61-240-116-262-127-350-168-350-162 0 14 587 294 615 294 6 0-6-8-25-16zm-850-18c0-8-125-74-155-81-48-11-19 9 70 50 87 39 85 38 85 31zm1025-15c-11-5-100-43-197-84-340-145-634-303-1e3 -539-96-62-65-34 58 54 287 203 725 426 1124 572 25 9 37 6 15-3zm-385-35c-14-8-29-14-35-14-5 0 1 6 15 14s30 14 35 14c6 0-1-6-15-14zm4077-141c150-94 317-213 426-305 105-89 232-207 172-160-274 216-665 495-797 570-32 18-58 35-58 38 0 8 138-69 257-143zm-4302 32c-99-51-247-132-330-179-82-47-175-99-205-117-59-33-134-90-92-70 43 21 21 1-45-41-38-23-79-49-93-58-51-33-5 11 93 90 127 103 246 181 264 174 8-2 11-1 8 5-3 5 5 14 17 21 22 12 22 11 8-7s-14-18 10-3c122 77 507 277 535 278 6 0-71-41-170-93zm5254-266c29-36 21-32-66 36-128 99-133 105-43 50 42-25 91-63 109-86zm71 53c0-2-18 10-40 27s-40 34-40 37c0 2 18-10 40-27s40-34 40-37zm-1878-23c40-22 69-40 63-40-27 0-210 52-228 65-20 14-18 15 35 15 47 0 69-7 130-40zm-3218-62c-49-37-50-40-9-23 39 15 39 15 16-2-45-33-104-66-97-54 4 6 5 11 2 11-8 0-192-149-276-225-41-37-127-101-190-142-273-179-470-340-786-641-263-251-395-400-682-774-74-96-114-133-209-191-27-16 39 116 110 223 472 704 1171 1326 1975 1756 159 85 198 102 146 62zm5436-268c24-30 33-45 20-34-14 12-53 39-86 60-65 41-198 189-190 210 3 7-2 22-11 35-20 33 211-204 267-271zm-2049 183c165-49 214-76 271-149l21-26-44 23c-24 12-129 57-233 100-275 113-279 130-15 52zm-4377-31c-17-15-97-85-178-156s-168-153-193-182c-47-55-123-121-123-107 1 4 59 73 130 153 114 127 144 155 257 232 70 48 130 87 133 87s-9-12-26-27zm2607-98c734-85 1347-342 1815-762 70-63 57-60-98 25-399 218-746 338-1181 408-184 30-354 45-505 45-62 0-177 8-255 17-194 23-537 23-669 0-118-21-116-21-92-2 18 14 18 14-4 15-13 0-56-13-95-29-40-17-112-37-162-46-49-9-126-25-170-36-90-21-107-23-85-9 60 39 563 147 765 165 88 7 165 24 165 36 0 36-289 13-565-46-182-38-175-37-133-21 62 24 363 84 510 101 158 18 197 25 203 35 9 15-51 21-145 15-123-9-349-40-436-60-100-23-312-65-326-64-18 0 68 39 242 109 249 100 238 98 595 124 103 8 496-5 626-20zm1979-89c110-55 140-75 163-107 16-22 27-42 25-43-2-2-28 12-58 31-30 20-102 62-160 95s-121 73-140 90l-35 30 35-14c19-8 96-45 170-82zm-4640 61c0-5-159-116-166-116-15 0 15 25 83 70 78 51 83 53 83 46zm1435-26c-11-5-92-39-180-76-255-107-452-210-725-378-177-110-333-196-354-196-11 0-41-9-65-20s-46-19-48-17c-10 11 58 50 236 136 325 156 388 221 115 116-142-54-192-66-143-34 37 24 426 195 529 233 87 31 140 76 90 76-29 0-190-53-305-101-135-55-132-54-120-41 13 14 229 107 330 142 44 15 108 39 142 54 57 24 211 61 413 100 87 16 114 18 85 6zm2527-26c77-39 210-127 336-221 61-47 112-87 112-89s-48 27-107 64c-104 65-287 175-403 240-54 31-55 32-22 32 18 0 56-12 84-26zm-3722-18c0-2-8-10-17-17-16-13-17-12-4 4s21 21 21 13zm-45-35c-6-5-75-59-155-121s-183-145-230-184c-121-102-394-370-522-513-60-67-121-129-135-139l-27-17 23 29c113 145 466 494 676 669 126 105 427 330 370 276zm-637-143c-36-40-95-111-133-158-63-79-175-191-175-174 0 21 91 173 125 208 35 36 234 196 244 196 2 0-26-33-61-72zm6523-210 20-28h-30c-17 0-31-4-31-10 0-5-9-10-20-10-25 0-94 86-111 137-6 21-22 59-35 85s-24 53-24 60c1 13 193-182 231-234zm-1233 149c67-42 136-123 148-173 13-52 121-154 146-138 14 9 9 83-7 114-14 28-14 30 3 30 20 0 38-24 203-265 155-227 189-266 189-212-1 32-28 88-102 207-107 175-127 210-120 210 10 0 217-263 311-395 107-150 142-179 126-106-9 43-83 153-247 368-86 113-137 188-131 194 21 21 264-234 405-425 119-160 293-579 313-752 8-77-12-160-54-212-16-21-40-65-52-98-12-32-25-63-29-68-13-13-98 124-105 169-12 77-16 86-54 128-20 23-64 80-97 127-32 47-105 137-161 201-79 91-108 133-133 190-101 238-210 403-544 822-66 84-108 143-94 136 12-7 51-30 86-52zm613-129c14-13 46-48 70-78 42-53 40-52-41 25-47 43-87 83-89 88-5 12 29-7 60-35zm-4339-6c-26-20-229-79-239-69-7 8 0 11 134 52 128 39 135 40 105 17zm-1956-124c-9-13-40-63-70-113-58-95-195-244-181-195 7 24 7 24-12 8-11-10-37-41-58-70-42-59-169-175-246-226-62-42-93-40-97 6-3 28 6 42 64 107 52 57 71 72 81 63 7-6 13-17 13-24 0-43 53 1 212 173 100 108 292 293 304 293 4 0-1-10-10-22zm1800 14c-3-5-42-31-88-59-114-69-276-187-508-368-441-345-692-587-935-905-109-142-110-144-91-96 9 22 14 41 12 43s-28-31-59-74c-244-348-481-834-621-1270-184-577-270-1157-270-1825 0-175-1-316-2-315s-9 71-18 155c-78 745 117 1790 486 2612 157 350 321 629 556 944 40 55 94 140 119 190 100 202 166 307 226 361 102 93 283 216 377 256 49 21 168 79 264 129 114 59 240 115 363 160 103 37 189 69 191 69 2 1 1-3-2-7zm1744-67c96-25 225-62 285-82 274-90 610-271 759-410 71-65 277-344 317-428 21-44 36-81 34-83-1-2-49 32-106 76-193 147-340 232-579 338-36 16-101 49-145 73-135 76-413 199-530 236-60 18-168 48-238 66-141 35-158 52-57 57 111 5 494-103 624-177 28-16 94-56 146-90 131-85 227-111 244-65 8 21-83 115-163 168-89 59-227 127-336 166-181 64-663 170-774 170-17 0-31 4-31 9s39 12 88 16c48 3 92 8 97 11 6 2 51 2 100-1 63-3 142-18 265-50zm3628-173c71-98 146-222 139-229-2-2-26 14-53 35s-71 51-99 66c-68 39-102 72-131 128-30 58-30 58 1 58 15 0 31 9 41 25 9 14 20 23 24 20 5-3 40-49 78-103zm-2270-80c45-30 292-294 367-391 93-122 129-238 102-332-9-30-19-78-23-107s-10-50-14-45c-4 4-20 49-35 98-108 362-249 587-495 790-130 107-131 109-35 61 50-25 109-58 133-74zm2385-321c20-20 56-42 80-51l42-16 28-99c15-55 26-106 25-114-2-9-21 7-48 40-25 30-78 92-118 139-77 88-117 153-106 171 6 11 20 0 97-70zm-5359-123c15-18 23-34 18-36-29-9-194-114-271-172-48-36-132-97-187-135-253-175-426-319-579-486-245-264-376-426-510-628-78-118-125-198-241-416-69-130-66-88 4 52 150 297 252 463 435 702 125 164 167 231 144 231-17 0-102-89-193-200-114-140-268-378-374-578-46-87-65-94-34-14 9 26 59 133 111 239 89 183 178 329 337 553 38 52 76 112 87 132 26 52 227 257 318 325 168 127 384 263 531 336 194 96 273 126 330 127 39 0 50-5 74-32zm2923-354c62-47 113-88 113-92 0-12-30-53-70-98-20-22-42-49-48-59-6-11-13-17-17-13-4 3-33 83-64 177-46 135-55 171-43 171 8 0 66-39 129-86zm-2157-74c76-16 179-50 185-61 8-12-8-40-55-94-33-38-40-54-40-88 0-54-30-105-67-113-122-26-197-50-318-99-77-31-198-76-270-99-252-84-423-157-525-226-82-55-87-57-62-26 22 28 30 76 14 76-38 0-324-275-479-461-59-71-109-126-111-124-7 6 54 110 131 223 81 119 213 241 361 332 97 61 192 143 182 158-7 12-46 3-94-22-51-26-47-19 17 35 78 65 115 129 74 129-11 0-13 3-8 9 27 26 193 116 290 157 61 26 135 59 165 74 57 29 108 75 97 87-28 28-419-146-602-267-98-65-93-63-87-34 10 56 349 283 512 344 19 7 73 30 120 51s114 43 150 48c82 12 347 7 420-9zm2005-180c37-88 38-92 23-123-11-22-17-27-21-17-2 8-21 65-41 127s-36 115-36 118 8 1 18-4c11-6 36-51 57-101zm-5370 78c-4-13-33-68-65-124-77-132-130-253-193-444-74-220-212-456-277-473-34-9-40 28-40 228 0 178 1 189 37 337l37 153 10-60 11-60 50 2c27 1 55-3 62-8 6-6 21-8 32-4 32 10 140 153 242 321 52 84 95 154 97 154s0-10-3-22zm-559-409c-36-145-75-315-87-377s-24-110-26-108c-13 12 90 590 117 662 14 36 51 96 56 91 2-2-25-123-60-268zm2729 176c-48-43-70-56-63-35 3 9 98 79 108 79 3 0-17-20-45-44zm1640 25c4-6-17-10-55-10s-59 4-55 10c3 6 28 10 55 10s52-4 55-10zm2961-41c14-23 54-185 54-220 0-36-26-125-39-134-10-6-55 329-48 349 7 19 23 21 33 5zm596-121c-9-9-12-7-12 12s3 21 12 12 9-15 0-24zm-5187-67c-127-119-225-200-212-175 21 39 81 96 158 149 70 48 84 55 54 26zm5326-70 26-13-44-171c-25-95-47-182-50-194-11-47-20-18-36 125-10 81-20 166-23 188-5 41-4 42 30 48 18 4 40 13 46 22 7 8 16 13 19 12 3-2 18-10 32-17zm-6820-202c-25-54-27-40-4 27 9 27 19 42 20 33 2-8-5-35-16-60zm6328-37c-1-47-3-52-9-27-12 45-12 97 0 90 6-3 9-32 9-63zm-3754-168c122-118 122-112 14-128l-45-7 4 33c3 28-4 41-37 80-35 39-71 102-71 123 0 20 40-9 135-101zm-564 71c15-8 71-19 122-25 116-12 141-21 192-69 22-21 61-55 88-76 26-21 46-40 44-42-3-2-98-5-213-7-195-2-215-4-299-30-122-37-163-56-264-123-95-63-261-219-352-329-123-151-306-468-376-652-108-288-185-603-222-907-5-40-9-55-10-35-1 19-5 42-11 50-8 12-10 12-16-4-7-19 2-490 10-541 5-24 3-23-7 7-32 97-64 47-74-115-3-56-9-108-13-115-25-48-14 612 15 833 17 134 19 243 6 264-23 36-53-88-81-338-11-102-23-187-27-190-9-9 6 276 23 434 33 299 69 461 148 657 207 515 572 1e3 936 1244 94 62 125 78 225 116 55 20 107 18 156-7zm-2087-142c-3-21-23-76-44-123-138-312-247-668-294-960-101-619-133-953-122-1250 20-498 92-924 241-1414 20-65 34-120 32-122-7-8-126 301-156 407-55 191-122 559-151 834-6 55-13 201-17 325-21 754 135 1510 459 2228 28 61 53 112 55 112s1-17-3-37zm-553-224c-5-13-10-19-10-12-1 15 10 45 15 40 3-2 0-15-5-28zm1092-123c9-22-58-307-108-461-88-271-146-549-182-867-23-212-23-676 1-882 17-151 16-197-2-109-33 153-47 353-46 681 0 182-3 332-7 332-27 0-42-280-29-555 6-126 13-241 16-255 4-19 3-21-4-10-15 22-86 265-122 410-29 122-30 126-20 257 34 439 215 1025 438 1411 36 61 55 75 65 48zm-1139-30c-3-15-8-25-11-23-2 3-1 17 3 31 3 15 8 25 11 23 2-3 1-17-3-31zm-20-70c-3-15-8-25-11-23-2 3-1 17 3 31 3 15 8 25 11 23 2-3 1-17-3-31zm-917-133c-2-32-3-8-3 52 0 61 1 87 3 58s2-78 0-110zm863-59c-22-82-38-133-35-114 8 51 67 271 72 267 2-2-15-71-37-153zm2960 136c22-12 45-69 59-146 6-32 15-74 21-93 13-46-7-73-83-109-104-48-141-77-233-179-228-253-305-360-395-548-130-271-196-542-212-873-3-46-7-85-10-88-10-10-19 267-12 363 9 134 18 176 71 343 115 368 134 410 263 595 43 61 91 130 108 155 33 48 55 140 32 140-6 0-32-23-58-52-103-116-108-118-29-13 46 60 120 149 165 196 56 59 85 99 92 125 13 47 14 74 3 74-12 0-148-118-203-176-25-27-72-80-104-119-69-84-74-89-50-50 47 76 244 321 300 373 86 81 135 105 204 97 29-3 61-10 71-15zm-439-117c-6-10-27-36-47-58-40-44-35-32 15 33 34 43 49 56 32 25zm-2574-235c-3-8-6-5-6 6-1 11 2 17 5 13 3-3 4-12 1-19zm-880-180c-2-29-3-8-3 47s1 79 3 53 2-71 0-100zm663 51c-5-35-10-99-10-141s-4-99-10-125c-5-26-21-145-35-263-27-228-45-344-52-337-11 11 37 558 62 712 18 109 46 228 52 222 2-3-1-33-7-68zm869-366c-33-157-67-521-79-840-5-142-16-312-24-378s-18-201-22-300c-6-144-9-170-16-130-50 315-75 761-58 1036 20 325 77 665 163 974l22 80 11-200c7-121 8-217 3-242zm2469 360c-15-18-21-9-13 18 6 16 9 18 16 8 4-8 3-19-3-26zm-3961-90c-2-21-4-6-4 32 0 39 2 55 4 38 2-18 2-50 0-70zm3027 36c-14-28-28-48-31-45-6 5 44 96 53 96 2 0-7-23-22-51zm-3057-171c-2-18-4-6-4 27s2 48 4 33 2-42 0-60zm810 50c-3-8-6-5-6 6-1 11 2 17 5 13 3-3 4-12 1-19zm-770-55c-2-16-4-5-4 22 0 28 2 40 4 28 2-13 2-35 0-50zm277-219c-62-314-64-318-54-69 9 204 23 285 49 285 10 0 24 7 31 15 7 9 14 14 17 12 2-2-18-111-43-243zm483 199c-3-10-5-4-5 12 0 17 2 24 5 18 2-7 2-21 0-30zm-790-90c-2-16-4-5-4 22 0 28 2 40 4 28 2-13 2-35 0-50zm780 20c-3-10-5-4-5 12 0 17 2 24 5 18 2-7 2-21 0-30zm2104-209c-31-647-32-702-22-894 11-209 34-361 98-625 37-155 60-367 48-435l-7-35-13 25c-18 36-72 332-90 495-9 77-20 158-26 180-14 52-39 99-47 90-16-15 20-464 44-561 9-36-5-29-21 10-23 55-74 264-90 372-8 54-20 187-25 294-9 184-18 245-39 280-19 29-26-4-31-148l-5-147-9 237c-5 131-5 277-1 325 14 170 72 359 211 685 16 36 30 65 32 64 1-2-2-97-7-212zm-2114 129c-3-10-5-2-5 17s2 27 5 18c2-10 2-26 0-35zm-760-35c-2-13-4-3-4 22s2 35 4 23c2-13 2-33 0-45zm750-40c-2-13-4-5-4 17-1 22 1 32 4 23 2-10 2-28 0-40zm-588-35c0-47-3-62-9-48-14 34-10 115 6 115 2 0 4-30 3-67zm-152 10c-3-10-5-4-5 12 0 17 2 24 5 18 2-7 2-21 0-30zm723-130c-7-65-16-140-21-168-7-44-8-42-3 20 7 109 27 275 32 270 2-2-1-57-8-122zm-713 60c-3-10-5-4-5 12 0 17 2 24 5 18 2-7 2-21 0-30zm10-65c-3-7-5-2-5 12s2 19 5 13c2-7 2-19 0-25zm10-60c-3-7-5-2-5 12s2 19 5 13c2-7 2-19 0-25zm10-60c-3-8-6-5-6 6-1 11 2 17 5 13 3-3 4-12 1-19zm1510-255c-3-10-5-2-5 17s2 27 5 18c2-10 2-26 0-35zm23-731c11-101 19-186 17-189-6-6-36 236-47 377-5 69-9 199-8 290l1 165 8-229c4-126 17-312 29-414zm-1054-24c4-28-1-74-15-131-12-49-21-99-21-112 0-28 46-177 67-219l15-28 24 35c19 29 24 50 25 104l1 68 14-45c16-50 51-261 64-388 7-66 18-101 50-168 22-46 45-84 50-84 6 0 10 1 10 3 0 28-32 262-40 287-10 36-13 67-6 59 3-2 30-98 60-212 51-190 99-315 126-332 11-7 7 22-11 79-20 63-6 46 49-59 32-60 83-148 115-194 31-46 57-90 57-98s7-28 16-45c21-41 54-198 54-258 0-71-23-75-79-13-59 65-243 301-301 388-71 106-162 264-156 273 2 4-3 26-13 48-92 204-283 888-280 1003 0 38 17 91 18 60 1-9 8-22 16-29 12-10 18-8 35 11 11 13 23 35 26 48 6 19 8 21 15 8 5-9 12-35 15-59zm2131 35c-3-10-5-4-5 12 0 17 2 24 5 18 2-7 2-21 0-30zm-182-525c40-154 92-311 142-428 79-186 266-546 405-780 28-47-91 68-254 245-113 123-123 137-188 270-81 169-155 352-169 420-30 148-63 658-46 721 6 23 15-8 45-158 21-103 50-234 65-290zm192 430c-3-8-6-5-6 6-1 11 2 17 5 13 3-3 4-12 1-19zm9467-109c-49-142-96-253-139-332-41-74-54-88-29-29 9 20 33 82 54 137 44 117 142 337 147 332 2-2-13-51-33-108zm-10527-41c-3-7-5-2-5 12s2 19 5 13c2-7 2-19 0-25zm10747-72c-14-37-28-65-30-63s8 33 23 70c14 37 28 65 30 63s-8-34-23-70zm-10737 22c-3-8-6-5-6 6-1 11 2 17 5 13 3-3 4-12 1-19zm10694-125c-12-20-14-14-5 12 4 9 9 14 11 11 3-2 0-13-6-23zm-10246-223c113-395 248-720 420-1009 35-60 79-128 98-152 18-24 69-100 113-169s89-138 99-155c18-27-55 47-177 180-87 95-197 245-253 344-153 271-315 732-345 981-6 52-15 113-20 135-31 132 12 31 65-155zm2088 143c21-42 37-91 41-128 4-32 9-71 12-85l5-25-15 25c-28 46-95 280-80 280 2 0 19-30 37-67zm8133 20c-8-15-15-25-16-21 0 12 23 58 27 54 3-2-2-17-11-33zm-10766-143c24-85 47-177 52-205 26-140 46-214 98-370 156-461 323-814 651-1370 17-29 19-36 6-26-27 22-215 235-268 304-91 118-370 781-503 1194-81 253-153 541-131 523 18-15 25-1 32 66 3 30 9 51 13 47 5-4 27-78 50-163zm10691 123c-12-20-14-14-5 12 4 9 9 14 11 11 3-2 0-13-6-23zm-8541-28c0-5-5-3-10 5s-10 20-10 25c0 6 5 3 10-5s10-19 10-25zm8209-70c-25-57-126-235-142-250-5-5 10 28 35 75s62 118 83 158c42 81 57 91 24 17zm-7549-27c0-5-4-8-10-8-5 0-10 10-10 23 0 18 2 19 10 7 5-8 10-18 10-22zm-2149-188c49-134 129-373 125-377-4-5-3-8-89 232-62 174-84 246-73 235 2-3 19-44 37-90zm2174-70c27-53 31-70 15-70-12 0-36 46-45 88-10 46 1 40 30-18zm-3454 10c0 17 5 9 15-25 7-27 14-56 14-64 0-23-37 16-45 47-3 15-8 36-11 47-4 15-1 14 10-5l15-25 2 25zm2332-240c82-160 186-328 284-457 51-68 91-123 89-123s-53 59-115 130c-61 72-116 130-122 130-27 0 60-116 212-282 116-127 167-176 282-272 32-27 111-101 175-165 180-179 344-309 578-458 170-109 404-226 519-260 28-8 104-37 170-63s144-55 173-65c29-9 51-19 49-21-11-12-463 97-588 141-23 9-44 13-46 11-5-4 159-130 242-186 28-18 67-49 88-68 34-30 78-59 252-170 22-14 34-27 27-30-6-2-12-8-12-14 0-12 62-74 105-105 37-26 140-57 162-49 14 6 12 11-11 34-14 16-23 31-19 35 23 24 186-9 244-49 49-33 320-148 384-162 83-18 155-25 155-14s-3 12-101 48c-37 13-109 44-160 68-77 37-89 45-63 45 16 1 84-14 150-33 314-89 678-150 699-117 5 10-27 17-190 46-149 26-461 100-434 103 14 2 85-8 159-22 122-22 288-44 575-76 375-41 903-33 1295 21 80 11 159 22 175 25l30 6-40-32c-46-36-172-99-260-129-35-12-50-20-36-21 36 0 260 47 407 85 71 19 137 35 145 35 8-1-6-19-31-42-52-47-172-108-213-108-15 0-119-20-230-45-244-53-381-77-641-110-243-31-306-31-96 0 244 35 462 84 485 107 14 14-105 1-215-22-338-73-921-104-1185-62-443 70-881 208-1292 407-176 85-282 146-495 285-159 104-185 126-76 64 157-89 350-175 364-161 8 7-44 40-205 126-137 75-491 289-491 298 0 2 15-4 33-15 210-128 488-262 543-262 33 0-3 23-129 85-73 35-202 106-287 157-152 91-371 238-356 238 4 0 38-14 76-30s71-30 75-30-30 27-75 59c-182 130-304 234-491 421-292 291-436 482-604 800-129 244-180 363-194 450-7 41-14 86-17 100s12-11 33-55c20-44 59-123 86-175zm8217 231c-5-11-15-23-21-27-6-3-3 5 6 20 20 30 30 35 15 7zm-163-129c-7-16-20-39-30-53l-18-24 12 25c7 14 12 27 12 30 0 6 28 50 33 50 2 0-2-13-9-28zm191-64c-100-170-162-247-333-418-188-188-237-223-79-57 113 119 264 297 365 431 39 53 73 96 75 96s-11-24-28-52zm381-55c-130-216-335-507-443-628-307-346-543-579-729-718-124-92-588-369-857-510-319-167-741-311-1132-386-133-26-327-51-376-50-21 1 3 7 54 14 588 86 1255 331 1798 659 148 90 464 307 636 437 178 134 489 445 663 662 86 107 258 343 342 470 59 88 86 118 44 50zm-8714-333c221-328 286-420 403-565 107-132 101-123 74-101-12 11-25 16-28 13-10-9 15-43 102-137 89-95 86-94-111 42-146 100-219 171-312 303-105 149-238 378-273 468-31 81-94 325-80 310 4-4 106-154 225-333zm7969 253c-92-115-133-163-214-246-47-49-98-98-115-110-16-12 31 44 106 123 75 80 163 175 195 213 66 77 85 90 28 20zm-8784-28c0-5-5-3-10 5s-10 20-10 25c0 6 5 3 10-5s10-19 10-25zm8812-26c-57-90-313-348-437-439-11-8 86 94 215 227 129 134 237 243 238 243 2 0-5-14-16-31zm-6613-679c124-124 198-203 165-175-162 135-312 276-397 373-99 112-137 150-137 137 0-9 42-63 150-193 47-57 85-108 85-114s41-49 90-96c50-46 68-67 40-44-57 45-195 187-304 311-63 72-250 317-276 361-14 24 337-312 584-560zm-3730 441c128-216 347-520 526-731 54-63 105-124 114-135 15-18 15-19-2-6-52 40-278 318-412 506-89 125-259 387-271 420-14 34 6 11 45-54zm10076-109c-192-188-448-402-480-402-3 0 65 60 153 134 87 73 228 197 313 274 84 78 156 141 159 141s-63-66-145-147zm-9622 76c20-26 37-42 40-35 2 6 21-22 41-63l38-75-64 69c-71 78-130 155-109 141 11-6 13-4 7 11-9 23 0 14 47-48zm9910-2c-11-13-49-49-85-80-91-77-170-167-165-188 6-22-84-108-274-262-138-111-209-164-209-154 0 3 37 36 82 74 246 209 309 267 299 277-7 7-33-8-83-50-70-57-228-168-228-160 0 3 35 31 78 63 138 103 364 290 482 398 63 58 116 105 118 106 2 0-5-11-15-24zm-6418-69c26-15 59-51 100-109 34-48 88-120 120-160l58-73-57 49c-101 86-73 39 50-82 131-130 478-413 619-505 228-149 703-345 988-408 31-7 55-14 53-17-14-13-331 78-496 143-236 93-356 154-642 330-71 43-130 76-133 73-6-6 243-170 338-222 37-21 67-40 67-43 0-2-39 17-87 43-463 250-789 529-1009 861-59 89-78 129-68 145 8 13 49 2 99-25zm-477-380c51-42 146-117 212-167s120-93 120-96c0-16-261 173-406 294-84 70-150 136-206 205l-81 102 134-131c74-71 176-165 227-207zm6312 70c0-2-10-12-22-23l-23-19 19 23c18 21 26 27 26 19zm-90-78c-43-37-174-132-157-113 13 14 191 153 197 153 3 0-15-18-40-40zm-5935-268c199-124 253-165 130-100-148 78-230 130-285 182-31 29-49 47-40 41 8-7 96-62 195-123zm4990 104c-50-42-292-215-301-215-23 0 66 72 186 151 74 49 137 89 140 89s-8-11-25-25zm1035-131c-220-224-719-522-1150-687-272-104-491-163-766-206-180-29-433-56-441-47-2 2 33 9 79 15 136 20 421 79 500 105 40 14 127 38 193 55 159 40 385 117 570 196 164 69 225 88 249 79 8-3 41 8 73 26s94 53 138 77 87 51 95 60c14 14 12 15-12 9-14-3-34-9-45-12-10-4 38 28 107 71 141 87 330 215 405 274 28 22 52 40 55 40 2 1-20-24-50-55zm-4286 22c34-14 53-33 42-43-8-8-174 36-206 54-23 13-18 14 53 9 42-3 92-12 111-20zm296-42c47-20 131-52 187-72 57-21 103-40 103-44 0-5-15-8-34-8s-69-7-112-15c-70-13-80-13-93 0-14 13-7 15 62 15 42 0 77 4 77 9 0 12-87 48-138 56-24 4-84 29-135 57-89 48-91 49-47 43 25-3 83-22 130-41zm3669 5c-30-23-103-65-164-94-247-119-245-105 5 26 96 50 179 95 185 100 5 5 13 9 19 9 5 0-15-19-45-41zm-3942-75c15-4 22-15 25-42 3-21 8-45 12-54 17-38-27-17-87 42l-62 60h45c25 0 55-3 67-6zm-137-59c10-12 10-15-3-15-8 0-20 7-27 15-10 12-10 15 3 15 8 0 20-7 27-15zm-3726-358c10-15 17-30 14-32-14-14-225 200-290 295-22 31 13 2 113-95 79-77 152-153 163-168zm2647 197c353-158 529-219 891-309 234-59 335-79 492-101l101-13-95 5c-52 2-166 16-253 29-174 27-228 31-127 9 223-49 728-83 963-64 77 6 141 9 143 7s-29-10-68-17c-40-7-113-23-163-35-49-13-156-35-237-50-147-26-168-26-248 1-40 14 35 26 203 35 178 9 233 15 241 28 2 3-66 7-153 7-317 3-750 60-951 125-36 12-150 54-255 94-225 86-235 89-235 76 0-5 9-13 21-16 11-4 18-9 16-12-8-7-322 149-412 205-44 28-91 62-105 77l-25 27 23-7c13-4 118-49 233-101zm3349 46c-20-28-105-80-130-80-6 0 10 25 37 55 40 46 54 55 81 55h33l-21-30zm1345-19c-14-13-261-126-315-144-25-8-61-17-80-21l-35-6 35 17c59 27 384 161 395 162 6 1 6-2 0-8zm-6287-644c72-66 132-121 132-124 0-9-96 65-199 153-111 95-407 393-501 504-30 36 55-43 190-174 135-132 305-293 378-359zm2803 503c68-33 113-58 99-54-33 8-230 101-230 108 0 9 1 9 131-54zm2289 45c0-5-76-40-157-71-68-26-86-24-25 2 158 70 182 79 182 69zm-1246-57c18-96 34-237 30-256-5-18-9-20-21-10-10 8-13 28-11 67 3 54 2 56-21 53-20-2-22 0-11 13s11 19-3 32c-21 22-63 10-80-23l-14-26-21 27c-12 15-22 33-22 40s28 31 63 53c91 58 105 62 111 30zm1336-3c0-14-116-60-252-99-172-50-384-99-401-93-6 2 18 9 53 16 87 17 382 103 500 146 111 40 100 36 100 30zm169-55c-78-45-732-193-839-189-14 0 36 11 110 24 183 31 435 88 594 135 137 40 162 46 135 30zm-993-26c-36-20-138-55-143-50-5 4 146 65 162 65 6 0-3-7-19-15zm1349-13c-24-23-348-119-521-155-129-27-387-56-534-61-140-4-141-3-40 5 266 22 547 72 791 141 112 32 258 69 309 78 2 1 0-3-5-8zm-2099-86c76-36 134-65 127-65-23 0-189 63-253 96-51 26-60 33-39 34 14 0 88-29 165-65zm-1482-4c-1-1-33 7-70 19-41 14-62 25-54 30 11 7 132-40 124-49zm2446 30c-17-10-222-57-285-65-22-3 28 12 110 34 149 39 206 49 175 31zm-1185-37c38-13 38-13 5-7-19 3-53 12-75 19-38 13-38 13-5 7 19-3 53-12 75-19zm-178 0c-3-3-12-4-19-1-8 3-5 6 6 6 11 1 17-2 13-5zm1296-11c-7-2-19-2-25 0-7 3-2 5 12 5s19-2 13-5zm-1046-9c-3-3-12-4-19-1-8 3-5 6 6 6 11 1 17-2 13-5zm558-25c-49-16-94-28-98-26-15 5 136 56 163 55 14 0-15-13-65-29zm-508 15c-3-3-12-4-19-1-8 3-5 6 6 6 11 1 17-2 13-5zm726-11c-7-2-19-2-25 0-7 3-2 5 12 5s19-2 13-5zm235-20c-10-2-28-2-40 0-13 2-5 4 17 4 22 1 32-1 23-4zm-90-10c-10-2-28-2-40 0-13 2-5 4 17 4 22 1 32-1 23-4zm-2222-67c29-21 10-30-25-11-17 8-31 18-31 20 0 11 37 4 56-9zm-3103-116c-6-6-83 81-83 95 1 6 21-12 45-40 24-27 41-52 38-55zm3425 19c17-6 32-14 32-19s34-28 75-51c41-24 73-44 71-47-7-7-201 30-256 49-30 10-66 31-79 46l-24 28 24 7c28 8 110 1 157-13zm878-14c-64-32-71-33-119-24-28 5-52 11-54 13-8 7 157 42 212 45 25 1 18-5-39-34zm503-61c2-2-3-4-12-4-18 0-87 57-87 71 0 7 73-42 99-67zm-779 26c96-16 201-30 233-30 43 0 57-4 57-14 0-8 16-31 35-52 19-20 34-38 33-40-6-5-261-24-311-23l-52 1 38 10c65 17 41 28-65 29-138 1-210 11-233 32-11 10-49 37-85 60l-65 42 33 3c18 2 68-8 110-22 203-65 318-91 353-77 30 11 33 10-145 61-211 61-199 65 64 20zm3225-76c-150-94-718-353-915-417-100-33-401-109-407-104-6 6 129 47 155 47 35 0 254 80 367 134 61 29 161 84 222 123 62 39 145 83 185 97s147 53 238 86c180 65 216 73 155 34zm-5987-98c289-205 573-385 797-505 83-45 147-81 144-81-4 0-49 18-100 39-392 164-661 330-900 555-104 97-87 95 59-8zm-1011-54c48-31 64-38 108-41 14-1 167-102 162-107s-132 22-149 32c-19 11-241 175-253 186-17 17 75-32 132-70zm3678 51c22-15 67-42 100-61 69-38 61-38-110 4-179 44-227 84-103 84 63 0 79-4 113-27zm3225 13c0-7-193-123-265-159-83-41-455-190-461-185-2 3 67 34 154 71 119 51 391 182 570 276 1 0 2-1 2-3zm-4788-195c189-86 532-228 655-272 51-18 91-35 89-37-8-8-310 95-436 148-161 69-470 216-470 224 0 10 6 8 162-63zm-1237-156c23-20 18-19-17 6-27 18-48 34-48 36 0 7 35-16 65-42zm5233-66c-49-25-218-82-225-75-7 6-3 8 137 57 118 42 142 47 88 18zm-5413-47c44-23 119-72 166-110 47-37 106-82 129-99 24-18 38-33 30-33-28 0-540 268-540 283 0 2 30 2 68 2 58-1 77-6 147-43zm5770 6c-120-64-779-305-807-296-5 2 23 14 64 27 62 21 69 25 48 31-21 5-17 8 30 19 83 20 451 144 575 194 120 49 152 58 90 25zm-4935-191c186-89 356-156 599-237 359-120 677-198 994-245 87-12 161-26 165-30 16-17-639 29-871 61-81 11-159 31-282 73-275 95-820 329-803 346 2 2 42-9 88-25 102-35 160-46 160-32 0 6-62 50-137 97-76 48-142 92-148 97-12 12 56-19 235-105zm1112 24c101-32 233-78 293-101 110-43 331-103 500-136 49-10 84-19 77-22-14-4-232 38-382 74-176 43-623 202-690 246-18 12-36 17 202-61zm1623-88c167-10 147-25-25-18-175 6-223 13-214 27 4 7 32 8 73 4 36-3 111-9 166-13zm1472 11c-3-3-12-4-19-1-8 3-5 6 6 6 11 1 17-2 13-5zm-98-58c-6-6-225-61-339-85-151-32-285-42-595-45-159-2-261-2-225 0s154 8 262 14c108 5 268 19 355 30 161 21 494 77 502 85 2 3 13 5 24 5s18-2 16-4zm246-36c-11-5-27-9-35-9-9 0-8 4 5 9 11 5 27 9 35 9 9 0 8-4-5-9zm155 1c-33-19-241-84-340-107-144-33-160-29-25 6 61 16 166 46 235 68 128 41 156 48 130 33zm-2477-98c-7-2-19-2-25 0-7 3-2 5 12 5s19-2 13-5zm572-28c78-9 224-15 364-15 129 0 232-2 230-4s-66-9-141-15c-113-9-169-9-320 4-175 16-276 30-286 40-8 7 9 6 153-10zm1418-12c-7-2-19-2-25 0-7 3-2 5 12 5s19-2 13-5zm-2806-9c-3-3-12-4-19-1-8 3-5 6 6 6 11 1 17-2 13-5zm2678-15c-49-11-97-18-105-16-18 4 133 35 170 35 14 0-15-9-65-19zm-128-25c-3-3-12-4-19-1-8 3-5 6 6 6 11 1 17-2 13-5zm-2470-29c71-13 171-31 223-40 99-17 173-35 166-42-6-6-350 55-456 81-126 31-91 32 67 1zm2630-11c-3-3-12-4-19-1-8 3-5 6 6 6 11 1 17-2 13-5z"/>
<path d="m6198 11403c23-2 59-2 80 0 20 2 1 4-43 4s-61-2-37-4z"/>
<path d="m6028 11393c18-2 45-2 60 0s0 4-33 4-45-2-27-4z"/>
<path d="m6087 11242c-12-5 12-17 83-41 56-18 103-31 106-29 2 3-37 17-86 33-56 18-85 32-78 37 16 9 0 9-25 0z"/>
<path d="m6225 11210c33-11 65-19 70-19 16 1-57 26-95 32-19 4-8-2 25-13z"/>
<path d="m13 6180c0-30 2-43 4-27 2 15 2 39 0 55-2 15-4 2-4-28z"/>
<path d="m32 5685c0-16 2-22 5-12 2 9 2 23 0 30-3 6-5-1-5-18z"/>
<path d="m42 5610c0-19 2-27 5-17 2 9 2 25 0 35-3 9-5 1-5-18z"/>
<path d="m141 5414c0-11 3-14 6-6 3 7 2 16-1 19-3 4-6-2-5-13z"/>
</g>
</svg>
