<?xml version="1.0" encoding="UTF-8"?>
<svg version="1.1" viewBox="0 0 85.333 85.333" xml:space="preserve" xmlns="http://www.w3.org/2000/svg" xmlns:cc="http://creativecommons.org/ns#" xmlns:dc="http://purl.org/dc/elements/1.1/" xmlns:rdf="http://www.w3.org/1999/02/22-rdf-syntax-ns#"><metadata><rdf:RDF><cc:Work rdf:about=""><dc:format>image/svg+xml</dc:format><dc:type rdf:resource="http://purl.org/dc/dcmitype/StillImage"/></cc:Work></rdf:RDF></metadata><g transform="matrix(1.3333 0 0 -1.3333 0 85.333)"><g transform="scale(.1)"><path d="m640 320c0-176.73-143.27-320-320-320s-320 143.27-320 320 143.27 320 320 320 320-143.27 320-320" fill="#7db6d8"/><path d="m480 160h-320c-22.09 0-40 17.91-40 40v200-180c0-21.992 17.746-39.84 39.699-40h0.012 0.055 0.031 0.019 0.047 8e-3 0.059 0.011 0.059 320 0.059 0.011 0.059 8e-3 0.047 0.019 0.031 0.055 0.012c21.953 0.16 39.699 18.008 39.699 40v-20c0-22.09-17.91-40-40-40" fill="#6594b2"/><path d="m520 220c0-22.09-17.91-40-40-40h-320c-22.09 0-40 17.91-40 40v200c0 22.09 17.91 40 40 40h320c22.09 0 40-17.91 40-40v-200" fill="#e1e3cc"/><path d="m513.28 200.4c-1.109 1.36-2.343 2.735-3.777 4.141l-142.88 106.94 10.078 8.523 132.8-112.28c1.797-1.989 3.277-3.934 4.605-5.844-0.265-0.5-0.542-0.992-0.828-1.477m-386.55 0c-0.285 0.485-0.563 0.977-0.828 1.477 1.328 1.91 2.808 3.855 4.605 5.844l132.95 112.41 10.016-8.594-142.96-107c-1.434-1.406-2.664-2.781-3.777-4.141" fill="#b7b7a7"/><path d="m355.23 320c-19.379 18.996-51.089 18.996-70.468 0l-154.27-115.46c-1.797-1.762-3.277-3.48-4.605-5.176 7.011-11.562 19.593-19.363 34.105-19.363h320c14.512 0 27.094 7.801 34.105 19.363-1.328 1.696-2.808 3.414-4.605 5.176l-154.27 115.46" fill="#e1e3cc"/><path d="m159.95 460h0.051-0.051m320.1 0h-0.051 0.051" fill="#6594b2"/><path d="m376.7 320-21.469 18.152c-9.687 10.731-22.461 16.094-35.234 16.094s-25.547-5.363-35.234-16.094l-21.317-18.019-137.55 117.99c7 13.047 19.566 21.855 34.054 21.875h0.051 320 0.051c14.488-0.02 27.051-8.828 34.054-21.875-1.328-1.91-2.808-3.855-4.605-5.844l-132.8-112.28" fill="#b7b7a7"/><path d="m366.62 311.48-11.391 8.523c-9.687 9.496-22.461 14.246-35.234 14.246s-25.547-4.75-35.234-14.246l-11.301-8.461-10.016 8.594 21.317 18.019c9.687 10.731 22.461 16.094 35.234 16.094s25.547-5.363 35.234-16.094l21.469-18.152-10.078-8.523" fill="#97978c"/><path d="m320 285.75c-12.773 0-25.547 5.363-35.234 16.094l-11.301 9.691 11.301 8.461c9.687 9.496 22.461 14.246 35.234 14.246s25.547-4.75 35.234-14.246l11.391-8.523-11.391-9.629c-9.687-10.731-22.461-16.094-35.234-16.094" fill="#b7b7a7"/><path d="m284.77 320c19.379-18.996 51.089-18.996 70.468 0l154.27 115.46c1.797 1.762 3.277 3.48 4.605 5.176-7.011 11.562-19.593 19.363-34.105 19.363h-320c-14.512 0-27.094-7.801-34.105-19.363 1.328-1.696 2.808-3.414 4.605-5.176l154.27-115.46" fill="#fff"/></g></g></svg>
