<?xml version="1.0" encoding="UTF-8"?>
<svg version="1.1" viewBox="5.08 1.95 245.83 252.1" xml:space="preserve" xmlns="http://www.w3.org/2000/svg">
<desc>Created with Fabric.js 1.7.22</desc>

<g transform="translate(128 128) scale(.72)" style="">
	<g transform="translate(-175.05 -175.05) scale(3.89)" stroke-linecap="round">
	<path d="m45 1.611-42.268 26.623v57.175c0 1.645 1.334 2.979 2.979 2.979h78.577c1.645 0 2.979-1.334 2.979-2.979v-57.175l-42.267-26.623z" fill="#f9f9f9"/>
	<path d="m52.041 58.431c-0.469 0-0.934-0.204-1.253-0.596-0.56-0.691-0.455-1.706 0.236-2.268l35.227-28.585c0.694-0.56 1.707-0.455 2.268 0.236 0.56 0.691 0.455 1.706-0.236 2.267l-35.228 28.586c-0.299 0.242-0.658 0.36-1.014 0.36z" fill="#606060"/>
	<path d="m37.958 58.431c-0.357 0-0.716-0.118-1.015-0.36l-35.226-28.586c-0.691-0.561-0.797-1.576-0.236-2.267 0.56-0.692 1.575-0.797 2.267-0.236l35.227 28.585c0.691 0.561 0.797 1.576 0.236 2.268-0.319 0.392-0.784 0.596-1.253 0.596z" fill="#606060"/>
	<path d="m86.191 89.588-41.191-36.914-41.192 36.914-2.151-2.4 42.267-37.878c0.612-0.549 1.539-0.549 2.151 0l42.267 37.878-2.151 2.4z" fill="#606060"/>
	<path d="m84.287 90h-78.576c-2.531 0-4.59-2.06-4.59-4.592v-57.174c0-0.554 0.284-1.068 0.753-1.364l42.267-26.622c0.525-0.33 1.193-0.33 1.718 0l42.267 26.622c0.468 0.295 0.753 0.81 0.753 1.364v57.174c0 2.532-2.06 4.592-4.592 4.592zm-79.943-60.877v56.285c0 0.754 0.613 1.367 1.367 1.367h78.576c0.754 0 1.367-0.613 1.367-1.367v-56.285l-40.654-25.607-40.656 25.607z" fill="#606060"/>
	<path d="m25.678 11.013v34.706c0 0.603 0.272 1.174 0.74 1.554l10.216 8.29c0.763 0.619 1.864 0.592 2.596-0.064l4.434-3.974c0.76-0.681 1.91-0.681 2.67 0l4.434 3.974c0.732 0.656 1.832 0.683 2.596 0.064l10.216-8.29c0.468-0.38 0.74-0.951 0.74-1.553v-34.707c0-1.171-0.949-2.12-2.12-2.12h-34.402c-1.171 0-2.12 0.949-2.12 2.12zm26.576 18.542c-1.218 1.559-3.95 3.946-6.13 5.407-0.683 0.458-1.565 0.458-2.249 0-2.18-1.461-4.913-3.849-6.13-5.407-2.84-3.635-3.746-8.184-1.589-10.621 1.775-2.005 4.937-2.473 7.693-0.599 0.705 0.479 1.597 0.479 2.302 0 2.756-1.874 5.918-1.406 7.693 0.599 2.157 2.437 1.25 6.986-1.59 10.621z" fill="#f8305f"/>
	<path d="m37.896 57.686c-0.817 0-1.635-0.273-2.315-0.825l-10.216-8.29c-0.863-0.701-1.359-1.74-1.359-2.851v-34.707c0-2.09 1.701-3.791 3.792-3.791h34.403c2.091 0 3.791 1.701 3.791 3.791v34.706c0 1.112-0.495 2.151-1.358 2.851l-10.216 8.29c-1.409 1.141-3.412 1.093-4.765-0.117l-4.433-3.973c-0.126-0.114-0.315-0.113-0.44 0l-4.435 3.974c-0.699 0.627-1.574 0.942-2.449 0.942zm-10.098-47.121c-0.247 0-0.448 0.201-0.448 0.448v34.706c0 0.1 0.044 0.193 0.122 0.256l10.215 8.289c0.127 0.102 0.307 0.1 0.427-0.011l4.435-3.974c1.398-1.252 3.504-1.251 4.902 0l4.435 3.975c0.12 0.109 0.301 0.111 0.428 0.01l10.215-8.29c0.077-0.063 0.121-0.156 0.121-0.255v-34.706c0-0.247-0.2-0.448-0.448-0.448h-34.404zm17.202 26.414c-0.715 0-1.431-0.209-2.055-0.627-2.407-1.613-5.209-4.093-6.517-5.767-3.538-4.528-4.164-9.774-1.523-12.758 2.431-2.747 6.588-3.114 9.884-0.873 0.137 0.094 0.283 0.094 0.422 0 3.297-2.241 7.453-1.873 9.885 0.873 2.641 2.984 2.014 8.23-1.524 12.759-1.309 1.675-4.11 4.154-6.517 5.767-0.624 0.417-1.34 0.626-2.055 0.626zm-4.825-18.155c-1.062 0-2.052 0.41-2.767 1.218-1.482 1.674-0.755 5.4 1.655 8.484 1.083 1.387 3.66 3.652 5.744 5.048 0.118 0.08 0.267 0.081 0.386 0 2.084-1.396 4.661-3.661 5.744-5.048 2.41-3.083 3.137-6.81 1.655-8.484-1.321-1.493-3.583-1.627-5.502-0.324-1.269 0.863-2.912 0.863-4.181 0-0.88-0.599-1.833-0.894-2.734-0.894z" fill="#606060"/>
</g>
</g>
</svg>
