<svg width="501" height="501" viewBox="0 0 501 501" fill="none" xmlns="http://www.w3.org/2000/svg">
<path d="M250.288 0.17395C112.074 0.17395 0.391312 112.062 0.391312 250.071C0.391312 355.995 66.2078 446.492 159.174 482.897C156.911 463.152 155.06 432.712 159.996 411.116C164.521 391.577 189.202 286.887 189.202 286.887C189.202 286.887 181.798 271.873 181.798 249.865C181.798 215.106 201.954 189.191 227.047 189.191C248.437 189.191 258.721 205.234 258.721 224.362C258.721 245.752 245.147 277.837 237.948 307.661C231.983 332.547 250.494 352.909 274.97 352.909C319.396 352.909 353.538 306.015 353.538 238.553C353.538 178.701 310.552 136.949 249.054 136.949C177.89 136.949 136.138 190.219 136.138 245.341C136.138 266.731 144.365 289.767 154.649 302.313C156.706 304.781 156.911 307.044 156.294 309.512C154.443 317.327 150.124 334.399 149.301 337.895C148.273 342.42 145.599 343.448 140.868 341.186C110.017 326.377 90.6834 280.717 90.6834 244.106C90.6834 165.332 147.861 92.9341 255.842 92.9341C342.432 92.9341 409.894 154.637 409.894 237.319C409.894 323.498 355.595 392.811 280.317 392.811C255.019 392.811 231.161 379.647 223.139 364.016C223.139 364.016 210.593 411.733 207.508 423.457C201.954 445.258 186.734 472.408 176.451 489.067C199.898 496.266 224.579 500.174 250.494 500.174C388.503 500.174 500.391 388.286 500.391 250.277C500.186 112.062 388.298 0.17395 250.288 0.17395Z" fill="#BD081C"/>
</svg>
