<?xml version="1.0" encoding="UTF-8"?>
<svg width="1200" height="800" viewBox="-93.241 -156.23 808.09 937.4" xmlns="http://www.w3.org/2000/svg" xmlns:xlink="http://www.w3.org/1999/xlink">
<defs>
<linearGradient id="e" x1="270.26" x2="270.26" y1="1.184" y2="541.56" gradientTransform="scale(.99775 1.0022)" gradientUnits="userSpaceOnUse">
<stop stop-color="#20B038" offset="0"/>
<stop stop-color="#60D66A" offset="1"/>
</linearGradient>
<linearGradient id="b" x1="279.95" x2="279.95" y1=".811" y2="560.57" gradientTransform="scale(.99777 1.0022)" gradientUnits="userSpaceOnUse">
<stop stop-color="#F9F9F9" offset="0"/>
<stop stop-color="#FFF" offset="1"/>
</linearGradient>
<filter id="g" x="-.056" y="-.062" width="1.112" height="1.11">
<feGaussianBlur in="SourceGraphic" stdDeviation="2"/>
</filter>
<filter id="f" x="-.082" y="-.088" width="1.164" height="1.162">
<feOffset dy="-4" in="SourceAlpha" result="shadowOffsetOuter1"/>
<feGaussianBlur in="shadowOffsetOuter1" result="shadowBlurOuter1" stdDeviation="12.5"/>
<feComposite in="shadowBlurOuter1" in2="SourceAlpha" operator="out" result="shadowBlurOuter1"/>
<feColorMatrix in="shadowBlurOuter1" values="0 0 0 0 0 0 0 0 0 0 0 0 0 0 0 0 0 0 0.21 0"/>
</filter>
<path id="a" d="m576.34 707.52c-0.018-49.17 12.795-97.167 37.15-139.48l-39.487-144.56 147.55 38.792c40.652-22.23 86.423-33.944 133-33.962h0.12c153.4 0 278.26 125.17 278.33 278.98 0.025 74.548-28.9 144.64-81.446 197.37-52.554 52.73-122.43 81.784-196.88 81.817-153.42 0-278.27-125.15-278.33-278.96z"/>
</defs>
<g fill-rule="evenodd">
<g transform="matrix(1 0 0 -1 -542.7 1013.5)" fill-rule="nonzero" filter="url(#g)">
<use width="100%" height="100%" filter="url(#f)" xlink:href="#a"/>
<use width="100%" height="100%" fill-opacity=".2" xlink:href="#a"/>
</g>
<path transform="matrix(1 0 0 -1 41.304 577.5)" d="m2.325 274.42c-0.014-47.29 12.342-93.466 35.839-134.17l-38.087-139.07 142.31 37.316c39.209-21.37 83.354-32.647 128.28-32.663h0.12c147.95 0 268.39 120.4 268.45 268.37 0.03 71.707-27.87 139.13-78.559 189.86-50.68 50.726-118.08 78.676-189.9 78.708-147.97 0-268.4-120.39-268.46-268.36" fill="url(#e)" fill-rule="nonzero"/>
<path transform="matrix(1 0 0 -1 31.637 586.84)" d="m2.407 283.85c-0.018-48.996 12.784-96.824 37.117-138.98l-39.452-144.05 147.42 38.654c40.616-22.15 86.346-33.824 132.88-33.841h0.12c153.26 0 278.02 124.72 278.08 277.99 0.026 74.286-28.874 144.13-81.374 196.68-52.507 52.544-122.33 81.494-196.71 81.528-153.28 0-278.03-124.7-278.09-277.98zm87.789-131.72-5.503 8.74c-23.138 36.79-35.353 79.307-35.333 122.96 0.049 127.4 103.73 231.04 231.22 231.04 61.74-0.025 119.76-24.09 163.41-67.763 43.639-43.67 67.653-101.73 67.635-163.47-0.054-127.4-103.74-231.06-231.13-231.06h-0.09c-41.482 0.022-82.162 11.159-117.64 32.214l-8.444 5.004-87.481-22.935z" fill="url(#b)" fill-rule="nonzero"/>
<path d="m242.63 186.78c-5.205-11.57-10.684-11.803-15.636-12.006-4.05-0.173-8.687-0.162-13.316-0.162-4.632 0-12.161 1.74-18.527 8.693-6.37 6.953-24.322 23.761-24.322 57.947 0 34.19 24.901 67.222 28.372 71.862 3.474 4.634 48.07 77.028 118.69 104.88 58.696 23.146 70.64 18.542 83.38 17.384s41.11-16.805 46.9-33.03c5.791-16.223 5.791-30.128 4.054-33.035-1.738-2.896-6.37-4.633-13.319-8.108-6.95-3.475-41.11-20.287-47.48-22.603s-11.003-3.474-15.635 3.482c-4.633 6.95-17.94 22.596-21.996 27.23-4.053 4.643-8.106 5.222-15.056 1.747-6.949-3.485-29.328-10.815-55.876-34.485-20.656-18.416-34.6-41.16-38.656-48.116-4.053-6.95-0.433-10.714 3.052-14.178 3.12-3.113 6.95-8.11 10.424-12.168 3.467-4.057 4.626-6.953 6.942-11.586 2.316-4.64 1.158-8.698-0.579-12.172-1.737-3.475-15.241-37.838-21.42-51.576" fill="#FFF"/>
</g>
</svg>
